<?xml version="1.0" standalone="no"?>
<!DOCTYPE svg PUBLIC "-//W3C//DTD SVG 20010904//EN"
        "http://www.w3.org/TR/2001/REC-SVG-20010904/DTD/svg10.dtd">
<svg version="1.0" xmlns="http://www.w3.org/2000/svg"
     width="100.000000pt" height="85.000000pt" viewBox="0 0 100.000000 85.000000"
     preserveAspectRatio="xMidYMid meet">

    <g transform="translate(0.000000,85.000000) scale(0.100000,-0.100000)"
       fill="#009efd" stroke="none">
        <path d="M205 604 c-77 -63 -140 -118 -140 -123 0 -14 286 -241 296 -235 5 3
9 23 9 45 0 21 3 39 6 39 3 0 30 -20 58 -45 29 -25 56 -45 59 -45 3 0 7 30 9
68 l3 67 56 -1 c88 -2 188 -37 243 -85 46 -40 86 -103 86 -134 0 -8 7 -15 16
-15 13 0 15 8 11 38 -14 115 -64 226 -130 290 -58 56 -108 81 -202 101 l-80
17 -3 67 c-2 37 -5 67 -8 67 -2 0 -30 -20 -62 -45 l-57 -45 -5 42 c-3 23 -9
43 -15 44 -5 2 -73 -49 -150 -112z m135 27 c0 -25 -12 -40 -70 -87 -38 -32
-70 -61 -70 -64 0 -3 32 -31 70 -63 58 -48 70 -62 70 -87 0 -17 -5 -30 -10
-30 -13 0 -220 170 -220 181 0 11 203 178 218 178 7 1 12 -11 12 -28z m138
-29 l3 -52 41 0 c134 0 271 -93 324 -220 16 -37 4 -39 -40 -5 -18 13 -49 32
-71 40 -45 19 -172 45 -221 45 l-34 0 0 -49 c0 -28 -4 -53 -10 -56 -13 -8
-218 156 -219 175 0 17 198 180 214 176 6 -1 11 -26 13 -54z"/>
    </g>
</svg>
