<?xml version="1.0" standalone="no"?>
<!DOCTYPE svg PUBLIC "-//W3C//DTD SVG 20010904//EN"
        "http://www.w3.org/TR/2001/REC-SVG-20010904/DTD/svg10.dtd">
<svg version="1.0" xmlns="http://www.w3.org/2000/svg"
     width="100.000000pt" height="85.000000pt" viewBox="0 0 100.000000 85.000000"
     preserveAspectRatio="xMidYMid meet">

    <g transform="translate(0.000000,85.000000) scale(0.100000,-0.100000)"
       fill="#009efd" stroke="none">
        <path d="M130 535 l0 -305 249 0 249 0 116 -100 c63 -55 120 -100 126 -100 7
0 10 132 10 405 l0 405 -375 0 -375 0 0 -305z m718 -88 c1 -243 -1 -357 -8
-357 -6 0 -52 36 -102 80 l-92 80 -240 2 -241 3 -3 265 c-1 146 0 270 3 277 3
11 75 13 342 11 l338 -3 3 -358z"/>
        <path d="M456 685 c-34 -32 -35 -77 -1 -110 13 -14 36 -25 50 -25 36 0 75 42
75 80 0 38 -39 80 -73 80 -13 0 -36 -11 -51 -25z m90 -30 c15 -23 15 -27 0
-50 -10 -15 -26 -25 -41 -25 -15 0 -31 10 -41 25 -15 23 -15 27 0 50 10 15 26
25 41 25 15 0 31 -10 41 -25z"/>
        <path d="M287 592 c-22 -24 -22 -66 0 -88 16 -15 16 -17 -3 -30 -35 -24 -55
-48 -52 -64 3 -13 38 -15 273 -15 235 0 270 2 273 15 3 16 -17 40 -52 64 -19
13 -19 15 -3 30 36 37 9 106 -41 106 -25 0 -62 -36 -62 -62 0 -10 9 -27 21
-39 34 -34 9 -46 -43 -20 -27 12 -64 21 -93 21 -29 0 -66 -9 -93 -21 -52 -26
-77 -14 -43 20 26 26 27 51 1 79 -25 27 -61 28 -83 4z m71 -38 c4 -30 -21 -48
-47 -34 -24 12 -27 30 -9 48 19 19 53 10 56 -14z m356 3 c9 -15 7 -21 -9 -33
-10 -8 -24 -13 -29 -11 -17 6 -29 34 -23 51 9 22 46 17 61 -7z m-125 -95 c50
-37 39 -42 -83 -42 -64 0 -116 4 -116 8 0 15 36 43 66 52 39 12 104 3 133 -18z
m-229 -27 c0 -11 -12 -15 -51 -15 -45 0 -50 2 -39 15 7 9 29 15 51 15 28 0 39
-4 39 -15z m378 -2 c2 -9 -10 -13 -42 -13 -35 0 -46 4 -46 16 0 12 9 14 42 12
23 -2 43 -9 46 -15z"/>
    </g>
</svg>
