<?xml version="1.0" standalone="no"?>
<!DOCTYPE svg PUBLIC "-//W3C//DTD SVG 20010904//EN"
        "http://www.w3.org/TR/2001/REC-SVG-20010904/DTD/svg10.dtd">
<svg version="1.0" xmlns="http://www.w3.org/2000/svg"
     width="100.000000pt" height="85.000000pt" viewBox="0 0 100.000000 85.000000"
     preserveAspectRatio="xMidYMid meet">

    <g transform="translate(0.000000,85.000000) scale(0.100000,-0.100000)"
       fill="#009efd" stroke="none">
        <path d="M138 795 c-16 -22 -18 -56 -18 -377 1 -431 -11 -398 145 -398 96 0
106 2 103 18 -3 14 -19 18 -108 22 l-105 5 0 355 0 355 105 5 c89 4 105 8 108
23 3 15 -7 17 -105 17 -102 -1 -109 -2 -125 -25z"/>
        <path d="M310 495 l-74 -75 74 -75 c41 -41 78 -75 82 -75 20 0 3 30 -42 75
-27 26 -47 52 -44 57 3 4 86 8 185 8 113 0 179 4 179 10 0 6 -66 10 -179 10
-99 0 -182 4 -185 8 -3 5 17 31 44 57 45 45 62 75 42 75 -4 0 -41 -34 -82 -75z"/>
        <path d="M710 420 c0 -5 5 -10 10 -10 6 0 10 5 10 10 0 6 -4 10 -10 10 -5 0
-10 -4 -10 -10z"/>
        <path d="M780 420 c0 -5 5 -10 10 -10 6 0 10 5 10 10 0 6 -4 10 -10 10 -5 0
-10 -4 -10 -10z"/>
        <path d="M840 420 c0 -5 7 -10 15 -10 8 0 15 5 15 10 0 6 -7 10 -15 10 -8 0
-15 -4 -15 -10z"/>
    </g>
</svg>
