<svg xmlns="http://www.w3.org/2000/svg" x="0px" y="0px"
width="48" height="48"
viewBox="0 0 192 192"
style=" fill:#000000;"><g fill="none" fill-rule="nonzero" stroke="none" stroke-width="1" stroke-linecap="butt" stroke-linejoin="miter" stroke-miterlimit="10" stroke-dasharray="" stroke-dashoffset="0" font-family="none" font-weight="none" font-size="none" text-anchor="none" style="mix-blend-mode: normal"><path d="M0,192v-192h192v192z" fill="none"></path><g fill="#009efd"><path d="M48,16c-8.7445,0 -16,7.2555 -16,16v8h-8c-4.416,0 -8,3.584 -8,8c0,4.416 3.584,8 8,8h8v16h-8c-4.416,0 -8,3.584 -8,8c0,4.416 3.584,8 8,8h8v16h-8c-4.416,0 -8,3.584 -8,8c0,4.416 3.584,8 8,8h8v16h-8c-4.416,0 -8,3.584 -8,8c0,4.416 3.584,8 8,8h8v8c0,8.7445 7.2555,16 16,16h96c8.7445,0 16,-7.2555 16,-16v-128c0,-8.7445 -7.2555,-16 -16,-16zM48,32h96v128h-96zM64,56v16h64v-16z"></path></g></g></svg>