<?xml version="1.0" standalone="no"?>
<!DOCTYPE svg PUBLIC "-//W3C//DTD SVG 20010904//EN"
        "http://www.w3.org/TR/2001/REC-SVG-20010904/DTD/svg10.dtd">
<svg version="1.0" xmlns="http://www.w3.org/2000/svg"
     width="100.000000pt" height="85.000000pt" viewBox="0 0 100.000000 85.000000"
     preserveAspectRatio="xMidYMid meet">

    <g transform="translate(0.000000,85.000000) scale(0.100000,-0.100000)"
       fill="#009efd" stroke="none">
        <path d="M370 764 c-134 -36 -235 -142 -260 -272 -18 -96 27 -213 106 -280 38
-31 41 -37 34 -64 -5 -16 -18 -44 -29 -62 -12 -18 -21 -37 -21 -41 0 -4 20 -5
45 -2 47 7 97 28 127 55 13 11 45 15 120 17 132 2 195 25 277 101 76 70 105
133 105 229 1 56 -5 81 -26 125 -32 65 -48 85 -111 133 -92 70 -241 95 -367
61z m225 -29 c150 -39 248 -155 248 -290 -1 -116 -60 -203 -180 -262 -75 -37
-80 -38 -184 -38 -95 0 -110 -2 -131 -21 -46 -42 -96 -58 -83 -26 4 9 12 34
17 54 10 37 10 38 -42 85 -68 61 -100 127 -100 208 0 205 226 349 455 290z"/>
        <path d="M454 636 c-17 -8 -34 -21 -38 -31 -12 -31 -6 -129 9 -149 27 -35 19
-62 -22 -79 -42 -17 -67 -41 -77 -74 l-7 -23 181 0 181 0 -7 23 c-10 33 -35
57 -76 74 -42 17 -47 36 -23 84 11 19 15 50 13 87 -3 52 -6 58 -37 79 -39 26
-54 28 -97 9z m81 -36 c24 -9 26 -14 22 -58 -2 -27 -11 -63 -20 -82 -10 -18
-17 -41 -17 -51 0 -20 35 -50 80 -69 16 -7 30 -16 30 -21 0 -5 -58 -9 -130 -9
-72 0 -130 4 -130 9 0 5 14 14 30 21 45 19 80 49 80 69 0 10 -8 33 -17 52 -22
43 -28 116 -12 135 13 16 47 18 84 4z"/>
    </g>
</svg>
