<?xml version="1.0" standalone="no"?>
<!DOCTYPE svg PUBLIC "-//W3C//DTD SVG 20010904//EN"
        "http://www.w3.org/TR/2001/REC-SVG-20010904/DTD/svg10.dtd">
<svg version="1.0" xmlns="http://www.w3.org/2000/svg"
     width="100.000000pt" height="85.000000pt" viewBox="0 0 100.000000 85.000000"
     preserveAspectRatio="xMidYMid meet">

    <g transform="translate(0.000000,85.000000) scale(0.100000,-0.100000)"
       fill="#009efd" stroke="none">
        <path d="M493 690 c-55 -22 -70 -123 -30 -209 24 -53 18 -67 -43 -97 -46 -22
-70 -48 -70 -76 0 -17 13 -18 180 -18 167 0 180 1 180 18 0 28 -24 54 -70 76
-62 30 -68 45 -43 103 15 34 21 66 20 108 -2 55 -4 61 -36 82 -36 25 -53 27
-88 13z m87 -29 c21 -17 24 -26 22 -74 -4 -88 -39 -153 -79 -145 -9 2 -28 18
-40 37 -18 27 -23 48 -23 102 0 59 3 70 22 83 30 21 68 20 98 -3z m-10 -251
c0 -10 -7 -23 -15 -30 -21 -17 -65 2 -65 28 0 16 7 19 40 19 31 0 40 -3 40
-17z m-80 -35 c16 -20 59 -19 81 1 16 14 21 13 61 -7 41 -21 58 -35 58 -51 0
-5 -72 -8 -160 -8 -88 0 -160 3 -160 8 0 15 16 30 55 50 49 26 49 26 65 7z"/>
        <path d="M163 540 c-55 -22 -70 -123 -30 -209 24 -53 18 -67 -43 -97 -46 -22
-70 -48 -70 -76 0 -17 13 -18 180 -18 167 0 180 1 180 18 0 28 -24 54 -70 76
-62 30 -68 45 -43 103 15 34 21 66 20 108 -2 55 -4 61 -36 82 -36 25 -53 27
-88 13z m87 -29 c21 -17 24 -26 22 -74 -4 -88 -39 -153 -79 -145 -9 2 -28 18
-40 37 -18 27 -23 48 -23 102 0 59 3 70 22 83 30 21 68 20 98 -3z m-10 -251
c0 -10 -7 -23 -15 -30 -21 -17 -65 2 -65 28 0 16 7 19 40 19 31 0 40 -3 40
-17z m-80 -35 c16 -20 59 -19 81 1 16 14 21 13 61 -7 41 -21 58 -35 58 -51 0
-5 -72 -8 -160 -8 -88 0 -160 3 -160 8 0 15 16 30 55 50 49 26 49 26 65 7z"/>
        <path d="M773 540 c-55 -22 -70 -123 -30 -209 24 -53 18 -67 -43 -97 -46 -22
-70 -48 -70 -76 0 -17 13 -18 180 -18 167 0 180 1 180 18 0 28 -24 54 -70 76
-62 30 -68 45 -43 103 15 34 21 66 20 108 -2 55 -4 61 -36 82 -36 25 -53 27
-88 13z m87 -29 c21 -17 24 -26 22 -74 -4 -88 -39 -153 -79 -145 -9 2 -28 18
-40 37 -18 27 -23 48 -23 102 0 59 3 70 22 83 30 21 68 20 98 -3z m-10 -251
c0 -10 -7 -23 -15 -30 -21 -17 -65 2 -65 28 0 16 7 19 40 19 31 0 40 -3 40
-17z m-80 -35 c16 -20 59 -19 81 1 16 14 21 13 61 -7 41 -21 58 -35 58 -51 0
-5 -72 -8 -160 -8 -88 0 -160 3 -160 8 0 15 16 30 55 50 49 26 49 26 65 7z"/>
    </g>
</svg>
