<?xml version="1.0" standalone="no"?>
<!DOCTYPE svg PUBLIC "-//W3C//DTD SVG 20010904//EN"
        "http://www.w3.org/TR/2001/REC-SVG-20010904/DTD/svg10.dtd">
<svg version="1.0" xmlns="http://www.w3.org/2000/svg"
     width="100.000000pt" height="85.000000pt" viewBox="0 0 100.000000 85.000000"
     preserveAspectRatio="xMidYMid meet">

    <g transform="translate(0.000000,85.000000) scale(0.100000,-0.100000)"
       fill="#009efd" stroke="none">
        <path d="M480 690 c0 -82 -3 -150 -7 -150 -4 0 -29 21 -55 47 -38 37 -50 45
-60 35 -10 -10 3 -28 62 -87 l75 -75 75 75 c58 59 72 77 62 87 -10 10 -23 2
-62 -37 l-50 -49 0 152 c0 145 -1 152 -20 152 -19 0 -20 -7 -20 -150z"/>
        <path d="M0 365 l0 -355 495 0 495 0 0 355 0 355 -215 0 c-208 0 -215 -1 -215
-20 0 -19 7 -20 177 -20 l176 0 -208 -165 c-132 -105 -212 -162 -219 -156 -6
4 -100 78 -209 164 l-198 157 178 2 c160 3 178 5 181 21 3 16 -12 17 -217 17
l-221 0 0 -355z m275 110 c110 -87 205 -162 211 -166 6 -5 97 60 237 171 l227
180 0 -305 c0 -298 0 -305 -20 -305 -19 0 -20 7 -20 250 0 138 -2 250 -5 250
-3 0 -96 -72 -207 -159 l-202 -160 -40 32 c-23 17 -116 91 -208 164 l-168 133
0 -255 c0 -248 -1 -255 -20 -255 -20 0 -20 7 -20 307 0 291 1 305 18 291 9 -8
107 -86 217 -173z m-2 -118 c78 -62 160 -127 183 -144 l40 -32 183 145 c101
79 185 144 187 144 2 0 4 -94 4 -210 l0 -210 -375 0 -375 0 0 210 c0 116 2
210 5 210 3 0 70 -51 148 -113z"/>
    </g>
</svg>
