<?xml version="1.0" standalone="no"?>
<!DOCTYPE svg PUBLIC "-//W3C//DTD SVG 20010904//EN"
        "http://www.w3.org/TR/2001/REC-SVG-20010904/DTD/svg10.dtd">
<svg version="1.0" xmlns="http://www.w3.org/2000/svg"
     width="100.000000pt" height="85.000000pt" viewBox="0 0 100.000000 85.000000"
     preserveAspectRatio="xMidYMid meet">

    <g transform="translate(0.000000,85.000000) scale(0.100000,-0.100000)"
       fill="#009efd" stroke="none">
        <path d="M446 803 c-2 -10 -7 -37 -11 -59 -5 -31 -13 -44 -31 -53 -35 -16 -43
-14 -80 14 -43 33 -54 32 -94 -10 -38 -39 -38 -35 10 -111 11 -18 11 -27 1
-52 -11 -25 -20 -32 -54 -37 -78 -12 -77 -11 -77 -70 0 -59 -1 -58 76 -70 31
-5 44 -13 53 -31 16 -35 14 -43 -14 -80 -33 -43 -32 -54 10 -94 39 -38 35 -38
113 11 19 12 26 12 49 -1 26 -14 33 -29 48 -102 5 -26 9 -28 60 -28 59 0 58
-1 70 77 5 34 12 43 37 54 25 10 34 10 52 -1 76 -48 72 -48 111 -10 42 40 43
51 10 94 -28 37 -30 45 -14 80 9 18 22 26 53 31 77 12 76 11 76 70 0 59 1 58
-77 70 -34 5 -43 12 -54 37 -10 25 -10 34 1 52 48 76 48 72 10 111 -40 42 -51
43 -94 10 -37 -28 -45 -30 -80 -14 -18 9 -26 22 -31 53 -12 77 -11 76 -70 76
-43 0 -55 -4 -59 -17z m99 -55 c12 -62 16 -68 52 -83 48 -20 59 -19 99 12 l35
26 26 -26 26 -26 -26 -35 c-31 -40 -32 -51 -12 -99 11 -27 22 -37 47 -42 66
-13 68 -15 68 -50 0 -30 -4 -34 -32 -40 -62 -12 -68 -16 -83 -52 -20 -48 -19
-59 12 -99 l26 -35 -26 -26 -26 -26 -35 26 c-40 31 -51 32 -99 12 -36 -15 -40
-21 -52 -83 -6 -28 -10 -32 -40 -32 -31 0 -34 2 -45 50 -10 44 -17 53 -47 65
-48 20 -59 19 -99 -12 l-35 -26 -26 25 -25 25 28 42 c27 41 27 43 12 84 -13
38 -19 43 -66 56 -49 13 -52 16 -52 47 0 34 3 36 68 49 25 5 36 15 47 42 20
48 19 59 -12 99 l-26 35 26 26 26 26 35 -26 c40 -31 51 -32 99 -12 36 15 40
21 52 83 6 28 10 32 40 32 30 0 34 -4 40 -32z"/>
        <path d="M450 543 c-104 -54 -102 -184 4 -237 49 -24 99 -15 142 28 43 43 52
93 28 142 -36 72 -110 100 -174 67z m126 -47 c47 -47 47 -95 0 -142 -47 -47
-95 -47 -142 0 -47 47 -47 95 0 142 47 47 95 47 142 0z"/>
    </g>
</svg>
