<svg xmlns="http://www.w3.org/2000/svg" x="0px" y="0px"
width="48" height="48"
viewBox="0 0 192 192"
style=" fill:#000000;"><g fill="none" fill-rule="nonzero" stroke="none" stroke-width="1" stroke-linecap="butt" stroke-linejoin="miter" stroke-miterlimit="10" stroke-dasharray="" stroke-dashoffset="0" font-family="none" font-weight="none" font-size="none" text-anchor="none" style="mix-blend-mode: normal"><path d="M0,192v-192h192v192z" fill="none"></path><g fill="#009efd"><g id="surface1"><path d="M184.32,11.52c-4.245,0 -7.68,3.435 -7.68,7.68c0,0.525 0.015,1.065 0.12,1.56c0.015,0.03 -0.015,0.09 0,0.12l-40.2,37.08c-0.69,-0.21 -1.41,-0.36 -2.16,-0.36c-1.35,0 -2.625,0.36 -3.72,0.96l-27,-16.08c0,-0.075 0,-0.165 0,-0.24c0,-4.245 -3.435,-7.68 -7.68,-7.68c-4.245,0 -7.68,3.435 -7.68,7.68c0,0.405 0.06,0.81 0.12,1.2l-28.08,22.32c-0.855,-0.33 -1.785,-0.48 -2.76,-0.48c-4.005,0 -7.32,3.06 -7.68,6.96l-37.8,17.52c-1.26,-0.885 -2.79,-1.44 -4.44,-1.44c-4.245,0 -7.68,3.435 -7.68,7.68c0,4.245 3.435,7.68 7.68,7.68c4.005,0 7.32,-3.06 7.68,-6.96l37.8,-17.52c1.26,0.885 2.79,1.44 4.44,1.44c4.245,0 7.68,-3.435 7.68,-7.68c0,-0.405 -0.06,-0.81 -0.12,-1.2l27.96,-22.44c0.885,0.36 1.86,0.6 2.88,0.6c1.395,0 2.715,-0.42 3.84,-1.08l26.88,16.2c0,0.075 0,0.165 0,0.24c0,4.245 3.435,7.68 7.68,7.68c4.245,0 7.68,-3.435 7.68,-7.68c0,-0.525 -0.015,-1.065 -0.12,-1.56v-0.12l40.2,-37.08c0.69,0.21 1.41,0.36 2.16,0.36c4.245,0 7.68,-3.435 7.68,-7.68c0,-4.245 -3.435,-7.68 -7.68,-7.68zM184.32,111.36c-4.245,0 -7.68,3.435 -7.68,7.68c0,0.525 0.015,1.065 0.12,1.56c0.015,0.03 -0.015,0.09 0,0.12l-40.08,37.08c-0.72,-0.225 -1.485,-0.36 -2.28,-0.36c-0.66,0 -1.305,0.075 -1.92,0.24l-29.04,-29.04c0.165,-0.615 0.24,-1.26 0.24,-1.92c0,-4.245 -3.435,-7.68 -7.68,-7.68c-4.245,0 -7.68,3.435 -7.68,7.68c0,0.405 0.06,0.81 0.12,1.2l-28.08,22.32c-0.855,-0.33 -1.785,-0.48 -2.76,-0.48c-2.4,0 -4.47,1.155 -5.88,2.88l-36.96,-5.76c-1.14,-2.805 -3.855,-4.8 -7.08,-4.8c-4.245,0 -7.68,3.435 -7.68,7.68c0,4.245 3.435,7.68 7.68,7.68c2.4,0 4.47,-1.155 5.88,-2.88l36.96,5.76c1.14,2.805 3.855,4.8 7.08,4.8c4.245,0 7.68,-3.435 7.68,-7.68c0,-0.405 -0.06,-0.81 -0.12,-1.2l27.96,-22.44c0.885,0.36 1.86,0.6 2.88,0.6c0.66,0 1.305,-0.075 1.92,-0.24l29.04,29.04c-0.165,0.615 -0.24,1.26 -0.24,1.92c0,4.245 3.435,7.68 7.68,7.68c4.245,0 7.68,-3.435 7.68,-7.68c0,-0.525 -0.015,-1.065 -0.12,-1.56c-0.015,-0.03 0.015,-0.09 0,-0.12l40.2,-37.08c0.69,0.21 1.41,0.36 2.16,0.36c4.245,0 7.68,-3.435 7.68,-7.68c0,-4.245 -3.435,-7.68 -7.68,-7.68z"></path></g></g></g></svg>