<?xml version="1.0" standalone="no"?>
<!DOCTYPE svg PUBLIC "-//W3C//DTD SVG 20010904//EN"
        "http://www.w3.org/TR/2001/REC-SVG-20010904/DTD/svg10.dtd">
<svg version="1.0" xmlns="http://www.w3.org/2000/svg"
     width="100.000000pt" height="85.000000pt" viewBox="0 0 100.000000 85.000000"
     preserveAspectRatio="xMidYMid meet">

    <g transform="translate(0.000000,85.000000) scale(0.100000,-0.100000)"
       fill="#009efd" stroke="none">
        <path d="M112 788 c-9 -9 -12 -86 -12 -285 0 -264 1 -273 20 -283 12 -6 67
-11 128 -10 59 1 113 1 120 1 28 -2 8 -20 -51 -45 -68 -29 -127 -75 -127 -100
0 -14 37 -16 315 -16 278 0 315 2 315 16 0 25 -59 71 -127 100 -59 25 -79 43
-50 45 6 0 60 0 119 -1 61 -1 116 4 128 10 19 10 20 19 20 283 0 199 -3 276
-12 285 -17 17 -769 17 -786 0z m766 -230 l2 -208 -113 0 c-63 0 -116 3 -120
6 -3 4 1 17 10 31 10 15 17 53 19 105 5 105 -16 157 -74 187 -23 11 -43 25
-47 31 -9 15 -71 12 -113 -5 -47 -20 -80 -51 -97 -93 -19 -45 -14 -192 8 -225
9 -14 13 -27 10 -31 -4 -3 -57 -6 -120 -6 l-113 0 0 203 c0 112 3 207 7 210 4
4 171 6 372 5 l366 -3 3 -207z m-334 117 c3 -8 14 -15 24 -15 49 0 93 -84 78
-148 -9 -35 -9 -43 -1 -68 4 -13 1 -27 -8 -35 -27 -27 -57 -111 -57 -159 0
-56 8 -64 108 -114 40 -20 70 -41 67 -46 -8 -13 -492 -13 -500 0 -3 5 26 25
64 45 39 19 79 45 90 57 31 32 27 89 -11 167 -26 55 -32 80 -34 148 -3 70 0
86 19 114 39 57 146 93 161 54z m-154 -369 c6 -8 10 -25 8 -38 -3 -23 -5 -23
-133 -23 l-130 0 -3 38 -3 37 124 0 c96 0 127 -3 137 -14z m488 -23 l-3 -38
-130 0 c-128 0 -130 0 -133 23 -7 50 -2 52 138 52 l131 0 -3 -37z"/>
        <path d="M797 293 c-12 -11 -8 -23 8 -23 8 0 15 7 15 15 0 16 -12 20 -23 8z"/>
    </g>
</svg>
