<svg xmlns="http://www.w3.org/2000/svg" width="60" viewBox="0 0 512 512" enable-background="new 0 0 512 512">
    <path d="M440.673 137.805c-13.234 0-24.001 10.767-24.001 24.001s10.767 24.001 24.001 24.001c13.235 0 24.001-10.766 24.001-24.001 0-13.234-10.767-24.001-24.001-24.001zm0 32.001c-4.412 0-8-3.588-8-8s3.589-8 8-8c4.412 0 8 3.589 8 8 0 4.412-3.589 8-8 8zM454.028 90.543h-67.256c-10.792 0-19.571-8.78-19.571-19.571 0-19.614-15.958-35.572-35.572-35.572h-151.257c-19.615 0-35.572 15.958-35.572 35.572 0 10.792-8.78 19.571-19.571 19.571h-67.257c-31.966 0-57.972 26.006-57.972 57.972v238.104c0 4.418 3.582 8 8 8s8-3.582 8-8v-238.104c0-23.143 18.829-41.971 41.971-41.971h67.256c19.614 0 35.572-15.958 35.572-35.572 0-10.792 8.78-19.571 19.571-19.571h151.256c10.792 0 19.571 8.78 19.571 19.571 0 19.615 15.958 35.572 35.572 35.572h67.256c23.143 0 41.971 18.828 41.971 41.971v270.112c0 23.143-18.829 41.972-41.971 41.972h-396.053c-23.143 0-41.971-18.829-41.971-41.972 0-4.418-3.582-8-8-8s-8 3.582-8 8c-.001 31.967 26.005 57.973 57.971 57.973h396.056c31.966 0 57.972-26.006 57.972-57.973v-270.112c0-31.966-26.006-57.972-57.972-57.972zM354.549 232.094c-2.026-3.926-6.85-5.468-10.778-3.441-3.927 2.026-5.467 6.851-3.441 10.778 6.965 13.501 10.497 28.107 10.497 43.413 0 52.288-42.54 94.828-94.828 94.828-52.288 0-94.828-42.54-94.828-94.828 0-52.288 42.541-94.828 94.829-94.828 23.478 0 46.005 8.644 63.434 24.34 3.282 2.956 8.341 2.692 11.299-.591 2.957-3.283 2.692-8.342-.591-11.299-20.372-18.346-46.703-28.451-74.142-28.451-61.111 0-110.828 49.717-110.828 110.828s49.717 110.829 110.828 110.829 110.828-49.718 110.828-110.828c0-17.632-4.246-35.181-12.279-50.75zM95.634 59.832h-32.888c-4.418 0-8 3.582-8 8s3.582 8 8 8h32.888c4.418 0 8-3.582 8-8s-3.582-8-8-8z"/>
</svg>