<svg

    xmlns="http://www.w3.org/2000/svg"
    xmlns:xlink="http://www.w3.org/1999/xlink"
    width="64px" height="46px">

    <path fill="#8c8c8c"  fill-rule="evenodd" d="M60.000,45.189 L4.448,45.189 C2.239,45.189 0.448,43.398 0.448,41.189 L0.448,37.946 C0.448,35.737 2.239,33.946 4.448,33.946 L60.000,33.946 C62.209,33.946 64.000,35.737 64.000,37.946 L64.000,41.189 C64.000,43.398 62.209,45.189 60.000,45.189 ZM60.000,28.324 L4.448,28.324 C2.239,28.324 0.448,26.533 0.448,24.324 L0.448,21.081 C0.448,18.872 2.239,17.081 4.448,17.081 L60.000,17.081 C62.209,17.081 64.000,18.872 64.000,21.081 L64.000,24.324 C64.000,26.533 62.209,28.324 60.000,28.324 ZM60.000,11.459 L4.448,11.459 C2.239,11.459 0.448,9.668 0.448,7.459 L0.448,4.216 C0.448,2.007 2.239,0.216 4.448,0.216 L60.000,0.216 C62.209,0.216 64.000,2.007 64.000,4.216 L64.000,7.459 C64.000,9.668 62.209,11.459 60.000,11.459 Z"/>

</svg>
