<svg xmlns="http://www.w3.org/2000/svg" width="14" height="14" viewBox="0 0 14 14" x="100" y="0">
    <path d="M12.834 1.313h-1.896v-0.875c0-0.242-0.196-0.438-0.438-0.438s-0.438 0.196-0.438 0.438v0.875h-2.625v-0.875c0-0.242-0.196-0.438-0.438-0.438s-0.438 0.196-0.438 0.438v0.875h-2.625v-0.875c0-0.242-0.196-0.438-0.438-0.438s-0.438 0.196-0.438 0.438v0.875h-1.896c-0.644 0-1.167 0.522-1.167 1.166v10.354c0 0.644 0.522 1.167 1.167 1.167h11.667c0.644 0 1.166-0.522 1.166-1.167v-10.354c0-0.644-0.522-1.166-1.166-1.166zM13.125 12.833c0 0.161-0.131 0.292-0.291 0.292h-11.667c-0.161 0-0.292-0.131-0.292-0.292v-10.354c0-0.161 0.131-0.291 0.292-0.291h1.896v0.875c0 0.242 0.196 0.438 0.438 0.438s0.438-0.196 0.438-0.438v-0.875h2.625v0.875c0 0.242 0.196 0.438 0.438 0.438s0.438-0.196 0.438-0.438v-0.875h2.625v0.875c0 0.242 0.196 0.438 0.438 0.438s0.438-0.196 0.438-0.438v-0.875h1.896c0.161 0 0.291 0.131 0.291 0.291v10.354z"/>
    <path d="M3.063 5.25h1.75v1.313h-1.75v-1.313z"/>
    <path d="M3.063 7.438h1.75v1.313h-1.75v-1.313z"/>
    <path d="M3.063 9.625h1.75v1.313h-1.75v-1.313z"/>
    <path d="M6.125 9.625h1.75v1.313h-1.75v-1.313z"/>
    <path d="M6.125 7.438h1.75v1.313h-1.75v-1.313z"/>
    <path d="M6.125 5.25h1.75v1.313h-1.75v-1.313z"/>
    <path d="M9.188 9.625h1.75v1.313h-1.75v-1.313z"/>
    <path d="M9.188 7.438h1.75v1.313h-1.75v-1.313z"/>
    <path d="M9.188 5.25h1.75v1.313h-1.75v-1.313z"/>
</svg>