<svg xmlns="http://www.w3.org/2000/svg" width="10" height="7" viewBox="0 0 10 7" x="250" y="0">
    <path d="M8.313 0.213l-3.646 3.785c-0.184 0.198-0.492 0.21-0.69 0.027-0.009-0.009-0.018-0.018-0.026-0.027l-2.241-2.326c-0.184-0.197-0.492-0.209-0.689-0.025-0.005 0.004-0.010 0.009-0.015 0.014l-0.739 0.718c-0.209 0.207-0.215 0.543-0.013 0.757l3.327 3.454c0.374 0.395 0.998 0.411 1.393 0.037 0.014-0.013 0.025-0.025 0.038-0.037l4.702-4.872c0.194-0.203 0.199-0.521 0.013-0.731l-0.684-0.761c-0.181-0.204-0.492-0.224-0.696-0.043-0.011 0.010-0.021 0.020-0.031 0.030zM8.315 0.212l-3.646 3.784c-0.184 0.198-0.492 0.211-0.69 0.028-0.009-0.009-0.018-0.019-0.026-0.028l-2.241-2.325c-0.184-0.197-0.492-0.209-0.69-0.025-0.005 0.004-0.010 0.009-0.015 0.014l-0.738 0.718c-0.209 0.207-0.215 0.543-0.013 0.757l3.327 3.453c0.374 0.395 0.998 0.412 1.393 0.038 0.013-0.013 0.026-0.025 0.038-0.038l4.702-4.871c0.194-0.203 0.199-0.521 0.013-0.731l-0.684-0.761c-0.181-0.204-0.492-0.224-0.696-0.043-0.011 0.010-0.021 0.020-0.030 0.030z"/>
</svg>