<svg xmlns="http://www.w3.org/2000/svg" width="12" height="12" viewBox="0 0 12 12" x="1350" y="0">
    <path d="M10.597 0.258l-4.231 4.233c-0.080 0.079-0.19 0.128-0.311 0.128s-0.231-0.049-0.311-0.128l0 0-4.391-4.389c-0.079-0.080-0.189-0.13-0.311-0.13s-0.232 0.050-0.311 0.13l-0 0-0.632 0.627c-0.079 0.081-0.128 0.191-0.128 0.313s0.049 0.233 0.128 0.313l4.391 4.389c0.079 0.080 0.128 0.19 0.128 0.311s-0.049 0.231-0.128 0.311l0-0-4.231 4.231c-0.079 0.082-0.128 0.193-0.128 0.316s0.049 0.234 0.128 0.316l0.621 0.621c0.080 0.083 0.192 0.135 0.316 0.135s0.236-0.052 0.316-0.135l0-0 4.231-4.231c0.080-0.079 0.19-0.128 0.311-0.128s0.231 0.049 0.311 0.128l-0-0 4.081 4.081c0.080 0.079 0.19 0.128 0.311 0.128s0.231-0.049 0.311-0.128l-0 0 0.632-0.632c0.079-0.080 0.128-0.19 0.128-0.311s-0.049-0.231-0.128-0.311l0 0-4.081-4.081c-0.079-0.080-0.128-0.19-0.128-0.311s0.049-0.231 0.128-0.311l-0 0 4.231-4.233c0.083-0.079 0.135-0.19 0.135-0.313s-0.052-0.235-0.135-0.313l-0-0-0.622-0.627c-0.081-0.080-0.193-0.13-0.316-0.13s-0.235 0.050-0.316 0.13l0-0z"/>
</svg>