<svg xmlns="http://www.w3.org/2000/svg" viewBox="0 0 1000 1000" enable-background="new 0 0 1000 1000">
    <path d="M975.6 601.9l-109.9-80.3c.5-7.5.7-14.6.7-21.6 0-7-.2-14.2-.7-21.6l109.9-80.3c11.8-8.7 17-23.8 13-37.9-10.8-37.8-25.6-73.7-44.1-107-7.1-12.7-21.5-19.7-35.9-17.5l-134.9 21c-9.5-10.7-19.7-20.8-30.4-30.4l21.1-134.9c2.2-14.5-4.8-28.8-17.6-36-33.3-18.5-69.2-33.3-106.9-44.1-14.2-4-29.3 1.2-37.9 13l-80.3 109.9c-15-1-28.4-1-43.3 0l-80.3-109.8c-8.7-11.9-23.8-17-37.9-13-37.7 10.8-73.7 25.6-106.9 44.1-12.8 7.1-19.8 21.5-17.6 35.9l21 134.8c-10.7 9.5-20.9 19.7-30.4 30.4l-134.8-21c-14.4-2.2-28.8 4.8-36 17.6-18.5 33.3-33.3 69.2-44.1 107-4 14.1 1.2 29.2 13 37.9l109.9 80.3c-.5 7.5-.7 14.6-.7 21.6 0 7 .2 14.2.7 21.6l-109.9 80.3c-11.9 8.6-17 23.8-13 37.9 10.8 37.8 25.6 73.8 44.1 107 7.2 12.8 21.7 19.7 36 17.6l134.8-21c9.5 10.7 19.7 20.9 30.4 30.4l-21 134.8c-2.3 14.5 4.7 28.8 17.5 36 33.1 18.4 69.1 33.3 106.9 44.1 14.1 4.1 29.3-1.2 37.9-13l80.3-109.9c14.9.9 28.3.9 43.3 0l80.3 109.9c6.7 9.2 17.3 14.3 28.3 14.3 3.2 0 6.4-.4 9.6-1.4 37.9-10.8 73.9-25.7 106.9-44.1 12.8-7.1 19.8-21.5 17.6-36l-21-134.8c10.7-9.5 20.9-19.7 30.4-30.4l134.8 21c14.7 2.2 28.8-4.7 36-17.6 18.5-33.2 33.4-69.3 44.1-107 4.1-14.1-1.1-29.2-13-37.8zm-475.6 3.1c-57.9 0-105-47.1-105-105s47.1-105 105-105 105 47.1 105 105-47.1 105-105 105z"/>
</svg>