<svg xmlns="http://www.w3.org/2000/svg" width="14" height="10" viewBox="0 0 67 43" x="50" y="0">
    <path d="M65.774 18.939c-3.465-5.667-8.124-10.22-13.976-13.66s-12.032-5.16-18.541-5.16-12.688 1.719-18.541 5.16c-5.853 3.44-10.511 7.993-13.975 13.66-0.495 0.866-0.742 1.72-0.742 2.561s0.247 1.695 0.742 2.561c3.464 5.667 8.123 10.221 13.975 13.659 5.852 3.44 12.032 5.159 18.541 5.159s12.688-1.713 18.541-5.14c5.852-3.427 10.512-7.987 13.976-13.678 0.495-0.866 0.742-1.719 0.742-2.561s-0.247-1.695-0.742-2.561zM25.295 8.787c2.215-2.215 4.869-3.322 7.962-3.322 0.495 0 0.916 0.174 1.262 0.52s0.52 0.767 0.52 1.262c0 0.495-0.174 0.916-0.519 1.262-0.346 0.347-0.767 0.52-1.262 0.52-2.128 0-3.947 0.755-5.457 2.264-1.51 1.51-2.264 3.329-2.264 5.457 0 0.495-0.174 0.916-0.52 1.262s-0.767 0.52-1.262 0.52c-0.495 0-0.916-0.173-1.262-0.52s-0.52-0.767-0.52-1.262c0-3.093 1.108-5.747 3.322-7.962zM49.386 33.621c-4.962 3.006-10.338 4.51-16.128 4.51s-11.166-1.503-16.128-4.51-9.088-7.047-12.379-12.12c3.761-5.84 8.475-10.208 14.142-13.103-1.509 2.573-2.264 5.357-2.264 8.351 0 4.578 1.627 8.493 4.881 11.748s7.17 4.881 11.748 4.881c4.578 0 8.493-1.627 11.748-4.881s4.881-7.17 4.881-11.748c0-2.994-0.755-5.779-2.265-8.351 5.666 2.895 10.381 7.263 14.142 13.103-3.291 5.073-7.416 9.113-12.378 12.12z"/>
</svg>