<svg xmlns="http://www.w3.org/2000/svg" width="38" height="38" viewBox="-6 -6 38 37.999999" id="dropbox-file" y="151"><g transform="translate(-226.5 -196.69)"><g transform="matrix(.74088 0 0 .74088 59.44 53.671)" fill="#3f4257"><path d="M236.284 213.59l2.48-2.467 2.81 2.795 6.038-5.773 2.477 2.489-8.516 8.222-5.289-5.265z" fill-rule="evenodd"/><path d="M247.285 198.48a.7.7 0 0 0-.201.03.7.7 0 0 0-.006.002c-2.625.076-4.951 1.56-6.201 3.842-.814-.41-1.692-.681-2.61-.682a5.888 5.888 0 0 0-5.877 5.877c.001.867.253 1.689.616 2.463-.052-.002-.101-.021-.153-.022a.7.7 0 0 0-.004 0 6.36 6.36 0 0 0-6.35 6.35 6.36 6.36 0 0 0 6.35 6.35.7.7 0 0 0 .008 0c.08-.001.155-.005.229-.009.013.006-.06.008.074.008h19.108c.191 0 .207-.002.013-.002a.7.7 0 0 0 .01 0c4.026-.05 7.276-3.342 7.278-7.369-.003-3.345-2.303-6.157-5.473-7.021.285-.792.56-1.596.562-2.442a.7.7 0 0 0 0-.002c0-4.064-3.308-7.373-7.373-7.373zm0 1.399a5.964 5.964 0 0 1 5.975 5.975 5.972 5.972 0 0 1-.598 2.583.7.7 0 0 0 .514.997 5.965 5.965 0 0 1 4.994 5.884 5.964 5.964 0 0 1-5.899 5.971h.01c-.203 0-.195.002-.013.002H233.16c.206 0 .233.018.04-.006a.7.7 0 0 0-.126-.004c-.08.005-.154.01-.224.01h-.002a4.941 4.941 0 0 1-4.95-4.951 4.941 4.941 0 0 1 4.948-4.951c.434.002.866.063 1.285.177a.7.7 0 0 0 .72-1.128 4.476 4.476 0 0 1-1.062-2.89 4.47 4.47 0 0 1 4.479-4.478c.885.001 1.75.266 2.486.758a.7.7 0 0 0 1.033-.308 5.97 5.97 0 0 1 5.498-3.641z" style="line-height:normal;text-indent:0;text-align:start;text-decoration-line:none;text-decoration-style:solid;text-decoration-color:#000;text-transform:none;block-progression:tb;isolation:auto;mix-blend-mode:normal" color="#000" font-weight="400" font-family="sans-serif" white-space="normal" overflow="visible"/></g></g></svg>