<?xml version="1.0" encoding="UTF-8" standalone="no"?>
<!DOCTYPE svg PUBLIC "-//W3C//DTD SVG 1.1//EN" "http://www.w3.org/Graphics/SVG/1.1/DTD/svg11.dtd">
<svg version="1.1" xmlns="http://www.w3.org/2000/svg" xmlns:xlink="http://www.w3.org/1999/xlink" preserveAspectRatio="xMidYMid meet" viewBox="0 0 640 640" width="640" height="640"><defs><path d="" id="c5EicparsT"></path><path d="M321.44 635.31C148.28 635.31 7.68 494.73 7.68 321.55C7.68 148.39 148.28 7.79 321.44 7.79C494.62 7.79 635.2 148.39 635.2 321.55C635.2 494.73 494.62 635.31 321.44 635.31Z" id="b3pu3ntw0x"></path><path d="M320.44 635.31C146.73 635.31 5.68 494.28 5.68 320.55C5.68 146.84 146.73 5.79 320.44 5.79C494.17 5.79 635.2 146.84 635.2 320.55C635.2 494.28 494.17 635.31 320.44 635.31Z" id="d2Q3FGegtA"></path><path d="M356.38 111.57L356.38 181.99L283.62 181.99L283.62 111.57L356.38 111.57Z" id="bKeSjF3qP"></path><path d="M357.82 227.72L357.82 573.84L285.06 573.84L285.06 227.72L357.82 227.72Z" id="b1scg3Rbmo"></path></defs><g><g><g><g><use xlink:href="#c5EicparsT" opacity="1" fill-opacity="0" stroke="#000000" stroke-width="0" stroke-opacity="1"></use></g></g><g><use xlink:href="#b3pu3ntw0x" opacity="1" fill="#ffffff" fill-opacity="1"></use><g><use xlink:href="#b3pu3ntw0x" opacity="1" fill-opacity="0" stroke="#000000" stroke-width="1" stroke-opacity="0"></use></g></g><g><use xlink:href="#d2Q3FGegtA" opacity="1" fill="#000000" fill-opacity="0"></use><g><use xlink:href="#d2Q3FGegtA" opacity="1" fill-opacity="0" stroke="#00ccff" stroke-width="10" stroke-opacity="1"></use></g></g><g><use xlink:href="#bKeSjF3qP" opacity="1" fill="#00ccff" fill-opacity="1"></use><g><use xlink:href="#bKeSjF3qP" opacity="1" fill-opacity="0" stroke="#000000" stroke-width="1" stroke-opacity="0"></use></g></g><g><use xlink:href="#b1scg3Rbmo" opacity="1" fill="#00ccff" fill-opacity="1"></use><g><use xlink:href="#b1scg3Rbmo" opacity="1" fill-opacity="0" stroke="#000000" stroke-width="1" stroke-opacity="0"></use></g></g></g></g></svg>