<svg viewBox="0 0 60 60" width="60" height="60">
    <path d="M55.977 14.941c-2.683-4.596-6.322-8.235-10.918-10.918s-9.615-4.023-15.059-4.023c-5.443 0-10.463 1.341-15.059 4.023s-8.235 6.321-10.918 10.918c-2.683 4.597-4.024 9.617-4.024 15.059s1.341 10.462 4.023 15.059c2.683 4.596 6.322 8.235 10.918 10.918s9.616 4.023 15.059 4.023 10.463-1.341 15.059-4.023c4.596-2.682 8.235-6.322 10.918-10.918s4.023-9.616 4.023-15.059c0-5.443-1.341-10.463-4.022-15.059zM25.001 7.5c0-0.365 0.117-0.664 0.352-0.898s0.534-0.352 0.898-0.352h7.5c0.364 0 0.664 0.118 0.898 0.352s0.352 0.533 0.352 0.898v6.25c0 0.365-0.118 0.664-0.352 0.898s-0.533 0.351-0.898 0.351h-7.5c-0.365 0-0.664-0.117-0.898-0.351s-0.352-0.534-0.352-0.898v-6.25zM40 48.75c0 0.364-0.118 0.664-0.352 0.898s-0.533 0.352-0.898 0.352h-17.5c-0.365 0-0.664-0.117-0.898-0.352s-0.351-0.533-0.351-0.898v-6.25c0-0.365 0.117-0.664 0.351-0.898s0.534-0.352 0.898-0.352h3.75v-12.5h-3.75c-0.365 0-0.664-0.117-0.898-0.351s-0.351-0.534-0.351-0.898v-6.25c0-0.365 0.117-0.664 0.351-0.898s0.534-0.351 0.898-0.351h12.501c0.364 0 0.664 0.117 0.898 0.351s0.352 0.534 0.352 0.898v20h3.749c0.365 0 0.665 0.117 0.899 0.351s0.351 0.534 0.351 0.898v6.25h0.001z"></path>
</svg>