<svg xmlns="http://www.w3.org/2000/svg" width="20" height="20" viewBox="0 0 20 20" x="750" y="0">
    <path d="M9.222 6.222v0c0.111 0 0.111 0 0 0 0.111-0.444 0.222-0.667 0.222-1v-0.222c0.111-0.556 0.111-1 0-1.111 0 0 0 0 0-0.111l-0.111-0.111c0 0 0 0.111-0.111 0.111-0.222 0.667-0.222 1.444 0 2.444v0zM5.889 13.889c-0.222 0.111-0.444 0.222-0.556 0.333-0.778 0.667-1.333 1.444-1.444 1.778v0 0 0c0.667-0.111 1.333-0.778 2-2.111 0.111 0 0.111 0 0 0 0.111 0 0 0 0 0zM16.111 12.222c-0.111-0.111-0.556-0.444-2.111-0.444-0.111 0-0.111 0-0.222 0v0c0 0 0 0 0 0.111 0.778 0.333 1.556 0.556 2.111 0.556 0.111 0 0.111 0 0.222 0v0h0.111c0 0 0 0 0-0.111v0c0 0-0.111 0-0.111-0.111zM17.778 0h-15.556c-1.222 0-2.222 1-2.222 2.222v15.556c0 1.222 1 2.222 2.222 2.222h15.556c1.222 0 2.222-1 2.222-2.222v-15.556c0-1.222-1-2.222-2.222-2.222zM16.556 13.111c-0.222 0.111-0.556 0.222-1 0.222-0.889 0-2.222-0.222-3.333-0.778-1.889 0.222-3.333 0.444-4.444 0.889-0.111 0-0.111 0-0.222 0.111-1.333 2.333-2.444 3.444-3.333 3.444-0.222 0-0.333 0-0.444-0.111l-0.556-0.333v-0.111c-0.111-0.222-0.111-0.333-0.111-0.556 0.111-0.556 0.778-1.556 2.111-2.333 0.222-0.111 0.556-0.333 1-0.556 0.333-0.556 0.667-1.222 1.111-2 0.556-1.111 0.889-2.222 1.222-3.222v0c-0.444-1.333-0.667-2.111-0.222-3.667 0.111-0.444 0.444-0.889 0.889-0.889h0.222c0.222 0 0.444 0.111 0.667 0.222 0.778 0.778 0.444 2.556 0 4 0 0.111 0 0.111 0 0.111 0.444 1.222 1.111 2.222 1.778 2.889 0.333 0.222 0.556 0.444 1 0.667 0.556 0 1-0.111 1.444-0.111 1.333 0 2.222 0.222 2.556 0.778 0.111 0.222 0.111 0.444 0.111 0.667-0.111 0.111-0.222 0.444-0.444 0.667zM9.333 8.778c-0.222 0.778-0.667 1.667-1.111 2.667-0.222 0.444-0.444 0.778-0.667 1.222h0.222c1.444-0.556 2.778-0.889 3.667-1-0.222-0.111-0.333-0.222-0.444-0.333-0.556-0.667-1.222-1.556-1.667-2.556z"/>
</svg>