<svg xmlns="http://www.w3.org/2000/svg" width="18" height="18" viewBox="0 0 18 18" x="550" y="0">
    <path d="M3.921 4.312c-0.045 0.255-0.070 0.548-0.070 0.848 0 2.838 2.3 5.138 5.138 5.138s5.138-2.3 5.138-5.138c0-2.838-2.3-5.138-5.138-5.138-0.311 0-0.616 0.028-0.913 0.081l0.031-0.005c-2.147 0.388-3.813 2.063-4.182 4.183l-0.004 0.031zM0.034 16.712l0.030-0.1c0.679-2.435 1.917-4.527 3.57-6.208l-0.002 0.002c0.094-0.094 0.225-0.153 0.368-0.153 0.149 0 0.284 0.063 0.379 0.163l0 0c1.16 1.215 2.792 1.97 4.6 1.97 0.375 0 0.742-0.032 1.099-0.095l-0.038 0.005c1.409-0.236 2.629-0.912 3.545-1.879l0.003-0.003c0.095-0.099 0.229-0.16 0.377-0.16 0.145 0 0.276 0.059 0.371 0.154l0 0c1.647 1.681 2.884 3.77 3.544 6.102l0.024 0.101 0.030 0.1c0.020 0.075 0.031 0.161 0.031 0.25 0 0.57-0.462 1.033-1.033 1.033-0.005 0-0.010-0-0.016-0l0.001 0h-15.877c-0.006 0-0.012 0-0.019 0-0.564 0-1.022-0.457-1.022-1.022 0-0.093 0.012-0.183 0.036-0.268l-0.002 0.007z"/>
</svg>