<svg
        xmlns="http://www.w3.org/2000/svg"
        xmlns:xlink="http://www.w3.org/1999/xlink"
        width="14px" height="14px">
    <path fill-rule="evenodd"
          d="M13.596,6.398 L8.199,6.398 C7.979,6.398 7.800,6.219 7.800,5.998 L7.799,0.392 C7.800,0.171 7.621,-0.009 7.400,-0.008 L6.600,-0.008 C6.379,-0.008 6.201,0.171 6.201,0.392 L6.201,5.998 C6.201,6.219 6.022,6.398 5.801,6.398 L0.405,6.398 C0.184,6.398 0.005,6.577 0.005,6.798 L0.005,7.599 C0.005,7.820 0.184,8.000 0.405,8.000 L5.801,7.999 C6.022,7.999 6.201,8.179 6.201,8.400 L6.201,13.605 C6.201,13.827 6.380,14.006 6.600,14.006 L7.400,14.006 C7.620,14.006 7.800,13.827 7.799,13.605 L7.799,8.400 C7.800,8.179 7.978,8.000 8.199,8.000 L13.595,8.000 C13.816,8.000 13.995,7.820 13.995,7.599 L13.995,6.798 C13.995,6.577 13.816,6.398 13.596,6.398 "/>
</svg>