<svg xmlns="http://www.w3.org/2000/svg" y="50" height="20" width="20" viewBox="0 0 485.213 485.212">
    <path d="M121.305 30.327h242.604v60.651h30.327v-60.651c0-16.732-13.562-30.327-30.327-30.327h-242.604c-16.731 0-30.327 13.595-30.327 30.327v60.651h30.327v-60.651zM454.89 121.304h-424.562c-16.731 0-30.327 13.591-30.327 30.324v151.629c0 16.764 13.595 30.327 30.327 30.327h60.651v121.302c0 16.764 13.595 30.326 30.327 30.326h242.604c16.765 0 30.327-13.562 30.327-30.326v-121.302h60.653c16.759 0 30.322-13.563 30.322-30.327v-151.629c0-16.733-13.564-30.324-30.322-30.324zm-90.981 333.582h-242.604v-212.28h242.604v212.28zm60.653-242.604c-16.764 0-30.326-13.564-30.326-30.327 0-16.731 13.562-30.327 30.326-30.327 16.765 0 30.327 13.595 30.327 30.327.001 16.762-13.562 30.327-30.327 30.327zM151.629 272.93h121.304v30.327h-121.304zM151.629 333.584h181.958v30.321h-181.958zM151.629 394.237h181.958v30.322h-181.958z"/>
</svg>