<svg height="512pt" viewBox="0 0 512 512" width="512pt" xmlns="http://www.w3.org/2000/svg"><path d="M436.332 75.441c-49.531-49.523-114.969-75.441-180.406-75.441-65.434 0-130.875 25.918-180.406 75.441-100.691 100.695-100.691 260.121 0 360.813 49.832 49.828 114.973 75.746 180.406 75.746 65.438 0 130.578-25.918 180.406-75.746 100.695-100.691 100.695-260.117 0-360.813zm-180.406 375.824c-50.125 0-99.961-19.512-138.078-57.336-67.539-67.836-76.246-173.199-21.016-251.246l159.094 159.094 113.168 113.164c-34.219 24.316-73.84 36.324-113.168 36.324zm159.094-82.25l-159.094-159.094-113.168-113.164c34.223-24.316 73.844-36.324 113.168-36.324 50.129 0 99.961 19.512 138.082 57.336 67.539 67.84 76.246 173.199 21.012 251.246zm0 0" fill="#ff6c6c"/><path d="M394.008 117.77c67.539 67.836 76.246 173.199 21.012 251.246l-159.094-159.094v91.855l113.168 113.164c-34.219 24.316-73.84 36.324-113.168 36.324v60.734c65.438 0 130.578-25.918 180.406-75.746 100.695-100.691 100.695-260.117 0-360.813-49.531-49.523-114.969-75.441-180.406-75.441v60.434c50.129 0 99.961 19.512 138.082 57.336zm0 0" fill="#ff4949"/></svg>