<svg xmlns="http://www.w3.org/2000/svg" height="13" viewBox="0 0 268.476 268.476"
     enable-background="new 0 0 268.476 268.476">
    <path d="M63.119 250.254s3.999 18.222 24.583 18.222h93.072c20.583 0 24.582-18.222 24.582-18.222l18.374-178.66h-178.984l18.373 178.66zm106.916-151.812c0-4.943 4.006-8.949 8.949-8.949s8.95 4.006 8.95 8.949l-8.95 134.238c0 4.943-4.007 8.949-8.949 8.949s-8.949-4.007-8.949-8.949l8.949-134.238zm-44.746 0c0-4.943 4.007-8.949 8.949-8.949 4.943 0 8.949 4.006 8.949 8.949v134.238c0 4.943-4.006 8.949-8.949 8.949s-8.949-4.007-8.949-8.949v-134.238zm-35.797-8.95c4.943 0 8.949 4.006 8.949 8.949l8.95 134.238c0 4.943-4.007 8.949-8.95 8.949-4.942 0-8.949-4.007-8.949-8.949l-8.949-134.237c0-4.943 4.007-8.95 8.949-8.95zm128.868-53.681h-39.376v-17.912c0-13.577-4.391-17.899-17.898-17.899h-53.696c-12.389 0-17.898 6.001-17.898 17.899v17.913h-39.376c-7.914 0-14.319 6.007-14.319 13.43 0 7.424 6.405 13.431 14.319 13.431h168.244c7.914 0 14.319-6.007 14.319-13.431 0-7.423-6.405-13.431-14.319-13.431zm-57.274 0h-53.695l.001-17.913h53.695v17.913z"
          fill-rule="evenodd" clip-rule="evenodd"/>
</svg>