<svg width="71" height="71" viewBox="0 0 71 71" fill="orange" xmlns="http://www.w3.org/2000/svg">
<path d="M51.7855 19.2614C50.5982 18.0741 50.0046 16.6526 50.0046 14.9967C50.0046 13.3408 50.5982 11.9349 51.7855 10.7789C52.9415 9.59164 54.3474 8.99802 56.0033 8.99802C57.6592 8.99802 59.0807 9.59164 60.268 10.7789C61.424 11.9349 62.002 13.3408 62.002 14.9967C62.002 16.6526 61.424 18.0741 60.268 19.2614C59.0807 20.4174 57.6592 20.9954 56.0033 20.9954C54.3474 20.9954 52.9415 20.4174 51.7855 19.2614ZM0 41.9908C0 43.6466 0.577997 45.0526 1.73399 46.2086L24.7446 69.266C25.963 70.422 27.3846 71 29.0092 71C30.6651 71 32.0711 70.422 33.2271 69.266L66.7353 35.7109C67.9225 34.5549 68.938 32.9771 69.7815 30.9776C70.5938 28.978 71 27.1503 71 25.4944V5.99868C71 4.37404 70.4064 2.9681 69.2191 1.78086C68.0319 0.59362 66.626 0 65.0013 0H45.5056C43.8497 0 42.022 0.421783 40.0224 1.26535C38.0229 2.07767 36.4295 3.07745 35.2422 4.26469L1.73399 37.7261C0.577997 38.9446 0 40.3661 0 41.9908Z"/>
</svg>
