<svg width="72" height="62" viewBox="0 0 72 62" fill="#009fff" xmlns="http://www.w3.org/2000/svg">
<path d="M52.4375 1.07812C51.7188 0.359375 50.6406 1.28565e-08 49.5625 0C48.4844 -1.28565e-08 47.4062 0.539062 46.5078 1.25781C45.7891 2.15625 45.25 3.23438 45.25 4.3125V13.8125C37.1667 13.8125 29.0833 13.8125 21 13.8125C9.40202 13.8125 4.12777e-08 23.215 3.84938e-08 34.813C3.52687e-08 48.249 0 61.3438 0 61.3438L14.375 61.2812V36.1875C14.375 31.7692 17.9567 28.1875 22.375 28.1875H45.25V38.6875C45.25 39.9453 45.7891 41.0234 46.5078 41.7422C47.4062 42.6406 48.4844 43 49.5625 43C50.6406 43 51.7188 42.6406 52.4375 41.9219L70.5625 24.2344C71.6406 23.3359 72 22.2578 72 21C72 19.9219 71.6406 18.8438 70.5625 17.7656L52.4375 1.07812Z" />
</svg>
