<?xml version="1.0" standalone="no"?>
<!DOCTYPE svg PUBLIC "-//W3C//DTD SVG 20010904//EN"
        "http://www.w3.org/TR/2001/REC-SVG-20010904/DTD/svg10.dtd">
<svg version="1.0" xmlns="http://www.w3.org/2000/svg"
     width="153.000000pt" height="148.000000pt" viewBox="0 0 153.000000 148.000000"
     preserveAspectRatio="xMidYMid meet">

    <g transform="translate(0.000000,148.000000) scale(0.100000,-0.100000)"
       fill="#ff5757" stroke="none">
        <path d="M625 1465 c-390 -71 -668 -434 -617 -808 23 -173 88 -305 211 -428
211 -211 517 -281 801 -184 213 73 402 259 470 464 85 256 24 527 -162 726
-176 189 -447 277 -703 230z m207 -405 c166 -51 250 -202 189 -337 -56 -122
-190 -181 -381 -165 -19 2 -66 -8 -105 -21 -38 -14 -85 -28 -102 -32 l-33 -7
20 47 c33 77 34 113 5 169 -34 67 -34 134 1 204 32 65 89 110 173 139 82 28
150 29 233 3z m276 -422 c11 -40 3 -90 -19 -126 -12 -19 -12 -28 3 -69 9 -26
15 -49 13 -52 -3 -2 -31 4 -62 14 -33 10 -83 17 -116 16 -73 -2 -133 14 -177
47 l-35 27 65 7 c94 11 199 65 250 130 22 27 40 55 40 61 0 22 28 -19 38 -55z"/>
    </g>
</svg>
