<?xml version="1.0"?>
<svg xmlns="http://www.w3.org/2000/svg" xmlns:xlink="http://www.w3.org/1999/xlink" version="1.1" viewBox="0 0 224 224"
     width="480px" height="480px">
    <g fill="none" fill-rule="nonzero" stroke="none" stroke-width="1" stroke-linecap="butt" stroke-linejoin="miter"
       stroke-miterlimit="10" stroke-dasharray="" stroke-dashoffset="0" font-family="none" font-weight="none"
       font-size="none" text-anchor="none" style="mix-blend-mode: normal">
        <path d="M0,224v-224h224v224z" fill="none"/>
        <g id="Layer_1">
            <circle cx="24" cy="24" transform="scale(4.66667,4.66667)" r="20" fill="#23a7dc"/>
            <path d="M159.488,69.118l-17.81267,90.96267c0,0 -2.492,6.30933 -9.34267,3.28067l-41.10867,-31.92l-14.94733,-7.31733l-25.16267,-8.57733c0,0 -3.864,-1.386 -4.23733,-4.41467c-0.37333,-3.02867 4.35867,-4.66667 4.35867,-4.66667l100.03467,-39.74133c-0.00467,-0.00467 8.218,-3.66333 8.218,2.394z"
                  fill="#ffffff"/>
            <path d="M88.06,159.054c0,0 -1.19933,-0.112 -2.69733,-4.90933c-1.49333,-4.79267 -9.09533,-30.02533 -9.09533,-30.02533l60.41933,-38.85933c0,0 3.486,-2.14667 3.36467,0c0,0 0.62067,0.378 -1.246,2.14667c-1.86667,1.76867 -47.46467,43.274 -47.46467,43.274"
                  fill="#d2e5f1"/>
            <path d="M106.98333,143.67733l-16.25867,15.01267c0,0 -1.26933,0.97533 -2.66,0.364l3.11267,-27.888"
                  fill="#b5cfe4"/>
        </g>
    </g>
</svg>
