<?xml version="1.0" standalone="no"?>
<!DOCTYPE svg PUBLIC "-//W3C//DTD SVG 20010904//EN"
        "http://www.w3.org/TR/2001/REC-SVG-20010904/DTD/svg10.dtd">
<svg version="1.0" xmlns="http://www.w3.org/2000/svg"
     width="153.000000pt" height="148.000000pt" viewBox="0 0 153.000000 148.000000"
     preserveAspectRatio="xMidYMid meet">

    <g transform="translate(0.000000,148.000000) scale(0.100000,-0.100000)"
       fill="#4c75a3" stroke="none">
        <path d="M606 1464 c-376 -84 -622 -394 -603 -759 17 -323 230 -584 552 -677
114 -33 306 -33 420 0 261 75 446 255 527 512 33 108 33 292 0 400 -80 255
-266 437 -522 510 -100 29 -278 36 -374 14z m229 -474 c12 -10 15 -35 15 -115
0 -111 5 -135 25 -135 23 0 82 79 122 161 l38 79 107 0 c102 0 108 -1 108 -20
0 -30 -25 -75 -84 -155 -88 -117 -88 -103 -1 -195 70 -76 94 -117 81 -138 -3
-5 -44 -12 -91 -16 -105 -8 -133 3 -196 73 -27 29 -55 51 -67 51 -21 0 -39
-34 -44 -85 -3 -30 -3 -30 -74 -33 -136 -5 -235 56 -338 211 -72 110 -160 287
-149 298 6 6 50 9 99 7 l89 -3 40 -76 c88 -168 130 -199 148 -110 14 70 0 148
-29 168 -27 18 -19 38 19 47 40 8 166 -1 182 -14z"/>
    </g>
</svg>
