<svg xmlns="http://www.w3.org/2000/svg" x="0px" y="0px"
width="480" height="480"
viewBox="0 0 224 224"
style=" fill:#000000;"><g fill="none" fill-rule="nonzero" stroke="none" stroke-width="1" stroke-linecap="butt" stroke-linejoin="miter" stroke-miterlimit="10" stroke-dasharray="" stroke-dashoffset="0" font-family="none" font-weight="none" font-size="none" text-anchor="none" style="mix-blend-mode: normal"><path d="M0,224v-224h224v224z" fill="none"></path><path d="M0,112c0,-61.85589 50.14411,-112 112,-112c61.85589,0 112,50.14411 112,112c0,61.85589 -50.14411,112 -112,112c-61.85589,0 -112,-50.14411 -112,-112zM112,179.2c37.11354,0 67.2,-30.08646 67.2,-67.2c0,-37.11354 -30.08646,-67.2 -67.2,-67.2c-37.11354,0 -67.2,30.08646 -67.2,67.2c0,37.11354 30.08646,67.2 67.2,67.2z" fill="#3498db"></path><g><g id="surface1"><path d="M197.68,173.88c0,13.14578 -10.65422,23.8 -23.8,23.8h-123.76c-13.14578,0 -23.8,-10.65422 -23.8,-23.8v-123.76c0,-13.14578 10.65422,-23.8 23.8,-23.8h123.76c13.14578,0 23.8,10.65422 23.8,23.8z" fill="#3498db"></path><path d="M155.71391,127.99063c9.91047,9.27828 11.97438,13.81516 12.30906,14.37297c4.09062,6.87969 -4.53688,7.41891 -4.53688,7.41891l-16.52984,0.24172c0,0 -3.57,0.70656 -8.23703,-2.54734c-6.19172,-4.27656 -14.65188,-15.43281 -19.18875,-13.9825c-4.61125,1.46891 -3.14234,13.16438 -3.14234,13.16438c0,0 0.03719,1.43172 -1.00406,2.58453c-1.15281,1.20859 -3.38406,0.74375 -3.38406,0.74375h-4.76c0,0 -17.64547,0.07438 -32.03703,-15.06094c-15.67453,-16.49265 -28.78313,-47.33969 -28.78313,-47.33969c0,0 -0.79953,-1.95234 0.05578,-2.99359c0.98547,-1.17141 3.64438,-1.15281 3.64438,-1.15281h17.68266c0,0 1.65484,0.22312 2.84484,1.11562c1.00406,0.72516 1.54328,2.10109 1.54328,2.10109c0,0 2.13828,5.74547 5.93141,12.36485c7.38172,12.90406 10.82156,15.73031 13.33172,14.33578c3.64437,-2.02672 2.54734,-18.24047 2.54734,-18.24047c0,0 0.07438,-5.89422 -1.84078,-8.51594c-1.4875,-2.04531 -4.25797,-2.64031 -5.48515,-2.80766c-1.00406,-0.11156 0.63219,-2.45437 2.75187,-3.49563c3.17953,-1.56188 8.81344,-1.67344 15.4514,-1.59906c5.16906,0.05578 7.12141,-0.01859 7.12141,-0.01859c6.09875,1.4875 4.03484,7.25156 4.03484,21.01094c0,4.42531 -0.79953,10.63563 2.36141,12.68094c1.35734,0.91109 6.22891,1.04125 14.50312,-13.18297c3.94188,-6.74953 7.04703,-13.09 7.04703,-13.09c0,0 0.66938,-1.43172 1.65484,-2.02672c1.04125,-0.63219 2.41719,-0.63219 2.41719,-0.63219l18.61234,0.09297c0,0 5.59672,-0.70656 6.48922,1.85937c0.94828,2.6775 -2.28703,7.36313 -9.87328,17.60828c-12.495,16.82734 -13.88953,15.26547 -3.53281,24.99z" fill="#ffffff"></path></g></g><path d="M112,224c-61.85589,0 -112,-50.14411 -112,-112v0c0,-61.85589 50.14411,-112 112,-112v0c61.85589,0 112,50.14411 112,112v0c0,61.85589 -50.14411,112 -112,112z" fill="none"></path><path d="M112,179.2c-37.11354,0 -67.2,-30.08646 -67.2,-67.2v0c0,-37.11354 30.08646,-67.2 67.2,-67.2v0c37.11354,0 67.2,30.08646 67.2,67.2v0c0,37.11354 -30.08646,67.2 -67.2,67.2z" fill="none"></path><path d="M112,224c-61.85589,0 -112,-50.14411 -112,-112v0c0,-61.85589 50.14411,-112 112,-112v0c61.85589,0 112,50.14411 112,112v0c0,61.85589 -50.14411,112 -112,112z" fill="none"></path><path d="M112,179.2c-37.11354,0 -67.2,-30.08646 -67.2,-67.2v0c0,-37.11354 30.08646,-67.2 67.2,-67.2v0c37.11354,0 67.2,30.08646 67.2,67.2v0c0,37.11354 -30.08646,67.2 -67.2,67.2z" fill="none"></path><path d="M112,224c-61.85589,0 -112,-50.14411 -112,-112v0c0,-61.85589 50.14411,-112 112,-112v0c61.85589,0 112,50.14411 112,112v0c0,61.85589 -50.14411,112 -112,112z" fill="none"></path><path d="M112,179.2c-37.11354,0 -67.2,-30.08646 -67.2,-67.2v0c0,-37.11354 30.08646,-67.2 67.2,-67.2v0c37.11354,0 67.2,30.08646 67.2,67.2v0c0,37.11354 -30.08646,67.2 -67.2,67.2z" fill="none"></path></g></svg>