<svg xmlns="http://www.w3.org/2000/svg" x="0px" y="0px"
width="480" height="480"
viewBox="0 0 224 224"
style=" fill:#000000;"><g fill="none" fill-rule="nonzero" stroke="none" stroke-width="1" stroke-linecap="butt" stroke-linejoin="miter" stroke-miterlimit="10" stroke-dasharray="" stroke-dashoffset="0" font-family="none" font-weight="none" font-size="none" text-anchor="none" style="mix-blend-mode: normal"><path d="M0,224v-224h224v224z" fill="none"></path><path d="M112,215.04c-56.90742,0 -103.04,-46.13258 -103.04,-103.04v0c0,-56.90742 46.13258,-103.04 103.04,-103.04h0c56.90742,0 103.04,46.13258 103.04,103.04v0c0,56.90742 -46.13258,103.04 -103.04,103.04z" fill="#ff5757"></path><g fill="#ffffff"><path d="M96.67368,68.13333c-19.75051,0 -35.7614,13.72216 -35.7614,30.65263c0,5.75759 1.88514,11.12244 5.10877,15.72544v25.14474l16.80307,-12.6023c4.26072,1.53263 8.94003,2.38476 13.84956,2.38476c19.75051,0 35.7614,-13.72216 35.7614,-30.65263c0,-16.93047 -16.01089,-30.65263 -35.7614,-30.65263zM142.53289,96.61075c0.04088,0.72545 0.11974,1.44466 0.11974,2.17522c0,22.53479 -20.62411,40.87018 -45.97895,40.87018c-0.10218,0 -0.20228,-0.01995 -0.29934,-0.01995c6.18161,9.16003 17.71515,15.34627 30.95197,15.34627c4.90953,0 9.58885,-0.85213 13.84956,-2.38476l16.80307,12.6023v-25.14474c3.22364,-4.603 5.10877,-9.96785 5.10877,-15.72544c0,-12.26105 -8.41638,-22.81466 -20.55483,-27.71908z"></path></g><path d="M112,224c-61.85589,0 -112,-50.14411 -112,-112v0c0,-61.85589 50.14411,-112 112,-112v0c61.85589,0 112,50.14411 112,112v0c0,61.85589 -50.14411,112 -112,112z" fill="none"></path><path d="M112,179.2c-37.11354,0 -67.2,-30.08646 -67.2,-67.2v0c0,-37.11354 30.08646,-67.2 67.2,-67.2v0c37.11354,0 67.2,30.08646 67.2,67.2v0c0,37.11354 -30.08646,67.2 -67.2,67.2z" fill="none"></path><path d="M112,224c-61.85589,0 -112,-50.14411 -112,-112v0c0,-61.85589 50.14411,-112 112,-112v0c61.85589,0 112,50.14411 112,112v0c0,61.85589 -50.14411,112 -112,112z" fill="none"></path><path d="M112,179.2c-37.11354,0 -67.2,-30.08646 -67.2,-67.2v0c0,-37.11354 30.08646,-67.2 67.2,-67.2v0c37.11354,0 67.2,30.08646 67.2,67.2v0c0,37.11354 -30.08646,67.2 -67.2,67.2z" fill="none"></path><path d="M112,224c-61.85589,0 -112,-50.14411 -112,-112v0c0,-61.85589 50.14411,-112 112,-112v0c61.85589,0 112,50.14411 112,112v0c0,61.85589 -50.14411,112 -112,112z" fill="none"></path><path d="M112,179.2c-37.11354,0 -67.2,-30.08646 -67.2,-67.2v0c0,-37.11354 30.08646,-67.2 67.2,-67.2v0c37.11354,0 67.2,30.08646 67.2,67.2v0c0,37.11354 -30.08646,67.2 -67.2,67.2z" fill="none"></path><path d="M112,224c-61.85589,0 -112,-50.14411 -112,-112v0c0,-61.85589 50.14411,-112 112,-112v0c61.85589,0 112,50.14411 112,112v0c0,61.85589 -50.14411,112 -112,112z" fill="none"></path><path d="M112,179.2c-37.11354,0 -67.2,-30.08646 -67.2,-67.2v0c0,-37.11354 30.08646,-67.2 67.2,-67.2v0c37.11354,0 67.2,30.08646 67.2,67.2v0c0,37.11354 -30.08646,67.2 -67.2,67.2z" fill="none"></path><path d="M112,224c-61.85589,0 -112,-50.14411 -112,-112v0c0,-61.85589 50.14411,-112 112,-112v0c61.85589,0 112,50.14411 112,112v0c0,61.85589 -50.14411,112 -112,112z" fill="none"></path><path d="M112,179.2c-37.11354,0 -67.2,-30.08646 -67.2,-67.2v0c0,-37.11354 30.08646,-67.2 67.2,-67.2v0c37.11354,0 67.2,30.08646 67.2,67.2v0c0,37.11354 -30.08646,67.2 -67.2,67.2z" fill="none"></path><path d="M112,224c-61.85589,0 -112,-50.14411 -112,-112v0c0,-61.85589 50.14411,-112 112,-112v0c61.85589,0 112,50.14411 112,112v0c0,61.85589 -50.14411,112 -112,112z" fill="none"></path><path d="M112,179.2c-37.11354,0 -67.2,-30.08646 -67.2,-67.2v0c0,-37.11354 30.08646,-67.2 67.2,-67.2v0c37.11354,0 67.2,30.08646 67.2,67.2v0c0,37.11354 -30.08646,67.2 -67.2,67.2z" fill="none"></path><path d="M112,224c-61.85589,0 -112,-50.14411 -112,-112v0c0,-61.85589 50.14411,-112 112,-112v0c61.85589,0 112,50.14411 112,112v0c0,61.85589 -50.14411,112 -112,112z" fill="none"></path><path d="M112,179.2c-37.11354,0 -67.2,-30.08646 -67.2,-67.2v0c0,-37.11354 30.08646,-67.2 67.2,-67.2v0c37.11354,0 67.2,30.08646 67.2,67.2v0c0,37.11354 -30.08646,67.2 -67.2,67.2z" fill="none"></path><path d="M112,224c-61.85589,0 -112,-50.14411 -112,-112v0c0,-61.85589 50.14411,-112 112,-112v0c61.85589,0 112,50.14411 112,112v0c0,61.85589 -50.14411,112 -112,112z" fill="none"></path><path d="M112,179.2c-37.11354,0 -67.2,-30.08646 -67.2,-67.2v0c0,-37.11354 30.08646,-67.2 67.2,-67.2v0c37.11354,0 67.2,30.08646 67.2,67.2v0c0,37.11354 -30.08646,67.2 -67.2,67.2z" fill="none"></path><path d="M112,224c-61.85589,0 -112,-50.14411 -112,-112v0c0,-61.85589 50.14411,-112 112,-112v0c61.85589,0 112,50.14411 112,112v0c0,61.85589 -50.14411,112 -112,112z" fill="none"></path><path d="M112,179.2c-37.11354,0 -67.2,-30.08646 -67.2,-67.2v0c0,-37.11354 30.08646,-67.2 67.2,-67.2v0c37.11354,0 67.2,30.08646 67.2,67.2v0c0,37.11354 -30.08646,67.2 -67.2,67.2z" fill="none"></path><path d="M112,224c-61.85589,0 -112,-50.14411 -112,-112v0c0,-61.85589 50.14411,-112 112,-112v0c61.85589,0 112,50.14411 112,112v0c0,61.85589 -50.14411,112 -112,112z" fill="none"></path><path d="M112,179.2c-37.11354,0 -67.2,-30.08646 -67.2,-67.2v0c0,-37.11354 30.08646,-67.2 67.2,-67.2v0c37.11354,0 67.2,30.08646 67.2,67.2v0c0,37.11354 -30.08646,67.2 -67.2,67.2z" fill="none"></path><path d="M112,224c-61.85589,0 -112,-50.14411 -112,-112v0c0,-61.85589 50.14411,-112 112,-112v0c61.85589,0 112,50.14411 112,112v0c0,61.85589 -50.14411,112 -112,112z" fill="none"></path><path d="M112,179.2c-37.11354,0 -67.2,-30.08646 -67.2,-67.2v0c0,-37.11354 30.08646,-67.2 67.2,-67.2v0c37.11354,0 67.2,30.08646 67.2,67.2v0c0,37.11354 -30.08646,67.2 -67.2,67.2z" fill="none"></path><path d="M112,224c-61.85589,0 -112,-50.14411 -112,-112v0c0,-61.85589 50.14411,-112 112,-112v0c61.85589,0 112,50.14411 112,112v0c0,61.85589 -50.14411,112 -112,112z" fill="none"></path><path d="M112,179.2c-37.11354,0 -67.2,-30.08646 -67.2,-67.2v0c0,-37.11354 30.08646,-67.2 67.2,-67.2v0c37.11354,0 67.2,30.08646 67.2,67.2v0c0,37.11354 -30.08646,67.2 -67.2,67.2z" fill="none"></path><path d="M112,224c-61.85589,0 -112,-50.14411 -112,-112v0c0,-61.85589 50.14411,-112 112,-112v0c61.85589,0 112,50.14411 112,112v0c0,61.85589 -50.14411,112 -112,112z" fill="none"></path><path d="M112,179.2c-37.11354,0 -67.2,-30.08646 -67.2,-67.2v0c0,-37.11354 30.08646,-67.2 67.2,-67.2v0c37.11354,0 67.2,30.08646 67.2,67.2v0c0,37.11354 -30.08646,67.2 -67.2,67.2z" fill="none"></path><path d="M112,224c-61.85589,0 -112,-50.14411 -112,-112v0c0,-61.85589 50.14411,-112 112,-112v0c61.85589,0 112,50.14411 112,112v0c0,61.85589 -50.14411,112 -112,112z" fill="none"></path><path d="M112,179.2c-37.11354,0 -67.2,-30.08646 -67.2,-67.2v0c0,-37.11354 30.08646,-67.2 67.2,-67.2v0c37.11354,0 67.2,30.08646 67.2,67.2v0c0,37.11354 -30.08646,67.2 -67.2,67.2z" fill="none"></path><path d="M112,224c-61.85589,0 -112,-50.14411 -112,-112v0c0,-61.85589 50.14411,-112 112,-112v0c61.85589,0 112,50.14411 112,112v0c0,61.85589 -50.14411,112 -112,112z" fill="none"></path><path d="M112,179.2c-37.11354,0 -67.2,-30.08646 -67.2,-67.2v0c0,-37.11354 30.08646,-67.2 67.2,-67.2v0c37.11354,0 67.2,30.08646 67.2,67.2v0c0,37.11354 -30.08646,67.2 -67.2,67.2z" fill="none"></path><path d="M112,224c-61.85589,0 -112,-50.14411 -112,-112v0c0,-61.85589 50.14411,-112 112,-112v0c61.85589,0 112,50.14411 112,112v0c0,61.85589 -50.14411,112 -112,112z" fill="none"></path><path d="M112,179.2c-37.11354,0 -67.2,-30.08646 -67.2,-67.2v0c0,-37.11354 30.08646,-67.2 67.2,-67.2v0c37.11354,0 67.2,30.08646 67.2,67.2v0c0,37.11354 -30.08646,67.2 -67.2,67.2z" fill="none"></path><path d="M112,224c-61.85589,0 -112,-50.14411 -112,-112v0c0,-61.85589 50.14411,-112 112,-112v0c61.85589,0 112,50.14411 112,112v0c0,61.85589 -50.14411,112 -112,112z" fill="none"></path><path d="M112,179.2c-37.11354,0 -67.2,-30.08646 -67.2,-67.2v0c0,-37.11354 30.08646,-67.2 67.2,-67.2v0c37.11354,0 67.2,30.08646 67.2,67.2v0c0,37.11354 -30.08646,67.2 -67.2,67.2z" fill="none"></path><path d="M112,224c-61.85589,0 -112,-50.14411 -112,-112v0c0,-61.85589 50.14411,-112 112,-112v0c61.85589,0 112,50.14411 112,112v0c0,61.85589 -50.14411,112 -112,112z" fill="none"></path><path d="M112,179.2c-37.11354,0 -67.2,-30.08646 -67.2,-67.2v0c0,-37.11354 30.08646,-67.2 67.2,-67.2v0c37.11354,0 67.2,30.08646 67.2,67.2v0c0,37.11354 -30.08646,67.2 -67.2,67.2z" fill="none"></path><path d="M112,224c-61.85589,0 -112,-50.14411 -112,-112v0c0,-61.85589 50.14411,-112 112,-112v0c61.85589,0 112,50.14411 112,112v0c0,61.85589 -50.14411,112 -112,112z" fill="none"></path><path d="M112,179.2c-37.11354,0 -67.2,-30.08646 -67.2,-67.2v0c0,-37.11354 30.08646,-67.2 67.2,-67.2v0c37.11354,0 67.2,30.08646 67.2,67.2v0c0,37.11354 -30.08646,67.2 -67.2,67.2z" fill="none"></path><path d="M112,224c-61.85589,0 -112,-50.14411 -112,-112v0c0,-61.85589 50.14411,-112 112,-112v0c61.85589,0 112,50.14411 112,112v0c0,61.85589 -50.14411,112 -112,112z" fill="none"></path><path d="M112,179.2c-37.11354,0 -67.2,-30.08646 -67.2,-67.2v0c0,-37.11354 30.08646,-67.2 67.2,-67.2v0c37.11354,0 67.2,30.08646 67.2,67.2v0c0,37.11354 -30.08646,67.2 -67.2,67.2z" fill="none"></path><path d="M112,224c-61.85589,0 -112,-50.14411 -112,-112v0c0,-61.85589 50.14411,-112 112,-112v0c61.85589,0 112,50.14411 112,112v0c0,61.85589 -50.14411,112 -112,112z" fill="none"></path><path d="M112,179.2c-37.11354,0 -67.2,-30.08646 -67.2,-67.2v0c0,-37.11354 30.08646,-67.2 67.2,-67.2v0c37.11354,0 67.2,30.08646 67.2,67.2v0c0,37.11354 -30.08646,67.2 -67.2,67.2z" fill="none"></path><path d="M112,224c-61.85589,0 -112,-50.14411 -112,-112v0c0,-61.85589 50.14411,-112 112,-112v0c61.85589,0 112,50.14411 112,112v0c0,61.85589 -50.14411,112 -112,112z" fill="none"></path><path d="M112,179.2c-37.11354,0 -67.2,-30.08646 -67.2,-67.2v0c0,-37.11354 30.08646,-67.2 67.2,-67.2v0c37.11354,0 67.2,30.08646 67.2,67.2v0c0,37.11354 -30.08646,67.2 -67.2,67.2z" fill="none"></path><path d="M112,224c-61.85589,0 -112,-50.14411 -112,-112v0c0,-61.85589 50.14411,-112 112,-112v0c61.85589,0 112,50.14411 112,112v0c0,61.85589 -50.14411,112 -112,112z" fill="none"></path><path d="M112,179.2c-37.11354,0 -67.2,-30.08646 -67.2,-67.2v0c0,-37.11354 30.08646,-67.2 67.2,-67.2v0c37.11354,0 67.2,30.08646 67.2,67.2v0c0,37.11354 -30.08646,67.2 -67.2,67.2z" fill="none"></path><path d="M112,224c-61.85589,0 -112,-50.14411 -112,-112v0c0,-61.85589 50.14411,-112 112,-112v0c61.85589,0 112,50.14411 112,112v0c0,61.85589 -50.14411,112 -112,112z" fill="none"></path><path d="M112,179.2c-37.11354,0 -67.2,-30.08646 -67.2,-67.2v0c0,-37.11354 30.08646,-67.2 67.2,-67.2v0c37.11354,0 67.2,30.08646 67.2,67.2v0c0,37.11354 -30.08646,67.2 -67.2,67.2z" fill="none"></path><path d="M112,224c-61.85589,0 -112,-50.14411 -112,-112v0c0,-61.85589 50.14411,-112 112,-112v0c61.85589,0 112,50.14411 112,112v0c0,61.85589 -50.14411,112 -112,112z" fill="none"></path><path d="M112,179.2c-37.11354,0 -67.2,-30.08646 -67.2,-67.2v0c0,-37.11354 30.08646,-67.2 67.2,-67.2v0c37.11354,0 67.2,30.08646 67.2,67.2v0c0,37.11354 -30.08646,67.2 -67.2,67.2z" fill="none"></path><path d="M112,224c-61.85589,0 -112,-50.14411 -112,-112v0c0,-61.85589 50.14411,-112 112,-112v0c61.85589,0 112,50.14411 112,112v0c0,61.85589 -50.14411,112 -112,112z" fill="none"></path><path d="M112,179.2c-37.11354,0 -67.2,-30.08646 -67.2,-67.2v0c0,-37.11354 30.08646,-67.2 67.2,-67.2v0c37.11354,0 67.2,30.08646 67.2,67.2v0c0,37.11354 -30.08646,67.2 -67.2,67.2z" fill="none"></path><path d="M112,224c-61.85589,0 -112,-50.14411 -112,-112v0c0,-61.85589 50.14411,-112 112,-112v0c61.85589,0 112,50.14411 112,112v0c0,61.85589 -50.14411,112 -112,112z" fill="none"></path><path d="M112,179.2c-37.11354,0 -67.2,-30.08646 -67.2,-67.2v0c0,-37.11354 30.08646,-67.2 67.2,-67.2v0c37.11354,0 67.2,30.08646 67.2,67.2v0c0,37.11354 -30.08646,67.2 -67.2,67.2z" fill="none"></path><path d="M112,218.4c-58.7631,0 -106.4,-47.6369 -106.4,-106.4v0c0,-58.7631 47.6369,-106.4 106.4,-106.4v0c58.7631,0 106.4,47.6369 106.4,106.4v0c0,58.7631 -47.6369,106.4 -106.4,106.4z" fill="none"></path><path d="M112,173.6c-34.02074,0 -61.6,-27.57926 -61.6,-61.6v0c0,-34.02074 27.57926,-61.6 61.6,-61.6v0c34.02074,0 61.6,27.57926 61.6,61.6v0c0,34.02074 -27.57926,61.6 -61.6,61.6z" fill="none"></path><path d="M112,215.04c-56.90742,0 -103.04,-46.13258 -103.04,-103.04v0c0,-56.90742 46.13258,-103.04 103.04,-103.04h0c56.90742,0 103.04,46.13258 103.04,103.04v0c0,56.90742 -46.13258,103.04 -103.04,103.04z" fill="none"></path><path d="M112,170.24c-32.16506,0 -58.24,-26.07494 -58.24,-58.24v0c0,-32.16506 26.07494,-58.24 58.24,-58.24v0c32.16506,0 58.24,26.07494 58.24,58.24v0c0,32.16506 -26.07494,58.24 -58.24,58.24z" fill="none"></path><path d="M112,210.56c-54.43318,0 -98.56,-44.12682 -98.56,-98.56v0c0,-54.43318 44.12682,-98.56 98.56,-98.56v0c54.43318,0 98.56,44.12682 98.56,98.56v0c0,54.43318 -44.12682,98.56 -98.56,98.56z" fill="none"></path><path d="M112,165.76c-29.69083,0 -53.76,-24.06917 -53.76,-53.76v0c0,-29.69083 24.06917,-53.76 53.76,-53.76v0c29.69083,0 53.76,24.06917 53.76,53.76v0c0,29.69083 -24.06917,53.76 -53.76,53.76z" fill="none"></path><path d="M112,209.44c-53.81463,0 -97.44,-43.62537 -97.44,-97.44v0c0,-53.81463 43.62537,-97.44 97.44,-97.44v0c53.81463,0 97.44,43.62537 97.44,97.44v0c0,53.81463 -43.62537,97.44 -97.44,97.44z" fill="none"></path><path d="M112,164.64c-29.07227,0 -52.64,-23.56773 -52.64,-52.64v0c0,-29.07227 23.56773,-52.64 52.64,-52.64v0c29.07227,0 52.64,23.56773 52.64,52.64v0c0,29.07227 -23.56773,52.64 -52.64,52.64z" fill="none"></path><path d="M112,207.2c-52.57751,0 -95.2,-42.62249 -95.2,-95.2v0c0,-52.57751 42.62249,-95.2 95.2,-95.2h0c52.57751,0 95.2,42.62249 95.2,95.2v0c0,52.57751 -42.62249,95.2 -95.2,95.2z" fill="none"></path><path d="M112,162.4c-27.83515,0 -50.4,-22.56485 -50.4,-50.4v0c0,-27.83515 22.56485,-50.4 50.4,-50.4v0c27.83515,0 50.4,22.56485 50.4,50.4v0c0,27.83515 -22.56485,50.4 -50.4,50.4z" fill="none"></path><path d="M112,206.08c-51.95895,0 -94.08,-42.12105 -94.08,-94.08v0c0,-51.95895 42.12105,-94.08 94.08,-94.08h0c51.95895,0 94.08,42.12105 94.08,94.08v0c0,51.95895 -42.12105,94.08 -94.08,94.08z" fill="none"></path><path d="M112,161.28c-27.21659,0 -49.28,-22.06341 -49.28,-49.28v0c0,-27.21659 22.06341,-49.28 49.28,-49.28v0c27.21659,0 49.28,22.06341 49.28,49.28v0c0,27.21659 -22.06341,49.28 -49.28,49.28z" fill="none"></path><path d="M112,204.96c-51.34039,0 -92.96,-41.61961 -92.96,-92.96v0c0,-51.34039 41.61961,-92.96 92.96,-92.96h0c51.34039,0 92.96,41.61961 92.96,92.96v0c0,51.34039 -41.61961,92.96 -92.96,92.96z" fill="none"></path><path d="M112,160.16c-26.59803,0 -48.16,-21.56197 -48.16,-48.16v0c0,-26.59803 21.56197,-48.16 48.16,-48.16v0c26.59803,0 48.16,21.56197 48.16,48.16v0c0,26.59803 -21.56197,48.16 -48.16,48.16z" fill="none"></path><path d="M112,202.72c-50.10327,0 -90.72,-40.61673 -90.72,-90.72v0c0,-50.10327 40.61673,-90.72 90.72,-90.72v0c50.10327,0 90.72,40.61673 90.72,90.72v0c0,50.10327 -40.61673,90.72 -90.72,90.72z" fill="none"></path><path d="M112,157.92c-25.36092,0 -45.92,-20.55908 -45.92,-45.92v0c0,-25.36092 20.55908,-45.92 45.92,-45.92h0c25.36092,0 45.92,20.55908 45.92,45.92v0c0,25.36092 -20.55908,45.92 -45.92,45.92z" fill="none"></path><path d="M112,199.36c-48.2476,0 -87.36,-39.1124 -87.36,-87.36v0c0,-48.2476 39.1124,-87.36 87.36,-87.36h0c48.2476,0 87.36,39.1124 87.36,87.36v0c0,48.2476 -39.1124,87.36 -87.36,87.36z" fill="none"></path><path d="M112,154.56c-23.50524,0 -42.56,-19.05476 -42.56,-42.56v0c0,-23.50524 19.05476,-42.56 42.56,-42.56v0c23.50524,0 42.56,19.05476 42.56,42.56v0c0,23.50524 -19.05476,42.56 -42.56,42.56z" fill="none"></path><path d="M112,198.24c-47.62904,0 -86.24,-38.61096 -86.24,-86.24v0c0,-47.62904 38.61096,-86.24 86.24,-86.24h0c47.62904,0 86.24,38.61096 86.24,86.24v0c0,47.62904 -38.61096,86.24 -86.24,86.24z" fill="none"></path><path d="M112,153.44c-22.88668,0 -41.44,-18.55332 -41.44,-41.44v0c0,-22.88668 18.55332,-41.44 41.44,-41.44v0c22.88668,0 41.44,18.55332 41.44,41.44v0c0,22.88668 -18.55332,41.44 -41.44,41.44z" fill="none"></path><path d="M112,197.12c-47.01048,0 -85.12,-38.10952 -85.12,-85.12v0c0,-47.01048 38.10952,-85.12 85.12,-85.12v0c47.01048,0 85.12,38.10952 85.12,85.12v0c0,47.01048 -38.10952,85.12 -85.12,85.12z" fill="none"></path><path d="M112,152.32c-22.26812,0 -40.32,-18.05188 -40.32,-40.32v0c0,-22.26812 18.05188,-40.32 40.32,-40.32v0c22.26812,0 40.32,18.05188 40.32,40.32v0c0,22.26812 -18.05188,40.32 -40.32,40.32z" fill="none"></path><path d="M112,194.88c-45.77336,0 -82.88,-37.10664 -82.88,-82.88v0c0,-45.77336 37.10664,-82.88 82.88,-82.88v0c45.77336,0 82.88,37.10664 82.88,82.88v0c0,45.77336 -37.10664,82.88 -82.88,82.88z" fill="none"></path><path d="M112,150.08c-21.031,0 -38.08,-17.049 -38.08,-38.08v0c0,-21.031 17.049,-38.08 38.08,-38.08v0c21.031,0 38.08,17.049 38.08,38.08v0c0,21.031 -17.049,38.08 -38.08,38.08z" fill="none"></path><path d="M112,197.12c-47.01048,0 -85.12,-38.10952 -85.12,-85.12v0c0,-47.01048 38.10952,-85.12 85.12,-85.12v0c47.01048,0 85.12,38.10952 85.12,85.12v0c0,47.01048 -38.10952,85.12 -85.12,85.12z" fill="none"></path><path d="M112,152.32c-22.26812,0 -40.32,-18.05188 -40.32,-40.32v0c0,-22.26812 18.05188,-40.32 40.32,-40.32v0c22.26812,0 40.32,18.05188 40.32,40.32v0c0,22.26812 -18.05188,40.32 -40.32,40.32z" fill="none"></path><path d="M112,202.72c-50.10327,0 -90.72,-40.61673 -90.72,-90.72v0c0,-50.10327 40.61673,-90.72 90.72,-90.72v0c50.10327,0 90.72,40.61673 90.72,90.72v0c0,50.10327 -40.61673,90.72 -90.72,90.72z" fill="none"></path><path d="M112,157.92c-25.36092,0 -45.92,-20.55908 -45.92,-45.92v0c0,-25.36092 20.55908,-45.92 45.92,-45.92h0c25.36092,0 45.92,20.55908 45.92,45.92v0c0,25.36092 -20.55908,45.92 -45.92,45.92z" fill="none"></path><path d="M112,203.84c-50.72183,0 -91.84,-41.11817 -91.84,-91.84v0c0,-50.72183 41.11817,-91.84 91.84,-91.84v0c50.72183,0 91.84,41.11817 91.84,91.84v0c0,50.72183 -41.11817,91.84 -91.84,91.84z" fill="none"></path><path d="M112,159.04c-25.97947,0 -47.04,-21.06053 -47.04,-47.04v0c0,-25.97947 21.06053,-47.04 47.04,-47.04h0c25.97947,0 47.04,21.06053 47.04,47.04v0c0,25.97947 -21.06053,47.04 -47.04,47.04z" fill="none"></path><path d="M112,206.08c-51.95895,0 -94.08,-42.12105 -94.08,-94.08v0c0,-51.95895 42.12105,-94.08 94.08,-94.08h0c51.95895,0 94.08,42.12105 94.08,94.08v0c0,51.95895 -42.12105,94.08 -94.08,94.08z" fill="none"></path><path d="M112,161.28c-27.21659,0 -49.28,-22.06341 -49.28,-49.28v0c0,-27.21659 22.06341,-49.28 49.28,-49.28v0c27.21659,0 49.28,22.06341 49.28,49.28v0c0,27.21659 -22.06341,49.28 -49.28,49.28z" fill="none"></path><path d="M112,208.32c-53.19607,0 -96.32,-43.12393 -96.32,-96.32v0c0,-53.19607 43.12393,-96.32 96.32,-96.32v0c53.19607,0 96.32,43.12393 96.32,96.32v0c0,53.19607 -43.12393,96.32 -96.32,96.32z" fill="none"></path><path d="M112,163.52c-28.45371,0 -51.52,-23.06629 -51.52,-51.52v0c0,-28.45371 23.06629,-51.52 51.52,-51.52v0c28.45371,0 51.52,23.06629 51.52,51.52v0c0,28.45371 -23.06629,51.52 -51.52,51.52z" fill="none"></path><path d="M112,210.56c-54.43318,0 -98.56,-44.12682 -98.56,-98.56v0c0,-54.43318 44.12682,-98.56 98.56,-98.56v0c54.43318,0 98.56,44.12682 98.56,98.56v0c0,54.43318 -44.12682,98.56 -98.56,98.56z" fill="none"></path><path d="M112,165.76c-29.69083,0 -53.76,-24.06917 -53.76,-53.76v0c0,-29.69083 24.06917,-53.76 53.76,-53.76v0c29.69083,0 53.76,24.06917 53.76,53.76v0c0,29.69083 -24.06917,53.76 -53.76,53.76z" fill="none"></path><path d="M112,211.68c-55.05174,0 -99.68,-44.62826 -99.68,-99.68v0c0,-55.05174 44.62826,-99.68 99.68,-99.68v0c55.05174,0 99.68,44.62826 99.68,99.68v0c0,55.05174 -44.62826,99.68 -99.68,99.68z" fill="none"></path><path d="M112,166.88c-30.30939,0 -54.88,-24.57061 -54.88,-54.88v0c0,-30.30939 24.57061,-54.88 54.88,-54.88v0c30.30939,0 54.88,24.57061 54.88,54.88v0c0,30.30939 -24.57061,54.88 -54.88,54.88z" fill="none"></path><path d="M112,212.8c-55.6703,0 -100.8,-45.1297 -100.8,-100.8v0c0,-55.6703 45.1297,-100.8 100.8,-100.8h0c55.6703,0 100.8,45.1297 100.8,100.8v0c0,55.6703 -45.1297,100.8 -100.8,100.8z" fill="none"></path><path d="M112,168c-30.92795,0 -56,-25.07205 -56,-56v0c0,-30.92795 25.07205,-56 56,-56v0c30.92795,0 56,25.07205 56,56v0c0,30.92795 -25.07205,56 -56,56z" fill="none"></path><path d="M112,213.92c-56.28886,0 -101.92,-45.63114 -101.92,-101.92v0c0,-56.28886 45.63114,-101.92 101.92,-101.92h0c56.28886,0 101.92,45.63114 101.92,101.92v0c0,56.28886 -45.63114,101.92 -101.92,101.92z" fill="none"></path><path d="M112,169.12c-31.5465,0 -57.12,-25.5735 -57.12,-57.12v0c0,-31.5465 25.5735,-57.12 57.12,-57.12v0c31.5465,0 57.12,25.5735 57.12,57.12v0c0,31.5465 -25.5735,57.12 -57.12,57.12z" fill="none"></path><path d="M112,215.04c-56.90742,0 -103.04,-46.13258 -103.04,-103.04v0c0,-56.90742 46.13258,-103.04 103.04,-103.04h0c56.90742,0 103.04,46.13258 103.04,103.04v0c0,56.90742 -46.13258,103.04 -103.04,103.04z" fill="none"></path><path d="M112,170.24c-32.16506,0 -58.24,-26.07494 -58.24,-58.24v0c0,-32.16506 26.07494,-58.24 58.24,-58.24v0c32.16506,0 58.24,26.07494 58.24,58.24v0c0,32.16506 -26.07494,58.24 -58.24,58.24z" fill="none"></path><path d="M112,216.16c-57.52598,0 -104.16,-46.63402 -104.16,-104.16v0c0,-57.52598 46.63402,-104.16 104.16,-104.16v0c57.52598,0 104.16,46.63402 104.16,104.16v0c0,57.52598 -46.63402,104.16 -104.16,104.16z" fill="none"></path><path d="M112,171.36c-32.78362,0 -59.36,-26.57638 -59.36,-59.36v0c0,-32.78362 26.57638,-59.36 59.36,-59.36v0c32.78362,0 59.36,26.57638 59.36,59.36v0c0,32.78362 -26.57638,59.36 -59.36,59.36z" fill="none"></path><path d="M112,217.28c-58.14454,0 -105.28,-47.13546 -105.28,-105.28v0c0,-58.14454 47.13546,-105.28 105.28,-105.28v0c58.14454,0 105.28,47.13546 105.28,105.28v0c0,58.14454 -47.13546,105.28 -105.28,105.28z" fill="none"></path><path d="M112,172.48c-33.40218,0 -60.48,-27.07782 -60.48,-60.48v0c0,-33.40218 27.07782,-60.48 60.48,-60.48v0c33.40218,0 60.48,27.07782 60.48,60.48v0c0,33.40218 -27.07782,60.48 -60.48,60.48z" fill="none"></path><path d="M112,218.4c-58.7631,0 -106.4,-47.6369 -106.4,-106.4v0c0,-58.7631 47.6369,-106.4 106.4,-106.4v0c58.7631,0 106.4,47.6369 106.4,106.4v0c0,58.7631 -47.6369,106.4 -106.4,106.4z" fill="none"></path><path d="M112,173.6c-34.02074,0 -61.6,-27.57926 -61.6,-61.6v0c0,-34.02074 27.57926,-61.6 61.6,-61.6v0c34.02074,0 61.6,27.57926 61.6,61.6v0c0,34.02074 -27.57926,61.6 -61.6,61.6z" fill="none"></path><path d="M112,219.52c-59.38166,0 -107.52,-48.13834 -107.52,-107.52v0c0,-59.38166 48.13834,-107.52 107.52,-107.52h0c59.38166,0 107.52,48.13834 107.52,107.52v0c0,59.38166 -48.13834,107.52 -107.52,107.52z" fill="none"></path><path d="M112,174.72c-34.6393,0 -62.72,-28.0807 -62.72,-62.72v0c0,-34.6393 28.0807,-62.72 62.72,-62.72v0c34.6393,0 62.72,28.0807 62.72,62.72v0c0,34.6393 -28.0807,62.72 -62.72,62.72z" fill="none"></path><path d="M112,220.64c-60.00022,0 -108.64,-48.63978 -108.64,-108.64v0c0,-60.00022 48.63978,-108.64 108.64,-108.64h0c60.00022,0 108.64,48.63978 108.64,108.64v0c0,60.00022 -48.63978,108.64 -108.64,108.64z" fill="none"></path><path d="M112,175.84c-35.25786,0 -63.84,-28.58214 -63.84,-63.84v0c0,-35.25786 28.58214,-63.84 63.84,-63.84v0c35.25786,0 63.84,28.58214 63.84,63.84v0c0,35.25786 -28.58214,63.84 -63.84,63.84z" fill="none"></path><path d="M112,221.76c-60.61877,0 -109.76,-49.14123 -109.76,-109.76v0c0,-60.61877 49.14123,-109.76 109.76,-109.76h0c60.61877,0 109.76,49.14123 109.76,109.76v0c0,60.61877 -49.14123,109.76 -109.76,109.76z" fill="none"></path><path d="M112,176.96c-35.87642,0 -64.96,-29.08358 -64.96,-64.96v0c0,-35.87642 29.08358,-64.96 64.96,-64.96v0c35.87642,0 64.96,29.08358 64.96,64.96v0c0,35.87642 -29.08358,64.96 -64.96,64.96z" fill="none"></path><path d="M112,222.88c-61.23733,0 -110.88,-49.64267 -110.88,-110.88v0c0,-61.23733 49.64267,-110.88 110.88,-110.88v0c61.23733,0 110.88,49.64267 110.88,110.88v0c0,61.23733 -49.64267,110.88 -110.88,110.88z" fill="none"></path><path d="M112,178.08c-36.49498,0 -66.08,-29.58502 -66.08,-66.08v0c0,-36.49498 29.58502,-66.08 66.08,-66.08v0c36.49498,0 66.08,29.58502 66.08,66.08v0c0,36.49498 -29.58502,66.08 -66.08,66.08z" fill="none"></path><path d="M112,224c-61.85589,0 -112,-50.14411 -112,-112v0c0,-61.85589 50.14411,-112 112,-112v0c61.85589,0 112,50.14411 112,112v0c0,61.85589 -50.14411,112 -112,112z" fill="none"></path><path d="M112,179.2c-37.11354,0 -67.2,-30.08646 -67.2,-67.2v0c0,-37.11354 30.08646,-67.2 67.2,-67.2v0c37.11354,0 67.2,30.08646 67.2,67.2v0c0,37.11354 -30.08646,67.2 -67.2,67.2z" fill="none"></path><path d="M112,225.12c-62.47445,0 -113.12,-50.64555 -113.12,-113.12v0c0,-62.47445 50.64555,-113.12 113.12,-113.12v0c62.47445,0 113.12,50.64555 113.12,113.12v0c0,62.47445 -50.64555,113.12 -113.12,113.12z" fill="none"></path><path d="M112,180.32c-37.73209,0 -68.32,-30.58791 -68.32,-68.32v0c0,-37.73209 30.58791,-68.32 68.32,-68.32v0c37.73209,0 68.32,30.58791 68.32,68.32v0c0,37.73209 -30.58791,68.32 -68.32,68.32z" fill="none"></path><path d="M112,225.12c-62.47445,0 -113.12,-50.64555 -113.12,-113.12v0c0,-62.47445 50.64555,-113.12 113.12,-113.12v0c62.47445,0 113.12,50.64555 113.12,113.12v0c0,62.47445 -50.64555,113.12 -113.12,113.12z" fill="none"></path><path d="M112,184.8c-40.20633,0 -72.8,-32.59367 -72.8,-72.8v0c0,-40.20633 32.59367,-72.8 72.8,-72.8h0c40.20633,0 72.8,32.59367 72.8,72.8v0c0,40.20633 -32.59367,72.8 -72.8,72.8z" fill="none"></path><path d="M112,225.12c-62.47445,0 -113.12,-50.64555 -113.12,-113.12v0c0,-62.47445 50.64555,-113.12 113.12,-113.12v0c62.47445,0 113.12,50.64555 113.12,113.12v0c0,62.47445 -50.64555,113.12 -113.12,113.12z" fill="none"></path><path d="M112,189.28c-42.68057,0 -77.28,-34.59943 -77.28,-77.28v0c0,-42.68057 34.59943,-77.28 77.28,-77.28v0c42.68057,0 77.28,34.59943 77.28,77.28v0c0,42.68057 -34.59943,77.28 -77.28,77.28z" fill="none"></path><path d="M112,225.12c-62.47445,0 -113.12,-50.64555 -113.12,-113.12v0c0,-62.47445 50.64555,-113.12 113.12,-113.12v0c62.47445,0 113.12,50.64555 113.12,113.12v0c0,62.47445 -50.64555,113.12 -113.12,113.12z" fill="none"></path><path d="M112,184.8c-40.20633,0 -72.8,-32.59367 -72.8,-72.8v0c0,-40.20633 32.59367,-72.8 72.8,-72.8h0c40.20633,0 72.8,32.59367 72.8,72.8v0c0,40.20633 -32.59367,72.8 -72.8,72.8z" fill="none"></path><path d="M112,225.12c-62.47445,0 -113.12,-50.64555 -113.12,-113.12v0c0,-62.47445 50.64555,-113.12 113.12,-113.12v0c62.47445,0 113.12,50.64555 113.12,113.12v0c0,62.47445 -50.64555,113.12 -113.12,113.12z" fill="none"></path><path d="M112,180.32c-37.73209,0 -68.32,-30.58791 -68.32,-68.32v0c0,-37.73209 30.58791,-68.32 68.32,-68.32v0c37.73209,0 68.32,30.58791 68.32,68.32v0c0,37.73209 -30.58791,68.32 -68.32,68.32z" fill="none"></path><path d="M112,225.12c-62.47445,0 -113.12,-50.64555 -113.12,-113.12v0c0,-62.47445 50.64555,-113.12 113.12,-113.12v0c62.47445,0 113.12,50.64555 113.12,113.12v0c0,62.47445 -50.64555,113.12 -113.12,113.12z" fill="none"></path><path d="M112,184.8c-40.20633,0 -72.8,-32.59367 -72.8,-72.8v0c0,-40.20633 32.59367,-72.8 72.8,-72.8h0c40.20633,0 72.8,32.59367 72.8,72.8v0c0,40.20633 -32.59367,72.8 -72.8,72.8z" fill="none"></path><path d="M112,225.12c-62.47445,0 -113.12,-50.64555 -113.12,-113.12v0c0,-62.47445 50.64555,-113.12 113.12,-113.12v0c62.47445,0 113.12,50.64555 113.12,113.12v0c0,62.47445 -50.64555,113.12 -113.12,113.12z" fill="none"></path><path d="M112,189.28c-42.68057,0 -77.28,-34.59943 -77.28,-77.28v0c0,-42.68057 34.59943,-77.28 77.28,-77.28v0c42.68057,0 77.28,34.59943 77.28,77.28v0c0,42.68057 -34.59943,77.28 -77.28,77.28z" fill="none"></path><path d="M112,225.12c-62.47445,0 -113.12,-50.64555 -113.12,-113.12v0c0,-62.47445 50.64555,-113.12 113.12,-113.12v0c62.47445,0 113.12,50.64555 113.12,113.12v0c0,62.47445 -50.64555,113.12 -113.12,113.12z" fill="none"></path><path d="M112,193.76c-45.1548,0 -81.76,-36.6052 -81.76,-81.76v0c0,-45.1548 36.6052,-81.76 81.76,-81.76h0c45.1548,0 81.76,36.6052 81.76,81.76v0c0,45.1548 -36.6052,81.76 -81.76,81.76z" fill="none"></path><path d="M112,225.12c-62.47445,0 -113.12,-50.64555 -113.12,-113.12v0c0,-62.47445 50.64555,-113.12 113.12,-113.12v0c62.47445,0 113.12,50.64555 113.12,113.12v0c0,62.47445 -50.64555,113.12 -113.12,113.12z" fill="none"></path><path d="M112,202.72c-50.10327,0 -90.72,-40.61673 -90.72,-90.72v0c0,-50.10327 40.61673,-90.72 90.72,-90.72v0c50.10327,0 90.72,40.61673 90.72,90.72v0c0,50.10327 -40.61673,90.72 -90.72,90.72z" fill="none"></path><path d="M112,225.12c-62.47445,0 -113.12,-50.64555 -113.12,-113.12v0c0,-62.47445 50.64555,-113.12 113.12,-113.12v0c62.47445,0 113.12,50.64555 113.12,113.12v0c0,62.47445 -50.64555,113.12 -113.12,113.12z" fill="none"></path><path d="M112,207.2c-52.57751,0 -95.2,-42.62249 -95.2,-95.2v0c0,-52.57751 42.62249,-95.2 95.2,-95.2h0c52.57751,0 95.2,42.62249 95.2,95.2v0c0,52.57751 -42.62249,95.2 -95.2,95.2z" fill="none"></path><path d="M112,225.12c-62.47445,0 -113.12,-50.64555 -113.12,-113.12v0c0,-62.47445 50.64555,-113.12 113.12,-113.12v0c62.47445,0 113.12,50.64555 113.12,113.12v0c0,62.47445 -50.64555,113.12 -113.12,113.12z" fill="none"></path><path d="M112,211.68c-55.05174,0 -99.68,-44.62826 -99.68,-99.68v0c0,-55.05174 44.62826,-99.68 99.68,-99.68v0c55.05174,0 99.68,44.62826 99.68,99.68v0c0,55.05174 -44.62826,99.68 -99.68,99.68z" fill="none"></path><path d="M112,225.12c-62.47445,0 -113.12,-50.64555 -113.12,-113.12v0c0,-62.47445 50.64555,-113.12 113.12,-113.12v0c62.47445,0 113.12,50.64555 113.12,113.12v0c0,62.47445 -50.64555,113.12 -113.12,113.12z" fill="none"></path><path d="M112,207.2c-52.57751,0 -95.2,-42.62249 -95.2,-95.2v0c0,-52.57751 42.62249,-95.2 95.2,-95.2h0c52.57751,0 95.2,42.62249 95.2,95.2v0c0,52.57751 -42.62249,95.2 -95.2,95.2z" fill="none"></path><path d="M112,225.12c-62.47445,0 -113.12,-50.64555 -113.12,-113.12v0c0,-62.47445 50.64555,-113.12 113.12,-113.12v0c62.47445,0 113.12,50.64555 113.12,113.12v0c0,62.47445 -50.64555,113.12 -113.12,113.12z" fill="none"></path><path d="M112,202.72c-50.10327,0 -90.72,-40.61673 -90.72,-90.72v0c0,-50.10327 40.61673,-90.72 90.72,-90.72v0c50.10327,0 90.72,40.61673 90.72,90.72v0c0,50.10327 -40.61673,90.72 -90.72,90.72z" fill="none"></path><path d="M112,225.12c-62.47445,0 -113.12,-50.64555 -113.12,-113.12v0c0,-62.47445 50.64555,-113.12 113.12,-113.12v0c62.47445,0 113.12,50.64555 113.12,113.12v0c0,62.47445 -50.64555,113.12 -113.12,113.12z" fill="none"></path><path d="M112,198.24c-47.62904,0 -86.24,-38.61096 -86.24,-86.24v0c0,-47.62904 38.61096,-86.24 86.24,-86.24v0c47.62904,0 86.24,38.61096 86.24,86.24v0c0,47.62904 -38.61096,86.24 -86.24,86.24z" fill="none"></path><path d="M112,225.12c-62.47445,0 -113.12,-50.64555 -113.12,-113.12v0c0,-62.47445 50.64555,-113.12 113.12,-113.12v0c62.47445,0 113.12,50.64555 113.12,113.12v0c0,62.47445 -50.64555,113.12 -113.12,113.12z" fill="none"></path><path d="M112,193.76c-45.1548,0 -81.76,-36.6052 -81.76,-81.76v0c0,-45.1548 36.6052,-81.76 81.76,-81.76h0c45.1548,0 81.76,36.6052 81.76,81.76v0c0,45.1548 -36.6052,81.76 -81.76,81.76z" fill="none"></path><path d="M112,225.12c-62.47445,0 -113.12,-50.64555 -113.12,-113.12v0c0,-62.47445 50.64555,-113.12 113.12,-113.12v0c62.47445,0 113.12,50.64555 113.12,113.12v0c0,62.47445 -50.64555,113.12 -113.12,113.12z" fill="none"></path><path d="M112,189.28c-42.68057,0 -77.28,-34.59943 -77.28,-77.28v0c0,-42.68057 34.59943,-77.28 77.28,-77.28v0c42.68057,0 77.28,34.59943 77.28,77.28v0c0,42.68057 -34.59943,77.28 -77.28,77.28z" fill="none"></path><path d="M112,225.12c-62.47445,0 -113.12,-50.64555 -113.12,-113.12v0c0,-62.47445 50.64555,-113.12 113.12,-113.12v0c62.47445,0 113.12,50.64555 113.12,113.12v0c0,62.47445 -50.64555,113.12 -113.12,113.12z" fill="none"></path><path d="M112,184.8c-40.20633,0 -72.8,-32.59367 -72.8,-72.8v0c0,-40.20633 32.59367,-72.8 72.8,-72.8h0c40.20633,0 72.8,32.59367 72.8,72.8v0c0,40.20633 -32.59367,72.8 -72.8,72.8z" fill="none"></path><path d="M112,225.12c-62.47445,0 -113.12,-50.64555 -113.12,-113.12v0c0,-62.47445 50.64555,-113.12 113.12,-113.12v0c62.47445,0 113.12,50.64555 113.12,113.12v0c0,62.47445 -50.64555,113.12 -113.12,113.12z" fill="none"></path><path d="M112,180.32c-37.73209,0 -68.32,-30.58791 -68.32,-68.32v0c0,-37.73209 30.58791,-68.32 68.32,-68.32v0c37.73209,0 68.32,30.58791 68.32,68.32v0c0,37.73209 -30.58791,68.32 -68.32,68.32z" fill="none"></path></g></svg>