<?xml version="1.0" encoding="utf-8"?>
<svg version="1.1" baseProfile="basic" id="Слой_1"
	 xmlns="http://www.w3.org/2000/svg" xmlns:xlink="http://www.w3.org/1999/xlink" x="0px" y="0px" width="427px" height="100px"
	 viewBox="0 0 427 100" xml:space="preserve">
<g>
	<g>
		
			<linearGradient id="SVGID_1_" gradientUnits="userSpaceOnUse" x1="90.5481" y1="-1086.103" x2="114.4573" y2="-1063.2484" gradientTransform="matrix(-0.9627 -0.2707 -0.2707 0.9627 -162.7357 1078.5519)">
			<stop  offset="0.41" style="stop-color:#EF8021"/>
			<stop  offset="0.88" style="stop-color:#FCB614"/>
			<stop  offset="1" style="stop-color:#FDCF14"/>
		</linearGradient>
		<path fill="url(#SVGID_1_)" d="M9.8,4.2l29.9,0C42,4.3,43.8,2.3,43.4,0c0.4,2.3,5.6,25.2-3.3,26.4c-2.3,0.3-8,0.2-8,0.2
			c-13,0-20.8,6.1-14.8,20l-15.9-28C-2.5,12.2,2.2,4,9.8,4.2z"/>
		<linearGradient id="SVGID_2_" gradientUnits="userSpaceOnUse" x1="22.5789" y1="31.0425" x2="28.7309" y2="45.1558">
			<stop  offset="0" style="stop-color:#8A172F"/>
			<stop  offset="0.8267" style="stop-color:#F68E1E"/>
			<stop  offset="1" style="stop-color:#FAAB18"/>
		</linearGradient>
		<path fill="url(#SVGID_2_)" d="M24.9,55.6l7.4-7l0.2-0.2l-3.5-17.2c-0.5-2.4,1.3-4.5,3.7-4.5c-14.9,0-22.9,6.9-15.1,20.5l5.4,9.6
			L24.9,55.6z"/>
		
			<linearGradient id="SVGID_3_" gradientUnits="userSpaceOnUse" x1="99.9614" y1="-1022.1176" x2="91.8073" y2="-1010.1583" gradientTransform="matrix(-0.9627 -0.2707 -0.2707 0.9627 -162.7357 1078.5524)">
			<stop  offset="0" style="stop-color:#782D0A"/>
			<stop  offset="0.2756" style="stop-color:#C04F27"/>
			<stop  offset="1" style="stop-color:#F68E1E"/>
		</linearGradient>
		<path fill="url(#SVGID_3_)" d="M24.8,65.2c-1.7,0-2.9,1.5-2.6,3.2l6,29.9c0.3,1.6-1.8,2.4-2.7,1L14.3,79.5
			C8.9,70,14.4,65.2,24.8,65.2z"/>
		
			<linearGradient id="SVGID_4_" gradientUnits="userSpaceOnUse" x1="89.5898" y1="-1040.4844" x2="106.1984" y2="-1024.6084" gradientTransform="matrix(-0.9627 -0.2707 -0.2707 0.9627 -162.7357 1078.5519)">
			<stop  offset="0.1154" style="stop-color:#EF8021"/>
			<stop  offset="0.483" style="stop-color:#F69C1A"/>
			<stop  offset="0.7736" style="stop-color:#FCB614"/>
			<stop  offset="1" style="stop-color:#FDCF14"/>
		</linearGradient>
		<path fill="url(#SVGID_4_)" d="M8.8,49.6l20.8,0c1.6,0,2.9-1.3,2.6-2.9c0.3,1.6,3.9,17.5-2.3,18.3c-1.6,0.2-5.5,0.2-5.5,0.2
			c-9,0-14.5,4.2-10.3,13.9L3,59.7C0.3,55.2,3.6,49.5,8.8,49.6z"/>
	</g>
	
	
</g>
<g>
</g>
<g>
</g>
<g>
</g>
<g>
</g>
<g>
</g>
<g>
</g>
<g>
</g>
<g>
</g>
<g>
</g>
<g>
</g>
<g>
</g>
<g>
</g>
<g>
</g>
<g>
</g>
<g>
</g>
</svg>
