<svg width="236" height="183" viewBox="0 0 236 183" fill="none" xmlns="http://www.w3.org/2000/svg">
<path d="M101.464 175.965L13.1918 183L0 46.732L7.01605 46.1673C10.8819 45.8576 13.7114 42.2081 13.3106 38.0545L12.6307 31.0348C12.2269 26.8783 15.2287 23.2136 19.2993 22.8917L67.9931 19.0236C72.0608 18.6957 75.7247 21.826 76.1255 25.9826L76.8025 32.9992L77.5359 40.5564L102.491 38.5676L194.784 40.0159L204 154.035L187.204 169.143L101.464 175.965Z" fill="#770313"/>
<path d="M135.633 0L25.7926 58.4258L14 183L123.39 174.22L184.898 169.282L224.219 166.125L236 41.557L135.633 0Z" fill="#97051B"/>
</svg>
