<svg width="341" height="340" viewBox="0 0 341 340" fill="none" xmlns="http://www.w3.org/2000/svg">
<path d="M46.5384 124.081C46.5384 124.081 109.982 130.086 160.502 180.606C211.022 231.126 216.244 293.786 216.244 293.786L203.19 298.225C203.19 298.225 193.087 244.884 144.315 196.793C95.5425 148.703 42.7527 137.788 42.7527 137.788L46.5384 124.081Z" fill="#2A4854"/>
<path d="M124.995 45.6247C124.995 45.6247 131 109.068 181.52 159.589C232.04 210.109 294.7 215.33 294.7 215.33L299.139 202.276C299.139 202.276 245.797 192.174 197.707 143.401C149.617 94.6288 138.702 41.839 138.702 41.839L124.995 45.6247Z" fill="#68AAB5"/>
<path d="M216.244 45.6247C216.244 45.6247 210.239 109.068 159.719 159.589C109.199 210.109 46.5383 215.33 46.5383 215.33L42.0999 202.276C42.0999 202.276 95.4413 192.174 143.532 143.401C191.622 94.6288 202.537 41.839 202.537 41.839L216.244 45.6247Z" fill="#8E4C44"/>
<path d="M294.7 124.081C294.7 124.081 231.257 130.086 180.737 180.606C130.216 231.126 124.995 293.786 124.995 293.786L138.049 298.225C138.049 298.225 148.151 244.883 196.924 196.793C245.696 148.703 298.486 137.788 298.486 137.788L294.7 124.081Z" fill="#B92639"/>
<path fill-rule="evenodd" clip-rule="evenodd" d="M156.653 128.966C161.844 122.766 166.482 116.59 170.619 110.555C174.757 116.59 179.395 122.766 184.586 128.966C180.476 135.23 175.842 141.524 170.619 147.718C165.397 141.524 160.763 135.23 156.653 128.966Z" fill="#343534"/>
<path fill-rule="evenodd" clip-rule="evenodd" d="M184.586 128.966C180.476 135.23 175.842 141.524 170.619 147.718C165.397 141.524 160.763 135.23 156.653 128.966C161.844 122.766 166.482 116.59 170.619 110.555C174.757 116.59 179.395 122.766 184.586 128.966ZM156.499 209.787C156.563 209.861 156.627 209.934 156.69 210.007C156.692 210.01 156.694 210.012 156.697 210.015C156.743 210.069 156.79 210.124 156.837 210.178C156.788 210.121 156.739 210.064 156.69 210.007C156.624 209.931 156.559 209.856 156.493 209.78L156.499 209.787Z" fill="#343534"/>
<path d="M211.086 155.918C204.888 160 198.664 164.594 192.537 169.764C198.704 175.022 204.966 179.681 211.198 183.807C217.279 178.707 223.336 174.14 229.262 170.055C223.283 165.873 217.186 161.18 211.086 155.918Z" fill="#4B1F2D"/>
<path d="M170.619 227.85C174.748 221.98 179.372 215.998 184.542 210.015C180.445 203.848 175.826 197.655 170.619 191.555C165.413 197.655 160.794 203.849 156.697 210.015C156.743 210.069 156.79 210.124 156.837 210.178C156.91 210.263 156.984 210.348 157.057 210.433C157.139 210.529 157.222 210.625 157.304 210.721C162.23 216.468 166.653 222.211 170.619 227.85Z" fill="#241217"/>
<path d="M130.04 183.807C136.273 179.681 142.535 175.022 148.701 169.764C142.575 164.594 136.351 160 130.153 155.918C124.053 161.18 117.956 165.873 111.977 170.055C117.903 174.14 123.96 178.707 130.04 183.807Z" fill="#1B191B"/>
</svg>
