<svg width="190" height="177" viewBox="0 0 190 177" fill="none" xmlns="http://www.w3.org/2000/svg">
<path d="M0.132812 154.547C0.132813 147.359 2.24219 141.812 6.46094 137.906C10.7578 134 16.9688 132.047 25.0938 132.047C32.8281 132.047 38.7656 134 42.9062 137.906C47.0469 141.812 49.1172 147.359 49.1172 154.547C49.1172 161.578 46.9688 167.086 42.6719 171.07C38.4531 174.977 32.5938 176.93 25.0938 176.93C17.3594 176.93 11.2656 174.977 6.8125 171.07C2.35938 167.164 0.132812 161.656 0.132812 154.547Z" fill="#424B5E"/>
<path d="M189.977 121.969C189.977 132.594 187.281 142.047 181.891 150.328C176.5 158.531 168.727 164.938 158.57 169.547C148.414 174.078 136.5 176.344 122.828 176.344C111.422 176.344 101.852 175.562 94.1172 174C86.3828 172.359 78.3359 169.547 69.9766 165.562V124.312C78.8047 128.844 87.9844 132.398 97.5156 134.977C107.047 137.477 115.797 138.727 123.766 138.727C130.641 138.727 135.68 137.555 138.883 135.211C142.086 132.789 143.688 129.703 143.688 125.953C143.688 123.609 143.023 121.578 141.695 119.859C140.445 118.062 138.375 116.266 135.484 114.469C132.672 112.672 125.094 109 112.75 103.453C101.578 98.375 93.1797 93.4531 87.5547 88.6875C82.0078 83.9219 77.8672 78.4531 75.1328 72.2812C72.4766 66.1094 71.1484 58.8047 71.1484 50.3672C71.1484 34.5859 76.8906 22.2812 88.375 13.4531C99.8594 4.625 115.641 0.210937 135.719 0.210938C153.453 0.210938 171.539 4.3125 189.977 12.5156L175.797 48.2578C159.781 40.9141 145.953 37.2422 134.312 37.2422C128.297 37.2422 123.922 38.2969 121.188 40.4062C118.453 42.5156 117.086 45.1328 117.086 48.2578C117.086 51.6172 118.805 54.625 122.242 57.2812C125.758 59.9375 135.211 64.7812 150.602 71.8125C165.367 78.4531 175.602 85.6016 181.305 93.2578C187.086 100.836 189.977 110.406 189.977 121.969Z" fill="#424B5E"/>
</svg>
