<?xml version="1.0" encoding="UTF-8"?>
<svg xmlns="http://www.w3.org/2000/svg" xmlns:xlink="http://www.w3.org/1999/xlink" width="100px" height="100px" viewBox="0 0 100 100" version="1.1">
<g id="surface446602">
<path style=" stroke:none;fill-rule:nonzero;fill:rgb(0%,73.333333%,0%);fill-opacity:1;" d="M 50 0 C 47.929688 0 44.109375 0.492188 40.8125 3.25 C 40.78125 3.28125 40.703125 3.304688 40.6875 3.3125 C 39.570312 4.164062 36.828125 6.578125 32.875 10 L 18 10 C 17.9375 10 17.875 10 17.8125 10 C 16.78125 10.09375 15.992188 10.960938 16 12 L 16 24.9375 C 7.882812 32.117188 0.6875 38.5 0.6875 38.5 C 0.25 38.875 0 39.421875 0 40 L 0 98 C 0 99.101562 0.898438 100 2 100 L 98 100 C 99.101562 100 100 99.101562 100 98 L 100 40 C 100 39.421875 99.75 38.875 99.3125 38.5 C 99.3125 38.5 92.117188 32.117188 84 24.9375 L 84 12 C 84 10.898438 83.101562 10 82 10 L 67 10 C 63.203125 6.570312 60.429688 4.164062 59.3125 3.3125 C 59.296875 3.304688 59.21875 3.28125 59.1875 3.25 C 55.890625 0.492188 52.070312 0 50 0 Z M 50 4 C 51.5 4 54.414062 4.359375 56.6875 6.3125 C 56.726562 6.335938 56.773438 6.359375 56.8125 6.375 C 57.046875 6.546875 59.453125 8.6875 60.9375 10 L 39 10 C 40.492188 8.703125 42.953125 6.546875 43.1875 6.375 C 43.226562 6.359375 43.273438 6.335938 43.3125 6.3125 C 45.585938 4.359375 48.5 4 50 4 Z M 20 14 L 32.875 14 C 33.257812 14.117188 33.679688 14.117188 34.0625 14 L 80 14 L 80 25 C 79.851562 25.421875 79.851562 25.890625 80 26.3125 L 80 53.625 L 67.375 63.5625 C 64.609375 61.390625 59.984375 57.804688 59.375 57.3125 L 59.25 57.25 C 55.789062 54.484375 52.09375 54 50 54 C 47.757812 54 44.21875 54.6875 40.8125 57.1875 L 40.75 57.25 C 40.0625 57.757812 35.203125 61.554688 32.625 63.5625 L 20 53.625 L 20 26.125 C 20.054688 25.859375 20.054688 25.578125 20 25.3125 Z M 48 20 L 48 32 L 36 32 L 36 36 L 48 36 L 48 48 L 52 48 L 52 36 L 64 36 L 64 32 L 52 32 L 52 20 Z M 16 30.25 L 16 50.5 L 4 41.0625 L 4 40.875 C 4.476562 40.453125 10.296875 35.296875 16 30.25 Z M 84 30.25 C 89.703125 35.296875 95.523438 40.453125 96 40.875 L 96 41.0625 L 84 50.5 Z M 4 46.1875 L 29.375 66.125 C 25.71875 68.984375 24.125 70.1875 19.75 73.625 C 11.742188 79.921875 6.328125 84.164062 4 86 Z M 96 46.1875 L 96 86.0625 C 93.03125 83.734375 81.148438 74.382812 70.625 66.125 Z M 50 58 C 51.5 58 54.210938 58.34375 56.75 60.375 C 59.84375 62.851562 94.992188 90.335938 96 91.125 L 96 96 L 4 96 L 4 91.125 C 4.523438 90.710938 12.898438 84.109375 22.1875 76.8125 C 31.757812 69.289062 41.921875 61.367188 43.1875 60.4375 C 45.78125 58.539062 48.640625 58 50 58 Z M 50 58 "/>
</g>
</svg>
