<?xml version="1.0" standalone="no"?>
<!DOCTYPE svg PUBLIC "-//W3C//DTD SVG 20010904//EN"
        "http://www.w3.org/TR/2001/REC-SVG-20010904/DTD/svg10.dtd">
<svg version="1.0" xmlns="http://www.w3.org/2000/svg"
     width="150.000000pt" height="150.000000pt" viewBox="0 0 150.000000 150.000000"
     preserveAspectRatio="xMidYMid meet">

    <g transform="translate(0.000000,150.000000) scale(0.100000,-0.100000)"
       fill="#06b205" stroke="none">
        <path d="M99 1421 l-29 -29 0 -637 0 -637 29 -29 29 -29 637 0 637 0 29 29 29
29 0 637 0 637 -29 29 -29 29 -637 0 -637 0 -29 -29z m819 -283 c7 -7 12 -44
12 -95 l0 -83 38 0 c46 0 82 -23 82 -53 0 -14 -47 -75 -125 -164 -97 -110
-131 -143 -150 -143 -19 0 -53 33 -150 143 -78 89 -125 150 -125 164 0 30 36
53 82 53 l38 0 0 83 c0 51 5 88 12 95 17 17 269 17 286 0z m-229 -537 c25 -35
72 -55 108 -47 14 4 41 23 58 42 l31 34 166 0 c138 0 169 -3 182 -16 23 -23
23 -245 0 -268 -14 -14 -69 -16 -459 -16 -390 0 -445 2 -459 16 -23 23 -23
245 0 268 13 13 44 16 184 16 l169 0 20 -29z"/>
        <path d="M404 506 c-9 -23 -1 -48 19 -60 25 -16 52 4 52 40 0 25 -4 29 -33 32
-22 2 -34 -2 -38 -12z"/>
    </g>
</svg>
