<?xml version="1.0" standalone="no"?>
<!DOCTYPE svg PUBLIC "-//W3C//DTD SVG 20010904//EN"
        "http://www.w3.org/TR/2001/REC-SVG-20010904/DTD/svg10.dtd">
<svg version="1.0" xmlns="http://www.w3.org/2000/svg"
     width="153.000000pt" height="148.000000pt" viewBox="0 0 153.000000 148.000000"
     preserveAspectRatio="xMidYMid meet">

    <g transform="translate(0.000000,148.000000) scale(0.100000,-0.100000)"
       fill="#00bb00" stroke="none">
        <path d="M606 1464 c-159 -35 -271 -97 -387 -213 -95 -95 -147 -177 -187 -299
-23 -67 -26 -94 -26 -212 0 -118 3 -145 26 -212 42 -125 91 -203 192 -303 103
-102 198 -158 331 -197 114 -33 306 -33 420 0 133 39 228 95 331 197 101 100
150 178 192 303 23 67 26 94 26 212 0 118 -3 145 -26 212 -42 125 -91 203
-192 303 -102 101 -198 158 -326 195 -100 29 -278 36 -374 14z m217 -404 c9
-11 23 -20 32 -20 8 0 24 -13 36 -29 19 -25 25 -28 65 -23 29 3 44 1 44 -7 0
-6 11 -16 24 -21 63 -24 82 -137 38 -232 -34 -75 -28 -97 38 -129 66 -32 97
-64 106 -107 l7 -32 -68 0 c-56 0 -66 -3 -61 -15 3 -8 3 -22 0 -30 -5 -13 -50
-15 -320 -15 -244 0 -314 3 -316 13 0 6 -1 19 -2 27 -1 11 -17 16 -65 18 l-63
3 6 32 c9 44 41 75 109 104 51 23 57 29 57 55 0 16 -9 48 -20 71 -29 59 -35
148 -14 193 20 42 81 77 127 72 25 -2 37 3 57 26 50 59 150 84 183 46z"/>
        <path d="M736 1035 c-22 -8 -51 -25 -65 -40 -24 -23 -26 -33 -27 -110 -1 -60
3 -88 13 -96 7 -6 13 -18 13 -27 0 -8 9 -29 20 -47 16 -26 19 -42 14 -74 -8
-47 -30 -67 -108 -96 -49 -19 -116 -73 -116 -94 0 -8 80 -11 285 -11 205 0
285 3 285 11 0 23 -70 76 -128 98 -71 27 -87 43 -96 93 -5 27 -1 47 14 75 11
21 20 42 20 48 0 6 5 16 12 23 7 7 13 45 15 85 3 81 -20 137 -56 137 -11 0
-28 9 -38 19 -16 18 -21 18 -57 6z"/>
        <path d="M553 952 c-12 -2 -33 -15 -47 -29 -23 -23 -26 -33 -24 -87 1 -39 11
-78 25 -108 41 -86 25 -128 -62 -163 -41 -17 -85 -52 -85 -67 0 -4 21 -8 46
-8 37 0 53 6 84 33 21 18 60 40 87 50 103 37 115 67 64 166 -21 39 -31 77 -35
125 -6 74 -18 94 -53 88z"/>
        <path d="M939 953 c-12 -3 -16 -21 -18 -85 -1 -48 -7 -88 -14 -98 -22 -27 -47
-90 -47 -120 0 -34 21 -51 93 -77 27 -10 66 -32 87 -50 31 -27 47 -33 84 -33
25 0 46 2 46 4 0 22 -23 42 -81 71 -96 49 -107 77 -66 163 41 86 31 202 -18
202 -7 0 -18 7 -25 15 -7 8 -15 14 -19 14 -3 -1 -13 -3 -22 -6z"/>
    </g>
</svg>
