<?xml version="1.0" standalone="no"?>
<!DOCTYPE svg PUBLIC "-//W3C//DTD SVG 20010904//EN"
        "http://www.w3.org/TR/2001/REC-SVG-20010904/DTD/svg10.dtd">
<svg version="1.0" xmlns="http://www.w3.org/2000/svg"
     width="38.000000pt" height="38.000000pt" viewBox="0 0 38.000000 38.000000"
     preserveAspectRatio="xMidYMid meet">

    <g transform="translate(0.000000,38.000000) scale(0.100000,-0.100000)"
       fill="#989898" stroke="none">
        <path d="M238 337 c-47 -54 -86 -102 -121 -150 -33 -43 -29 -72 10 -90 27 -12
34 -7 123 103 44 53 54 70 45 78 -7 7 -33 -22 -100 -106 -41 -53 -61 -63 -71
-37 -5 13 52 91 138 190 35 40 88 28 88 -20 0 -11 -17 -41 -37 -66 -21 -26
-51 -63 -68 -84 -78 -99 -107 -125 -139 -125 -21 0 -40 8 -54 23 -39 41 -29
70 58 178 44 54 80 103 80 109 0 25 -23 4 -97 -87 -43 -54 -81 -99 -85 -101
-5 -2 -8 -23 -8 -47 0 -60 44 -105 101 -105 46 0 71 22 197 177 88 110 98 138
63 181 -32 38 -79 30 -123 -21z"/>
    </g>
</svg>
