<?xml version="1.0" standalone="no"?>
<!DOCTYPE svg PUBLIC "-//W3C//DTD SVG 20010904//EN"
 "http://www.w3.org/TR/2001/REC-SVG-20010904/DTD/svg10.dtd">
<svg version="1.0" xmlns="http://www.w3.org/2000/svg"
 width="240.000000pt" height="170.000000pt" viewBox="0 0 240.000000 170.000000"
 preserveAspectRatio="xMidYMid meet">

<g transform="translate(0.000000,170.000000) scale(0.100000,-0.100000)"
fill="#ececec" stroke="none">
<path d="M59 1541 l-29 -29 0 -652 0 -652 29 -29 29 -29 1102 0 1102 0 29 29
29 29 0 652 0 652 -29 29 -29 29 -1102 0 -1102 0 -29 -29z m509 -509 c76 -34
119 -129 100 -218 -14 -64 -78 -128 -142 -142 -72 -15 -130 2 -181 53 -79 79
-79 191 0 271 62 62 139 75 223 36z m710 0 c45 -20 89 -77 100 -129 15 -69 -3
-128 -53 -178 -79 -79 -191 -79 -270 0 -79 79 -79 191 0 271 62 62 139 75 223
36z m740 0 c45 -20 89 -77 100 -129 15 -69 -3 -128 -53 -178 -79 -79 -191 -79
-270 0 -79 79 -79 191 0 271 62 62 139 75 223 36z"/>
</g>
</svg>
