<?xml version="1.0" encoding="UTF-8" standalone="no"?>
<!DOCTYPE svg PUBLIC "-//W3C//DTD SVG 1.1//EN" "http://www.w3.org/Graphics/SVG/1.1/DTD/svg11.dtd">
<svg version="1.1" xmlns="http://www.w3.org/2000/svg" xmlns:xlink="http://www.w3.org/1999/xlink" preserveAspectRatio="xMidYMid meet" viewBox="0 0 640 388" width="640" height="388"><defs><path d="" id="f29bKkucGy"></path><path d="M1.09 361.24C1.09 289 1.09 99.43 1.09 27.19C1.09 12.18 13.21 0 28.2 0C150.57 0 490.52 0 612.89 0C627.88 0 640 12.18 640 27.19C640 99.43 640 289 640 361.24C640 376.25 627.88 388.43 612.89 388.43C490.52 388.43 150.57 388.43 28.2 388.43C13.21 388.43 1.09 376.25 1.09 361.24Z" id="a1CQnjeNMt"></path><path d="M122.58 254.44C91.97 254.44 67.09 229.56 67.09 198.94C67.09 168.33 91.97 143.45 122.58 143.45C153.2 143.45 178.08 168.33 178.08 198.94C178.08 229.56 153.2 254.44 122.58 254.44Z" id="aapXUXEDj"></path><path d="M321.44 254.44C290.82 254.44 265.95 229.59 265.95 198.97C265.95 168.33 290.82 143.48 321.44 143.48C352.06 143.48 376.93 168.33 376.93 198.97C376.93 229.59 352.06 254.44 321.44 254.44Z" id="b23J92aIBO"></path><path d="M509.45 254.44C478.83 254.44 453.95 229.59 453.95 198.97C453.95 168.33 478.83 143.48 509.45 143.48C540.07 143.48 564.94 168.33 564.94 198.97C564.94 229.59 540.07 254.44 509.45 254.44Z" id="ifVjHoGlQ"></path></defs><g><g><g><g><use xlink:href="#f29bKkucGy" opacity="1" fill-opacity="0" stroke="#000000" stroke-width="0" stroke-opacity="1"></use></g></g><g><use xlink:href="#a1CQnjeNMt" opacity="1" fill="#ececec" fill-opacity="1"></use><g><use xlink:href="#a1CQnjeNMt" opacity="1" fill-opacity="0" stroke="#000000" stroke-width="1" stroke-opacity="0"></use></g></g><g><use xlink:href="#aapXUXEDj" opacity="1" fill="#bfc5d9" fill-opacity="1"></use><g><use xlink:href="#aapXUXEDj" opacity="1" fill-opacity="0" stroke="#000000" stroke-width="1" stroke-opacity="0"></use></g></g><g><use xlink:href="#b23J92aIBO" opacity="1" fill="#bfc5d9" fill-opacity="1"></use><g><use xlink:href="#b23J92aIBO" opacity="1" fill-opacity="0" stroke="#000000" stroke-width="1" stroke-opacity="0"></use></g></g><g><use xlink:href="#ifVjHoGlQ" opacity="1" fill="#bfc5d9" fill-opacity="1"></use><g><use xlink:href="#ifVjHoGlQ" opacity="1" fill-opacity="0" stroke="#000000" stroke-width="1" stroke-opacity="0"></use></g></g></g></g></svg>