<?xml version="1.0" standalone="no"?>
<!DOCTYPE svg PUBLIC "-//W3C//DTD SVG 20010904//EN"
 "http://www.w3.org/TR/2001/REC-SVG-20010904/DTD/svg10.dtd">
<svg version="1.0" xmlns="http://www.w3.org/2000/svg"
 width="92.000000pt" height="92.000000pt" viewBox="0 0 92.000000 92.000000"
 preserveAspectRatio="xMidYMid meet">

<g transform="translate(0.000000,92.000000) scale(0.100000,-0.100000)"
fill="#00ccff" stroke="none">
<path d="M226 905 c-74 -26 -126 -96 -126 -170 0 -101 108 -180 239 -174 35 2
56 -2 69 -14 26 -23 98 -47 144 -47 72 0 128 21 174 64 72 70 73 160 1 232
-48 47 -94 64 -181 64 -40 0 -65 5 -77 16 -46 41 -167 56 -243 29z m199 -51
c82 -43 97 -140 31 -201 -106 -97 -316 -44 -316 80 0 54 46 114 105 135 44 17
135 9 180 -14z m240 -60 c82 -43 97 -141 32 -201 -53 -48 -125 -64 -197 -43
-66 19 -67 24 -17 71 52 50 67 99 50 162 l-11 39 52 -4 c29 -2 70 -13 91 -24z"/>
<path d="M20 580 c-11 -11 -20 -29 -20 -40 0 -29 36 -60 70 -60 34 0 70 31 70
60 0 29 -36 60 -70 60 -17 0 -39 -9 -50 -20z m75 -40 c0 -18 -33 -26 -47 -12
-6 6 -7 15 -3 22 10 16 50 8 50 -10z"/>
<path d="M800 580 c-11 -11 -20 -29 -20 -40 0 -29 36 -60 70 -60 34 0 70 31
70 60 0 29 -36 60 -70 60 -17 0 -39 -9 -50 -20z m75 -40 c0 -18 -33 -26 -47
-12 -6 6 -7 15 -3 22 10 16 50 8 50 -10z"/>
<path d="M162 463 c-44 -22 -61 -58 -61 -132 1 -49 6 -70 25 -98 37 -55 32
-69 -36 -103 -44 -22 -65 -40 -77 -64 -33 -70 -54 -66 449 -64 449 3 453 3
456 24 5 33 -37 75 -105 106 -72 32 -77 45 -39 101 19 28 24 49 25 98 0 75 -8
92 -59 124 -46 29 -69 31 -116 9 -46 -22 -63 -58 -63 -133 1 -49 6 -70 25 -98
37 -55 32 -69 -36 -103 -32 -16 -65 -40 -71 -52 -17 -33 -17 -33 -41 -3 -12
15 -50 41 -85 57 -72 32 -77 45 -39 101 19 28 24 49 25 98 0 75 -8 92 -59 124
-46 29 -72 31 -118 8z m89 -40 c19 -9 36 -18 39 -20 7 -7 7 -123 0 -123 -10 0
-40 -74 -40 -98 0 -40 14 -54 86 -87 41 -19 74 -39 74 -44 0 -7 -60 -11 -181
-11 -205 0 -212 4 -108 60 56 31 64 39 67 68 3 30 -24 112 -37 112 -5 0 -7 86
-3 117 2 11 47 42 63 43 3 0 21 -7 40 -17z m460 0 c19 -9 36 -18 39 -20 7 -7
7 -123 0 -123 -10 0 -40 -74 -40 -98 0 -40 14 -54 86 -87 41 -19 74 -39 74
-44 0 -7 -60 -11 -181 -11 -205 0 -212 4 -108 60 56 31 64 39 67 68 3 30 -24
112 -37 112 -5 0 -7 86 -3 117 2 11 47 42 63 43 3 0 21 -7 40 -17z"/>
<path d="M4 426 c-10 -26 4 -48 28 -44 17 2 23 10 23 28 0 18 -6 26 -23 28
-13 2 -25 -3 -28 -12z"/>
<path d="M864 426 c-10 -26 4 -48 28 -44 17 2 23 10 23 28 0 18 -6 26 -23 28
-13 2 -25 -3 -28 -12z"/>
</g>
</svg>
