<?xml version="1.0" encoding="UTF-8"?>
<svg xmlns="http://www.w3.org/2000/svg" xmlns:xlink="http://www.w3.org/1999/xlink" width="80pt" height="80pt" viewBox="0 0 80 80" version="1.1">
<g id="surface284958">
<path style=" stroke:none;fill-rule:nonzero;fill:rgb(0%,80%,100%);fill-opacity:1;" d="M 50 7 C 37.308594 7 27 17.308594 27 30 C 27 35.09375 28.664062 39.800781 31.472656 43.613281 L 27.226562 47.859375 C 26.886719 47.734375 26.53125 47.660156 26.171875 47.660156 C 25.402344 47.660156 24.632812 47.953125 24.050781 48.535156 L 7.878906 64.707031 C 6.714844 65.871094 6.714844 67.785156 7.878906 68.949219 L 11.050781 72.121094 C 12.214844 73.285156 14.128906 73.285156 15.292969 72.121094 L 31.464844 55.949219 C 32.316406 55.097656 32.539062 53.84375 32.140625 52.773438 L 36.386719 48.527344 C 40.199219 51.335938 44.90625 53 50 53 C 62.691406 53 73 42.691406 73 30 C 73 17.308594 62.691406 7 50 7 Z M 50 9 C 61.609375 9 71 18.390625 71 30 C 71 41.609375 61.609375 51 50 51 C 38.390625 51 29 41.609375 29 30 C 29 18.390625 38.390625 9 50 9 Z M 50 11 C 49.449219 11 49 11.449219 49 12 C 49 12.550781 49.449219 13 50 13 C 50.550781 13 51 12.550781 51 12 C 51 11.449219 50.550781 11 50 11 Z M 45.339844 11.613281 C 44.789062 11.613281 44.339844 12.0625 44.339844 12.613281 C 44.339844 13.164062 44.789062 13.613281 45.339844 13.613281 C 45.890625 13.613281 46.339844 13.164062 46.339844 12.613281 C 46.339844 12.0625 45.890625 11.613281 45.339844 11.613281 Z M 54.65625 11.613281 C 54.105469 11.613281 53.65625 12.0625 53.65625 12.613281 C 53.65625 13.164062 54.105469 13.613281 54.65625 13.613281 C 55.207031 13.613281 55.65625 13.164062 55.65625 12.613281 C 55.65625 12.0625 55.207031 11.613281 54.65625 11.613281 Z M 40.996094 13.410156 C 40.445312 13.410156 39.996094 13.859375 39.996094 14.410156 C 39.996094 14.964844 40.445312 15.410156 40.996094 15.410156 C 41.550781 15.410156 41.996094 14.964844 41.996094 14.410156 C 41.996094 13.859375 41.550781 13.410156 40.996094 13.410156 Z M 59 13.410156 C 58.449219 13.410156 58 13.859375 58 14.410156 C 58 14.964844 58.449219 15.410156 59 15.410156 C 59.550781 15.410156 60 14.964844 60 14.410156 C 60 13.859375 59.550781 13.410156 59 13.410156 Z M 37.269531 16.269531 C 36.71875 16.269531 36.269531 16.71875 36.269531 17.269531 C 36.269531 17.824219 36.71875 18.269531 37.269531 18.269531 C 37.824219 18.269531 38.269531 17.824219 38.269531 17.269531 C 38.269531 16.71875 37.824219 16.269531 37.269531 16.269531 Z M 62.726562 16.269531 C 62.175781 16.269531 61.726562 16.71875 61.726562 17.269531 C 61.726562 17.824219 62.175781 18.269531 62.726562 18.269531 C 63.277344 18.269531 63.726562 17.824219 63.726562 17.269531 C 63.726562 16.71875 63.277344 16.269531 62.726562 16.269531 Z M 65.585938 20 C 65.035156 20 64.585938 20.449219 64.585938 21 C 64.585938 21.550781 65.035156 22 65.585938 22 C 66.136719 22 66.585938 21.550781 66.585938 21 C 66.585938 20.449219 66.136719 20 65.585938 20 Z M 34.410156 20.003906 C 33.859375 20.003906 33.410156 20.449219 33.410156 21.003906 C 33.410156 21.554688 33.859375 22.003906 34.410156 22.003906 C 34.960938 22.003906 35.410156 21.554688 35.410156 21.003906 C 35.410156 20.449219 34.960938 20.003906 34.410156 20.003906 Z M 43 23 C 41.355469 23 40 24.355469 40 26 C 40 27.644531 41.355469 29 43 29 C 44.644531 29 46 27.644531 46 26 C 46 24.355469 44.644531 23 43 23 Z M 57 23 C 55.355469 23 54 24.355469 54 26 C 54 27.644531 55.355469 29 57 29 C 58.644531 29 60 27.644531 60 26 C 60 24.355469 58.644531 23 57 23 Z M 32.613281 24.339844 C 32.058594 24.339844 31.613281 24.789062 31.613281 25.339844 C 31.613281 25.894531 32.058594 26.339844 32.613281 26.339844 C 33.164062 26.339844 33.613281 25.894531 33.613281 25.339844 C 33.613281 24.789062 33.164062 24.339844 32.613281 24.339844 Z M 67.386719 24.339844 C 66.832031 24.339844 66.386719 24.789062 66.386719 25.339844 C 66.386719 25.894531 66.832031 26.339844 67.386719 26.339844 C 67.9375 26.339844 68.386719 25.894531 68.386719 25.339844 C 68.386719 24.789062 67.9375 24.339844 67.386719 24.339844 Z M 43 25 C 43.5625 25 44 25.4375 44 26 C 44 26.5625 43.5625 27 43 27 C 42.4375 27 42 26.5625 42 26 C 42 25.4375 42.4375 25 43 25 Z M 57 25 C 57.5625 25 58 25.4375 58 26 C 58 26.5625 57.5625 27 57 27 C 56.4375 27 56 26.5625 56 26 C 56 25.4375 56.4375 25 57 25 Z M 32 29 C 31.449219 29 31 29.449219 31 30 C 31 30.550781 31.449219 31 32 31 C 32.550781 31 33 30.550781 33 30 C 33 29.449219 32.550781 29 32 29 Z M 68 29 C 67.449219 29 67 29.449219 67 30 C 67 30.550781 67.449219 31 68 31 C 68.550781 31 69 30.550781 69 30 C 69 29.449219 68.550781 29 68 29 Z M 32.613281 33.660156 C 32.058594 33.660156 31.613281 34.105469 31.613281 34.660156 C 31.613281 35.210938 32.058594 35.660156 32.613281 35.660156 C 33.164062 35.660156 33.613281 35.210938 33.613281 34.660156 C 33.613281 34.105469 33.164062 33.660156 32.613281 33.660156 Z M 67.386719 33.660156 C 66.832031 33.660156 66.386719 34.109375 66.386719 34.660156 C 66.386719 35.210938 66.832031 35.660156 67.386719 35.660156 C 67.9375 35.660156 68.386719 35.210938 68.386719 34.660156 C 68.386719 34.109375 67.9375 33.660156 67.386719 33.660156 Z M 50 34 C 46.335938 34 43.082031 35.769531 40.925781 38.359375 L 42.464844 39.640625 C 44.269531 37.464844 46.984375 36 50 36 C 53.015625 36 55.730469 37.464844 57.535156 39.640625 L 59.074219 38.359375 C 56.917969 35.769531 53.664062 34 50 34 Z M 34.410156 37.996094 C 33.859375 37.996094 33.410156 38.445312 33.410156 38.996094 C 33.410156 39.550781 33.859375 39.996094 34.410156 39.996094 C 34.960938 39.996094 35.410156 39.550781 35.410156 38.996094 C 35.410156 38.445312 34.960938 37.996094 34.410156 37.996094 Z M 65.589844 38.003906 C 65.035156 38.003906 64.589844 38.449219 64.589844 39.003906 C 64.589844 39.554688 65.035156 40.003906 65.589844 40.003906 C 66.140625 40.003906 66.589844 39.554688 66.589844 39.003906 C 66.589844 38.449219 66.140625 38.003906 65.589844 38.003906 Z M 37.269531 41.730469 C 36.71875 41.730469 36.269531 42.175781 36.269531 42.730469 C 36.269531 43.28125 36.71875 43.730469 37.269531 43.730469 C 37.824219 43.730469 38.269531 43.28125 38.269531 42.730469 C 38.269531 42.175781 37.824219 41.730469 37.269531 41.730469 Z M 62.726562 41.730469 C 62.175781 41.730469 61.726562 42.175781 61.726562 42.730469 C 61.726562 43.28125 62.175781 43.730469 62.726562 43.730469 C 63.277344 43.730469 63.726562 43.28125 63.726562 42.730469 C 63.726562 42.175781 63.277344 41.730469 62.726562 41.730469 Z M 58.996094 44.589844 C 58.445312 44.589844 57.996094 45.035156 57.996094 45.589844 C 57.996094 46.140625 58.445312 46.589844 58.996094 46.589844 C 59.550781 46.589844 59.996094 46.140625 59.996094 45.589844 C 59.996094 45.035156 59.550781 44.589844 58.996094 44.589844 Z M 40.996094 44.589844 C 40.445312 44.589844 39.996094 45.039062 39.996094 45.589844 C 39.996094 46.140625 40.445312 46.589844 40.996094 46.589844 C 41.550781 46.589844 41.996094 46.140625 41.996094 45.589844 C 41.996094 45.039062 41.550781 44.589844 40.996094 44.589844 Z M 32.734375 45.179688 C 33.386719 45.917969 34.082031 46.613281 34.820312 47.265625 L 30.921875 51.164062 L 28.835938 49.078125 Z M 45.339844 46.386719 C 44.789062 46.386719 44.339844 46.835938 44.339844 47.386719 C 44.339844 47.9375 44.789062 48.386719 45.339844 48.386719 C 45.890625 48.386719 46.339844 47.9375 46.339844 47.386719 C 46.339844 46.835938 45.890625 46.386719 45.339844 46.386719 Z M 54.65625 46.386719 C 54.105469 46.386719 53.65625 46.835938 53.65625 47.386719 C 53.65625 47.9375 54.105469 48.386719 54.65625 48.386719 C 55.207031 48.386719 55.65625 47.9375 55.65625 47.386719 C 55.65625 46.835938 55.207031 46.386719 54.65625 46.386719 Z M 50 47 C 49.449219 47 49 47.449219 49 48 C 49 48.550781 49.449219 49 50 49 C 50.550781 49 51 48.550781 51 48 C 51 47.449219 50.550781 47 50 47 Z M 26.171875 49.652344 C 26.425781 49.652344 26.675781 49.75 26.878906 49.949219 L 30.050781 53.121094 C 30.449219 53.519531 30.449219 54.136719 30.050781 54.535156 L 13.878906 70.707031 C 13.480469 71.105469 12.863281 71.105469 12.464844 70.707031 L 9.292969 67.535156 C 8.894531 67.136719 8.894531 66.519531 9.292969 66.121094 L 11 64.414062 L 13.292969 66.707031 L 14.707031 65.292969 L 12.414062 63 L 14 61.414062 L 16.292969 63.707031 L 17.707031 62.292969 L 15.414062 60 L 17 58.414062 L 19.292969 60.707031 L 20.707031 59.292969 L 18.414062 57 L 20 55.414062 L 22.292969 57.707031 L 23.707031 56.292969 L 21.414062 54 L 23 52.414062 L 25.292969 54.707031 L 26.707031 53.292969 L 24.414062 51 L 25.464844 49.949219 C 25.664062 49.75 25.917969 49.652344 26.171875 49.652344 Z M 26.171875 49.652344 "/>
</g>
</svg>
