<?xml version="1.0" standalone="no"?>
<!DOCTYPE svg PUBLIC "-//W3C//DTD SVG 20010904//EN"
 "http://www.w3.org/TR/2001/REC-SVG-20010904/DTD/svg10.dtd">
<svg version="1.0" xmlns="http://www.w3.org/2000/svg"
 width="100.000000pt" height="76.000000pt" viewBox="0 0 100.000000 76.000000"
 preserveAspectRatio="xMidYMid meet">

<g transform="translate(0.000000,76.000000) scale(0.100000,-0.100000)"
fill="#00ccff" stroke="none">
<path d="M458 750 c-44 -13 -93 -47 -107 -74 -11 -20 -19 -23 -46 -19 -46 7
-119 -27 -145 -69 -30 -50 -28 -160 5 -226 14 -28 25 -64 25 -81 0 -28 -6 -34
-67 -65 -82 -41 -112 -71 -120 -120 l-6 -36 72 0 71 0 0 -30 0 -30 360 0 360
0 0 30 c0 29 0 29 68 32 l67 3 -1 31 c-2 51 -31 82 -110 119 -68 33 -74 38
-74 66 0 17 11 53 25 81 48 96 28 243 -37 264 -13 4 -28 14 -34 22 -8 11 -22
14 -52 9 -38 -5 -45 -2 -76 29 -19 19 -41 34 -50 34 -8 0 -20 9 -26 20 -11 21
-51 25 -102 10z m72 -50 c6 -11 21 -20 34 -20 52 0 96 -104 66 -159 -8 -15 -8
-26 -1 -35 11 -13 4 -56 -10 -56 -4 0 -13 -18 -19 -40 -6 -21 -15 -42 -20 -45
-6 -3 -10 -31 -10 -61 0 -67 19 -89 110 -125 69 -27 125 -69 133 -99 5 -20 2
-20 -313 -20 -315 0 -318 0 -313 20 8 30 64 72 133 99 91 36 110 58 110 125 0
30 -4 57 -9 61 -5 3 -15 22 -22 43 -6 20 -17 40 -23 44 -17 11 -17 167 0 204
17 35 50 61 93 74 41 13 50 11 61 -10z m-222 -101 c8 -13 14 -51 14 -93 -1
-50 4 -78 16 -96 30 -46 52 -102 52 -135 0 -37 -14 -49 -102 -84 -31 -12 -74
-38 -96 -57 -34 -29 -48 -34 -91 -34 -28 0 -51 4 -51 9 0 18 35 44 95 71 33
15 66 34 73 43 22 26 26 83 8 108 -9 13 -16 31 -16 40 0 9 -6 21 -13 27 -7 7
-13 38 -15 78 -2 78 12 108 61 129 43 19 50 18 65 -6z m436 6 c3 -8 14 -15 25
-15 53 0 66 -126 23 -223 -22 -48 -28 -100 -16 -132 4 -9 39 -32 78 -51 108
-52 125 -84 45 -84 -43 0 -57 5 -91 34 -22 19 -70 47 -107 61 -36 15 -72 31
-78 37 -22 18 -14 78 20 146 29 58 34 78 35 146 1 80 8 96 43 96 9 0 19 -7 23
-15z"/>
</g>
</svg>
