<?xml version="1.0" standalone="no"?>
<!DOCTYPE svg PUBLIC "-//W3C//DTD SVG 20010904//EN"
        "http://www.w3.org/TR/2001/REC-SVG-20010904/DTD/svg10.dtd">
<svg version="1.0" xmlns="http://www.w3.org/2000/svg"
     width="200.000000pt" height="140.000000pt" viewBox="0 0 200.000000 140.000000"
     preserveAspectRatio="xMidYMid meet">

    <g transform="translate(0.000000,140.000000) scale(0.100000,-0.100000)"
        stroke="none">
        <path d="M0 1315 l0 -85 90 0 90 0 0 85 0 85 -90 0 -90 0 0 -85z"/>
        <path d="M480 1315 l0 -85 760 0 760 0 0 85 0 85 -760 0 -760 0 0 -85z"/>
        <path d="M0 695 l0 -85 90 0 90 0 0 85 0 85 -90 0 -90 0 0 -85z"/>
        <path d="M480 695 l0 -85 760 0 760 0 0 85 0 85 -760 0 -760 0 0 -85z"/>
        <path d="M0 85 l0 -85 90 0 90 0 0 85 0 85 -90 0 -90 0 0 -85z"/>
        <path d="M480 85 l0 -85 760 0 760 0 0 85 0 85 -760 0 -760 0 0 -85z"/>
    </g>
</svg>
