<?xml version="1.0" standalone="no"?>
<!DOCTYPE svg PUBLIC "-//W3C//DTD SVG 20010904//EN"
        "http://www.w3.org/TR/2001/REC-SVG-20010904/DTD/svg10.dtd">
<svg version="1.0" xmlns="http://www.w3.org/2000/svg"
     width="157.000000pt" height="157.000000pt" viewBox="0 0 157.000000 157.000000"
     preserveAspectRatio="xMidYMid meet">

    <g transform="translate(0.000000,157.000000) scale(0.100000,-0.100000)"
       fill="#049372" stroke="none">
        <path d="M670 1564 c-263 -51 -458 -191 -579 -414 -64 -120 -86 -212 -86 -365
0 -106 5 -145 23 -210 76 -264 283 -471 549 -547 111 -32 305 -32 416 0 266
76 473 283 549 547 33 114 33 306 0 420 -75 262 -283 471 -544 546 -72 20
-269 34 -328 23z m-27 -515 c44 -23 77 -63 83 -101 l7 -38 56 0 56 0 18 49
c25 70 64 96 142 95 65 0 111 -18 158 -63 66 -61 95 -176 59 -241 -20 -39 -89
-80 -133 -80 -24 0 -27 -4 -32 -54 -9 -93 -64 -173 -151 -219 -58 -31 -174
-31 -232 0 -86 46 -142 126 -151 218 l-6 53 -43 7 c-106 16 -156 130 -105 240
49 106 192 176 274 134z"/>
        <path d="M515 984 c-70 -36 -105 -89 -105 -159 0 -83 55 -111 157 -77 34 11
63 17 63 14 0 -4 -12 -25 -25 -47 -73 -119 35 -285 185 -285 145 0 250 155
195 287 -22 52 -20 54 31 33 65 -28 100 -26 135 9 75 75 -10 224 -135 238 -40
5 -48 2 -76 -25 -32 -33 -37 -59 -19 -111 6 -18 9 -35 6 -38 -4 -3 -24 2 -47
11 -56 22 -132 21 -181 -5 -23 -11 -43 -18 -45 -16 -3 2 0 16 6 31 5 15 10 45
10 67 0 77 -78 114 -155 73z"/>
    </g>
</svg>
