<?xml version="1.0" standalone="no"?>
<!DOCTYPE svg PUBLIC "-//W3C//DTD SVG 20010904//EN"
        "http://www.w3.org/TR/2001/REC-SVG-20010904/DTD/svg10.dtd">
<svg version="1.0" xmlns="http://www.w3.org/2000/svg"
     width="157.000000pt" height="157.000000pt" viewBox="0 0 157.000000 157.000000"
     preserveAspectRatio="xMidYMid meet">

    <g transform="translate(0.000000,157.000000) scale(0.100000,-0.100000)"
       fill="#f4b350" stroke="none">
        <path d="M670 1564 c-263 -51 -458 -191 -579 -414 -64 -120 -86 -212 -86 -365
0 -106 5 -145 23 -210 76 -264 283 -471 549 -547 111 -32 305 -32 416 0 266
76 473 283 549 547 33 114 33 306 0 420 -75 262 -283 471 -544 546 -72 20
-269 34 -328 23z m155 -515 c25 -6 63 -28 87 -48 58 -50 73 -55 95 -28 46 58
108 72 172 39 43 -21 70 -57 77 -103 5 -31 1 -41 -27 -73 -18 -21 -58 -50 -89
-66 -67 -34 -79 -47 -87 -94 -4 -28 -2 -37 11 -42 21 -8 46 -56 46 -89 0 -25
0 -25 -89 -25 -81 0 -90 2 -114 26 -23 23 -29 24 -64 15 -21 -6 -72 -11 -113
-11 -50 -1 -81 -6 -94 -15 -14 -10 -45 -15 -103 -15 -77 0 -83 1 -83 21 0 48
47 98 93 99 31 0 33 -7 11 -38 -15 -22 -14 -22 21 -22 22 0 38 6 41 15 5 12
26 15 103 15 85 1 119 7 182 34 11 5 19 -3 30 -26 12 -29 19 -33 58 -36 l43
-3 -21 27 c-23 29 -27 68 -10 111 15 41 47 72 104 100 62 31 95 61 95 85 0 32
-45 68 -84 68 -37 0 -39 -2 -120 -116 -50 -70 -112 -115 -199 -143 -70 -23
-177 -41 -253 -41 -36 0 -59 -6 -77 -21 -21 -16 -31 -18 -47 -9 -25 13 -25 22
0 45 30 27 60 97 60 141 0 58 46 143 95 176 41 28 128 56 178 57 16 1 48 -4
72 -10z m309 -105 c20 -8 21 -43 1 -50 -24 -10 -47 14 -34 37 11 21 11 21 33
13z"/>
        <path d="M695 991 c-68 -17 -124 -61 -144 -114 -6 -16 -11 -52 -11 -82 0 -33
-5 -55 -12 -58 -27 -11 91 -6 163 7 98 18 156 44 213 96 51 47 58 70 23 70
-16 0 -28 9 -35 25 -23 49 -116 75 -197 56z"/>
    </g>
</svg>
