<?xml version="1.0" standalone="no"?>
<!DOCTYPE svg PUBLIC "-//W3C//DTD SVG 20010904//EN"
        "http://www.w3.org/TR/2001/REC-SVG-20010904/DTD/svg10.dtd">
<svg version="1.0" xmlns="http://www.w3.org/2000/svg"
     width="157.000000pt" height="157.000000pt" viewBox="0 0 157.000000 157.000000"
     preserveAspectRatio="xMidYMid meet">

    <g transform="translate(0.000000,157.000000) scale(0.100000,-0.100000)"
       fill="#66cc99" stroke="none">
        <path d="M665 1555 c-194 -32 -358 -125 -479 -271 -354 -429 -165 -1073 364
-1242 299 -96 634 2 834 244 241 293 241 705 0 998 -125 152 -303 248 -507
276 -94 12 -109 12 -212 -5z m255 -355 c8 0 43 2 77 6 56 6 69 3 119 -21 106
-52 144 -138 144 -324 -1 -257 -57 -391 -162 -391 -47 0 -89 20 -117 56 -26
33 -27 52 -3 71 43 34 50 34 80 2 33 -36 47 -33 57 11 11 51 -11 96 -59 119
-23 12 -47 21 -52 21 -21 0 -65 -163 -76 -282 l-11 -118 -88 0 -87 0 -6 38
c-3 20 -8 70 -12 110 l-6 72 -58 0 -58 0 -6 -72 c-4 -40 -9 -90 -12 -110 l-6
-38 -88 0 -89 0 -5 43 c-3 23 -9 87 -15 142 -5 55 -17 134 -26 175 -23 104
-17 247 14 315 54 122 176 184 329 169 32 -3 68 -1 82 5 14 6 48 8 75 6 28 -3
57 -5 65 -5z"/>
        <path d="M800 1152 c-24 -11 -43 -32 -59 -65 -22 -46 -23 -52 -12 -119 14 -84
49 -163 90 -202 l30 -29 19 44 c10 24 27 65 37 91 18 48 42 68 51 43 12 -30
-70 -225 -94 -225 -27 0 -78 42 -111 90 -67 99 -91 256 -51 334 l19 39 -79 -5
c-146 -9 -225 -76 -249 -214 -13 -73 -9 -133 19 -264 10 -47 21 -129 25 -182
6 -91 14 -114 30 -87 4 5 21 9 38 7 l32 -3 8 65 c4 36 10 83 13 106 l5 41 99
0 99 1 5 -37 c3 -20 8 -71 12 -113 6 -73 14 -92 29 -67 4 5 21 9 38 7 l32 -3
7 87 c7 85 68 301 89 313 5 3 39 -7 76 -22 85 -36 113 -72 113 -148 0 -93 -61
-134 -124 -84 -18 14 -24 16 -20 5 3 -8 21 -22 40 -31 71 -33 113 8 140 136
21 99 23 289 5 353 -35 119 -172 189 -262 133 -12 -8 -26 -6 -52 6 -43 21 -44
21 -87 -1z m340 -202 c0 -13 -7 -20 -20 -20 -13 0 -20 7 -20 20 0 13 7 20 20
20 13 0 20 -7 20 -20z"/>
    </g>
</svg>
