<?xml version="1.0" standalone="no"?>
<!DOCTYPE svg PUBLIC "-//W3C//DTD SVG 20010904//EN"
        "http://www.w3.org/TR/2001/REC-SVG-20010904/DTD/svg10.dtd">
<svg version="1.0" xmlns="http://www.w3.org/2000/svg"
     width="157.000000pt" height="157.000000pt" viewBox="0 0 157.000000 157.000000"
     preserveAspectRatio="xMidYMid meet">

    <g transform="translate(0.000000,157.000000) scale(0.100000,-0.100000)"
       fill="#9a12b3" stroke="none">
        <path d="M630 1555 c-244 -52 -437 -201 -546 -420 -64 -130 -79 -195 -79 -350
0 -155 15 -220 79 -350 79 -159 192 -272 351 -351 130 -64 195 -79 350 -79
155 0 220 15 350 79 159 79 272 192 351 351 64 130 79 195 79 350 0 155 -15
220 -79 350 -79 159 -192 272 -351 350 -49 25 -117 52 -150 61 -83 22 -273 27
-355 9z m292 -275 c60 -17 120 -69 151 -130 25 -49 28 -63 25 -135 -3 -65 -9
-93 -36 -149 -38 -82 -41 -128 -10 -150 43 -31 101 -19 123 25 29 55 15 95
-24 70 -43 -27 -56 35 -15 68 31 25 55 26 92 7 40 -21 57 -60 57 -131 0 -116
-78 -197 -203 -212 -29 -3 -52 -9 -52 -13 0 -9 51 -56 77 -69 40 -20 74 -13
109 24 18 19 40 35 48 35 38 0 26 -98 -17 -137 -56 -52 -168 -54 -267 -6 -31
15 -81 54 -116 90 -34 35 -67 63 -73 63 -7 0 -40 -28 -74 -63 -36 -36 -86 -75
-118 -91 -98 -48 -210 -45 -266 7 -43 39 -55 137 -17 137 8 0 30 -16 48 -35
43 -46 80 -46 137 -3 59 46 60 58 7 58 -60 0 -139 41 -171 88 -70 104 -58 218
28 259 33 16 37 16 70 0 45 -22 65 -61 43 -84 -15 -14 -18 -14 -39 0 -50 35
-69 -40 -23 -87 31 -30 77 -35 113 -10 29 21 25 62 -15 154 -32 75 -44 197
-25 262 23 77 110 148 204 168 50 11 178 5 229 -10z"/>
        <path d="M705 1254 c-127 -32 -189 -105 -189 -224 0 -69 11 -109 54 -205 53
-116 62 -177 39 -258 -19 -69 -119 -157 -179 -157 -11 0 -37 7 -56 15 -47 19
-42 -3 7 -27 87 -45 202 -8 311 99 90 89 106 89 196 1 37 -36 87 -76 111 -88
79 -39 197 -36 232 6 18 22 6 26 -30 8 -64 -32 -156 8 -202 89 -21 37 -24 53
-23 147 0 99 2 110 38 190 51 116 60 158 46 223 -15 72 -48 117 -110 151 -44
24 -66 29 -139 32 -47 2 -95 1 -106 -2z m33 -246 c16 -16 15 -60 -1 -82 -29
-40 -71 20 -48 70 12 26 30 31 49 12z m153 -12 c23 -50 -19 -110 -48 -70 -16
22 -17 66 -1 82 19 19 37 14 49 -12z"/>
        <path d="M372 853 c-20 -8 -42 -59 -42 -95 1 -48 33 -111 72 -142 36 -27 135
-53 162 -43 12 5 16 21 16 61 l0 54 -37 -19 c-71 -36 -147 -13 -180 56 -22 46
-9 104 27 122 24 12 9 17 -18 6z"/>
        <path d="M1221 828 c25 -59 -21 -148 -86 -164 -23 -6 -64 3 -112 22 -10 4 -13
-9 -13 -50 l0 -56 45 0 c55 0 110 22 148 57 48 47 63 152 27 194 l-20 24 11
-27z"/>
    </g>
</svg>
