<?xml version="1.0" standalone="no"?>
<!DOCTYPE svg PUBLIC "-//W3C//DTD SVG 20010904//EN"
        "http://www.w3.org/TR/2001/REC-SVG-20010904/DTD/svg10.dtd">
<svg version="1.0" xmlns="http://www.w3.org/2000/svg"
     width="157.000000pt" height="157.000000pt" viewBox="0 0 157.000000 157.000000"
     preserveAspectRatio="xMidYMid meet">

    <g transform="translate(0.000000,157.000000) scale(0.100000,-0.100000)"
       fill="#e67e22" stroke="none">
        <path d="M675 1561 c-182 -30 -335 -110 -458 -240 -285 -303 -285 -769 0
-1072 154 -163 340 -242 568 -242 228 0 414 79 568 242 410 435 202 1144 -380
1295 -75 20 -228 28 -298 17z m386 -388 c151 -70 216 -180 207 -347 -5 -97
-29 -156 -89 -221 -55 -59 -58 -61 -279 -134 -196 -65 -277 -105 -304 -152 -9
-16 -23 -29 -31 -29 -23 0 -102 98 -119 147 -22 64 -20 109 8 168 27 57 71
102 136 139 l45 26 -35 -1 c-43 0 -105 -21 -131 -45 -18 -16 -21 -16 -35 -2
-21 20 -30 99 -15 127 9 16 21 21 56 21 50 0 75 8 75 22 0 7 -21 9 -60 5 -71
-8 -80 1 -78 82 2 64 28 91 91 91 30 0 48 7 68 26 19 18 42 28 74 31 27 4 51
13 58 23 31 43 93 60 203 56 77 -3 102 -8 155 -33z"/>
        <path d="M806 1159 c-21 -5 -54 -23 -73 -39 -19 -17 -46 -30 -61 -31 -15 0
-36 -4 -47 -9 -13 -6 8 -9 64 -9 75 -1 88 2 118 25 42 32 94 54 130 55 25 0
26 1 8 9 -26 11 -89 11 -139 -1z"/>
        <path d="M885 1091 l-40 -18 50 -7 c113 -17 198 -80 223 -165 26 -85 7 -222
-41 -300 -22 -37 -16 -36 41 6 71 53 120 179 107 276 -8 62 -43 142 -77 179
-47 49 -185 65 -263 29z"/>
        <path d="M490 1005 c0 -14 -8 -29 -20 -35 -35 -19 -22 -30 34 -30 60 0 86 -16
86 -54 0 -33 -25 -50 -84 -56 -47 -5 -51 -7 -54 -32 -4 -33 0 -34 34 -11 17
11 57 18 124 22 118 7 129 14 137 95 5 50 9 59 34 72 17 8 29 23 29 34 0 18
-7 20 -68 20 -56 0 -69 -3 -80 -20 -7 -11 -21 -20 -32 -20 -11 0 -25 9 -32 20
-10 15 -24 20 -60 20 -44 0 -48 -2 -48 -25z"/>
        <path d="M925 977 c45 -44 65 -94 65 -159 0 -51 -13 -82 -69 -157 -44 -61 -71
-116 -71 -147 0 -18 116 19 145 46 82 77 118 267 69 361 -17 34 -67 72 -113
88 -65 21 -71 14 -26 -32z"/>
        <path d="M847 974 c-3 -3 1 -21 9 -39 36 -87 6 -165 -102 -262 -83 -75 -111
-127 -100 -188 4 -20 12 -38 19 -41 18 -6 132 43 134 58 10 71 21 98 78 183
70 104 76 127 51 198 -19 53 -72 107 -89 91z"/>
        <path d="M797 934 c-4 -4 -7 -20 -7 -35 0 -71 -36 -115 -135 -167 -177 -93
-226 -215 -135 -340 28 -39 50 -54 50 -33 0 5 15 19 34 32 33 22 34 24 20 51
-20 39 -17 105 7 154 12 25 51 70 91 106 69 61 108 120 107 163 0 29 -23 78
-32 69z"/>
    </g>
</svg>
