<?xml version="1.0" standalone="no"?>
<!DOCTYPE svg PUBLIC "-//W3C//DTD SVG 20010904//EN"
        "http://www.w3.org/TR/2001/REC-SVG-20010904/DTD/svg10.dtd">
<svg version="1.0" xmlns="http://www.w3.org/2000/svg"
     width="157.000000pt" height="157.000000pt" viewBox="0 0 157.000000 157.000000"
     preserveAspectRatio="xMidYMid meet">

    <g transform="translate(0.000000,157.000000) scale(0.100000,-0.100000)"
       fill="#d35400" stroke="none">
        <path d="M651 1559 c-163 -29 -294 -100 -421 -228 -82 -82 -103 -110 -142
-191 -68 -137 -82 -200 -82 -355 0 -155 14 -218 81 -355 68 -138 205 -275 343
-343 137 -67 200 -81 355 -81 155 0 218 14 355 81 82 41 108 60 196 147 87 88
106 114 147 196 67 137 81 200 81 355 0 155 -14 218 -81 355 -41 82 -60 108
-147 196 -88 87 -114 106 -196 147 -52 25 -122 53 -155 62 -74 19 -261 27
-334 14z m280 -482 c120 -45 184 -99 233 -196 23 -45 86 -111 106 -111 15 0
22 -38 9 -61 -37 -71 -167 -177 -261 -215 -83 -34 -213 -64 -279 -64 -69 0
-150 23 -185 53 l-26 23 21 39 c25 47 27 92 5 123 -20 29 -36 18 -70 -50 -13
-26 -28 -48 -33 -48 -29 0 -81 115 -81 180 0 65 52 180 81 180 5 0 20 -22 33
-48 37 -73 49 -79 80 -42 36 44 35 89 -5 135 -26 29 -29 38 -19 50 17 20 75
55 119 72 55 21 191 10 272 -20z"/>
        <path d="M680 1061 c-36 -11 -90 -40 -90 -49 0 -4 9 -20 20 -37 11 -16 20 -38
20 -47 0 -14 15 -6 62 32 34 27 82 57 107 66 25 9 53 19 61 22 42 15 -131 28
-180 13z"/>
        <path d="M834 996 c-60 -19 -123 -66 -201 -151 -43 -46 -77 -75 -90 -75 -22 0
-59 30 -84 70 l-16 24 -14 -24 c-7 -14 -13 -54 -13 -90 0 -36 6 -76 13 -90
l14 -24 16 24 c26 40 62 70 85 70 13 0 47 -29 94 -80 123 -134 203 -163 338
-121 107 33 105 27 55 124 l-44 85 23 46 c24 50 62 86 91 86 25 0 24 7 -7 52
-52 74 -160 105 -260 74z"/>
        <path d="M1066 798 c-13 -18 -26 -40 -28 -48 -3 -16 62 -158 73 -159 3 -1 36
31 74 70 l68 70 -24 16 c-13 9 -41 31 -62 50 -47 41 -69 42 -101 1z m80 -19
c10 -17 -13 -36 -27 -22 -12 12 -4 33 11 33 5 0 12 -5 16 -11z"/>
        <path d="M601 572 c-7 -20 -15 -42 -17 -49 -9 -21 57 -45 138 -50 43 -3 78 -3
78 0 0 3 -19 15 -42 25 -24 10 -66 40 -94 65 l-51 46 -12 -37z"/>
    </g>
</svg>
