<?xml version="1.0" standalone="no"?>
<!DOCTYPE svg PUBLIC "-//W3C//DTD SVG 20010904//EN"
        "http://www.w3.org/TR/2001/REC-SVG-20010904/DTD/svg10.dtd">
<svg version="1.0" xmlns="http://www.w3.org/2000/svg"
     width="157.000000pt" height="157.000000pt" viewBox="0 0 157.000000 157.000000"
     preserveAspectRatio="xMidYMid meet">

    <g transform="translate(0.000000,157.000000) scale(0.100000,-0.100000)"
       fill="#85cb81" stroke="none">
        <path d="M670 1564 c-263 -51 -458 -191 -579 -414 -64 -120 -86 -212 -86 -365
0 -106 5 -145 23 -210 76 -264 283 -471 549 -547 111 -32 305 -32 416 0 266
76 473 283 549 547 33 114 33 306 0 420 -75 262 -283 471 -544 546 -72 20
-269 34 -328 23z m487 -294 c17 -10 36 -28 42 -39 15 -27 -7 -132 -31 -149
-10 -7 -18 -24 -18 -38 0 -21 -4 -24 -20 -19 -29 9 -51 -12 -44 -41 6 -25 -9
-33 -22 -12 -13 20 -34 -23 -34 -71 0 -42 -1 -44 -17 -29 -15 16 -18 15 -40
-14 -13 -18 -23 -39 -23 -47 0 -11 -3 -12 -12 -3 -14 14 -68 -21 -68 -44 0
-10 -7 -13 -24 -8 -24 6 -56 -16 -56 -39 0 -7 -4 -6 -10 3 -8 12 -24 0 -87
-63 -85 -85 -81 -86 52 -19 44 22 104 45 133 52 32 7 52 17 52 26 0 16 16 19
25 4 8 -13 45 -13 45 1 0 5 5 7 10 4 6 -4 24 -4 40 0 21 5 30 12 30 27 0 17 2
18 15 8 13 -10 19 -9 36 5 11 11 17 25 15 32 -3 8 2 13 14 13 11 0 28 8 38 18
12 12 27 16 56 12 36 -4 41 -9 49 -40 22 -84 -37 -155 -173 -210 -143 -56
-176 -77 -252 -155 -100 -105 -172 -140 -283 -140 -62 0 -89 5 -120 22 -86 46
-134 122 -156 247 -14 82 -7 142 25 211 12 28 29 74 36 103 14 60 54 107 97
115 15 3 48 1 73 -5 41 -9 53 -7 122 21 101 43 244 138 324 217 73 72 103 80
161 44z"/>
        <path d="M1056 1228 c-36 -52 -215 -182 -322 -234 -35 -17 -51 -30 -43 -34 6
-5 9 -15 6 -23 -7 -18 -64 -14 -138 9 -82 26 -122 1 -145 -88 -7 -29 -25 -82
-40 -118 -23 -56 -26 -73 -20 -132 13 -140 78 -244 168 -269 57 -15 147 -6
202 20 24 12 83 61 132 109 77 76 100 93 169 121 165 67 204 89 225 123 11 18
19 44 18 58 -5 42 -38 36 -101 -19 -62 -54 -93 -66 -247 -95 -56 -10 -115 -30
-179 -61 -52 -26 -108 -49 -125 -52 -70 -11 -144 35 -81 51 42 11 99 53 145
107 31 37 63 60 116 85 89 43 167 111 199 174 13 25 45 64 72 86 66 53 81 72
94 119 10 37 9 41 -16 62 -33 29 -69 29 -89 1z m69 -18 c7 -11 -42 -37 -51
-27 -4 3 -4 13 -1 22 7 17 42 21 52 5z m-581 -296 c18 -7 20 -22 7 -43 -7 -11
-14 -10 -37 5 -22 15 -27 16 -22 4 18 -49 19 -60 4 -60 -25 0 -47 30 -40 54
11 38 48 55 88 40z"/>
    </g>
</svg>
