<?xml version="1.0" standalone="no"?>
<!DOCTYPE svg PUBLIC "-//W3C//DTD SVG 20010904//EN"
        "http://www.w3.org/TR/2001/REC-SVG-20010904/DTD/svg10.dtd">
<svg version="1.0" xmlns="http://www.w3.org/2000/svg"
     width="157.000000pt" height="157.000000pt" viewBox="0 0 157.000000 157.000000"
     preserveAspectRatio="xMidYMid meet">

    <g transform="translate(0.000000,157.000000) scale(0.100000,-0.100000)"
       fill="#22313f" stroke="none">
        <path d="M641 1560 c-297 -63 -521 -268 -613 -560 -19 -64 -23 -96 -23 -215 0
-119 4 -151 23 -215 85 -269 272 -457 542 -542 64 -19 96 -23 215 -23 119 0
151 4 215 23 270 85 457 273 542 542 19 64 23 96 23 215 0 119 -4 151 -23 215
-85 268 -272 456 -537 540 -79 25 -286 36 -364 20z m284 -435 c20 -8 44 -29
56 -50 26 -44 46 -55 98 -55 45 0 51 -11 26 -47 -17 -24 -71 -43 -122 -43 -26
0 -34 -5 -39 -25 -3 -14 0 -36 9 -52 78 -143 79 -147 73 -196 -3 -27 -15 -64
-26 -82 -23 -38 -108 -85 -152 -85 -17 0 -31 -7 -38 -20 -10 -19 -8 -20 45
-20 54 0 55 0 55 -30 l0 -30 -105 0 c-104 0 -105 0 -105 24 0 15 11 32 27 44
l28 20 -40 7 c-60 10 -104 25 -165 55 -52 26 -170 115 -170 129 0 14 42 33 52
23 6 -6 26 -8 45 -5 25 4 37 1 47 -12 10 -14 23 -17 65 -13 62 6 119 42 163
103 40 57 46 103 19 164 -40 93 -20 165 53 197 40 17 59 17 101 -1z"/>
        <path d="M821 1054 c-26 -33 -26 -38 -1 -93 34 -74 35 -112 8 -173 -46 -100
-119 -160 -222 -183 l-51 -12 60 -22 c128 -49 270 -37 326 27 28 31 31 40 26
81 -3 29 -18 68 -41 105 -19 33 -38 74 -42 91 -6 34 12 81 40 104 24 20 20 67
-6 85 -34 24 -73 20 -97 -10z m84 -34 c0 -8 -8 -16 -17 -18 -13 -2 -18 3 -18
18 0 15 5 20 18 18 9 -2 17 -10 17 -18z"/>
    </g>
</svg>
