<?xml version="1.0" standalone="no"?>
<!DOCTYPE svg PUBLIC "-//W3C//DTD SVG 20010904//EN"
        "http://www.w3.org/TR/2001/REC-SVG-20010904/DTD/svg10.dtd">
<svg version="1.0" xmlns="http://www.w3.org/2000/svg"
     width="157.000000pt" height="157.000000pt" viewBox="0 0 157.000000 157.000000"
     preserveAspectRatio="xMidYMid meet">

    <g transform="translate(0.000000,157.000000) scale(0.100000,-0.100000)"
       fill="#336e7b" stroke="none">
        <path d="M630 1555 c-295 -63 -528 -284 -607 -575 -24 -90 -24 -300 0 -390 74
-274 293 -493 567 -567 90 -24 300 -24 390 0 274 74 493 293 567 567 24 90 24
300 0 390 -73 271 -293 493 -562 566 -83 22 -273 27 -355 9z m445 -330 c6 -48
11 -58 37 -71 16 -8 33 -25 39 -37 6 -14 31 -31 62 -43 46 -17 52 -23 55 -51
4 -44 -26 -63 -100 -63 -65 0 -57 13 -82 -126 -18 -101 -44 -153 -96 -195
l-40 -32 0 -75 c0 -62 3 -77 20 -90 11 -10 23 -32 26 -49 l7 -33 -66 0 c-59 0
-68 3 -86 26 -17 22 -21 41 -21 110 l0 83 -33 6 c-68 13 -87 4 -138 -63 -48
-62 -48 -63 -29 -82 11 -11 20 -33 20 -50 0 -29 -1 -30 -48 -30 -70 0 -86 16
-92 90 l-5 62 -27 -27 c-27 -27 -27 -27 -8 -48 11 -11 20 -33 20 -49 0 -27 -2
-28 -50 -28 -72 0 -90 21 -90 103 0 35 5 68 10 73 7 7 7 27 -1 62 -15 65 -1
118 42 162 41 40 77 58 239 116 74 26 149 57 167 68 18 12 78 88 140 178 59
87 111 157 115 158 4 0 10 -25 13 -55z"/>
        <path d="M951 1059 c-49 -71 -98 -130 -120 -144 -20 -13 -97 -46 -171 -73 -75
-27 -145 -54 -158 -61 -30 -16 -48 -56 -55 -123 -3 -31 -17 -80 -31 -108 -16
-32 -26 -68 -26 -96 0 -47 12 -60 47 -51 16 4 15 6 -4 12 -16 5 -23 15 -23 33
0 20 22 47 88 110 l87 83 143 -12 142 -12 0 -104 c0 -113 3 -118 57 -110 27 4
27 5 6 12 -22 7 -23 12 -23 116 0 85 3 109 14 109 7 0 34 22 58 48 49 52 57
77 81 235 l11 77 78 0 c61 0 78 3 78 14 0 9 -21 22 -54 32 -46 14 -56 22 -58
43 -2 19 -11 27 -35 33 -26 7 -33 14 -33 33 0 14 -3 25 -7 25 -5 0 -46 -54
-92 -121z"/>
        <path d="M398 687 c-5 -10 -8 -33 -8 -50 1 -27 2 -29 11 -14 6 9 9 32 7 50 -2
25 -5 28 -10 14z"/>
        <path d="M570 558 c-24 -52 -27 -146 -6 -154 8 -3 23 -4 33 -1 16 4 15 6 -4
12 -35 11 -28 46 22 114 25 34 45 63 45 66 0 3 -16 5 -35 5 -33 0 -38 -4 -55
-42z"/>
    </g>
</svg>
