<?xml version="1.0" standalone="no"?>
<!DOCTYPE svg PUBLIC "-//W3C//DTD SVG 20010904//EN"
        "http://www.w3.org/TR/2001/REC-SVG-20010904/DTD/svg10.dtd">
<svg version="1.0" xmlns="http://www.w3.org/2000/svg"
     width="157.000000pt" height="157.000000pt" viewBox="0 0 157.000000 157.000000"
     preserveAspectRatio="xMidYMid meet">

    <g transform="translate(0.000000,157.000000) scale(0.100000,-0.100000)"
       fill="#3a539b" stroke="none">
        <path d="M630 1555 c-244 -52 -437 -201 -546 -420 -64 -130 -79 -195 -79 -350
0 -155 15 -220 79 -350 79 -159 192 -272 351 -351 130 -64 195 -79 350 -79
155 0 220 15 350 79 159 79 272 192 351 351 64 130 79 195 79 350 0 155 -15
220 -79 350 -79 159 -192 272 -351 350 -49 25 -117 52 -150 61 -83 22 -273 27
-355 9z m121 -435 c25 -14 24 -22 -11 -72 -41 -59 -47 -103 -19 -148 20 -32
23 -34 33 -16 22 37 68 86 82 86 8 0 17 -13 20 -29 8 -37 44 -55 79 -39 14 6
28 8 32 4 7 -7 -7 -86 -22 -118 -6 -15 -2 -18 30 -18 50 0 99 49 116 113 15
60 34 61 87 3 101 -109 137 -275 89 -410 -17 -51 -32 -55 -52 -17 -8 17 -27
38 -41 47 -35 24 -109 21 -144 -4 -27 -20 -27 -20 -58 0 -22 14 -40 18 -59 13
-31 -8 -93 -67 -93 -89 0 -24 -26 -19 -44 9 -22 33 -65 33 -96 0 -38 -40 -51
-33 -49 26 3 58 -14 79 -63 79 -32 0 -36 15 -11 43 11 11 18 35 18 59 0 31 -6
45 -28 64 -16 13 -37 24 -48 24 -16 0 -19 7 -19 56 0 51 -3 59 -35 91 -34 34
-38 35 -90 30 -30 -3 -57 -1 -61 4 -10 16 64 105 119 143 30 21 81 46 113 56
65 21 194 26 225 10z"/>
        <path d="M602 1090 c-69 -10 -168 -59 -211 -104 l-35 -36 26 0 c60 0 138 -85
138 -150 0 -32 4 -39 30 -50 49 -20 76 -95 56 -157 -4 -14 2 -22 25 -32 20 -9
32 -22 36 -42 5 -27 7 -29 45 -23 25 4 48 2 65 -7 22 -12 27 -11 39 5 25 35
68 56 114 56 26 0 51 -5 57 -11 8 -8 19 -6 41 5 48 25 122 21 167 -9 20 -15
40 -23 43 -20 3 3 8 35 10 71 5 81 -24 178 -75 248 l-36 50 -23 -50 c-41 -85
-106 -119 -185 -95 -41 12 -52 38 -25 60 19 16 27 51 12 51 -7 0 -34 11 -59
24 -50 27 -60 23 -72 -27 -9 -35 -26 -34 -70 4 -60 53 -65 121 -16 205 13 22
16 34 8 34 -7 0 -21 2 -32 4 -11 2 -44 0 -73 -4z"/>
    </g>
</svg>
