<?xml version="1.0" standalone="no"?>
<!DOCTYPE svg PUBLIC "-//W3C//DTD SVG 20010904//EN"
        "http://www.w3.org/TR/2001/REC-SVG-20010904/DTD/svg10.dtd">
<svg version="1.0" xmlns="http://www.w3.org/2000/svg"
     width="157.000000pt" height="157.000000pt" viewBox="0 0 157.000000 157.000000"
     preserveAspectRatio="xMidYMid meet">

    <g transform="translate(0.000000,157.000000) scale(0.100000,-0.100000)"
       fill="#bfbfbf" stroke="none">
        <path d="M670 1564 c-263 -51 -458 -191 -579 -414 -64 -120 -86 -212 -86 -365
0 -106 5 -145 23 -210 76 -264 283 -471 549 -547 111 -32 305 -32 416 0 266
76 473 283 549 547 33 114 33 306 0 420 -75 262 -283 471 -544 546 -72 20
-269 34 -328 23z m-173 -435 c72 -42 206 -176 253 -252 19 -31 37 -57 40 -57
3 0 21 26 40 57 46 75 180 209 253 252 32 19 77 36 102 38 39 5 47 2 76 -26
l32 -32 -6 -127 c-11 -209 -37 -274 -128 -317 -47 -21 -49 -24 -31 -36 29 -21
62 -80 62 -112 0 -38 -43 -119 -85 -161 -50 -50 -90 -69 -131 -62 -40 8 -131
88 -159 140 -11 20 -22 36 -25 36 -3 0 -14 -16 -25 -36 -28 -53 -119 -132
-161 -140 -48 -9 -115 34 -166 107 -51 72 -59 124 -28 176 12 21 31 44 41 51
18 13 16 15 -33 40 -92 47 -115 107 -125 319 l-6 122 32 32 c29 28 37 31 76
26 25 -2 70 -19 102 -38z"/>
        <path d="M344 1113 c-15 -15 -16 -33 -11 -143 7 -143 17 -187 54 -231 34 -40
61 -50 158 -58 63 -5 80 -10 83 -22 2 -13 -8 -18 -45 -24 -98 -14 -153 -57
-153 -119 0 -59 87 -167 145 -182 46 -11 126 61 176 158 16 32 34 58 39 58 5
0 23 -27 40 -59 32 -65 109 -148 145 -157 42 -10 108 39 154 116 26 44 26 76
1 118 -23 37 -61 57 -133 67 -37 6 -47 11 -45 24 3 13 20 17 83 22 87 6 132
24 164 65 31 40 41 86 48 224 7 140 -1 160 -56 160 -39 0 -136 -61 -210 -133
-65 -63 -157 -191 -167 -234 -8 -30 -40 -30 -48 0 -10 43 -102 171 -167 234
-74 72 -171 133 -210 133 -15 0 -35 -8 -45 -17z"/>
    </g>
</svg>
