<?xml version="1.0" standalone="no"?>
<!DOCTYPE svg PUBLIC "-//W3C//DTD SVG 20010904//EN"
        "http://www.w3.org/TR/2001/REC-SVG-20010904/DTD/svg10.dtd">
<svg version="1.0" xmlns="http://www.w3.org/2000/svg"
     width="157.000000pt" height="157.000000pt" viewBox="0 0 157.000000 157.000000"
     preserveAspectRatio="xMidYMid meet">

    <g transform="translate(0.000000,157.000000) scale(0.100000,-0.100000)"
       fill="#f39c12" stroke="none">
        <path d="M687 1559 c-165 -22 -328 -102 -447 -219 -312 -306 -312 -804 0
-1110 303 -298 787 -298 1090 0 330 324 307 862 -49 1157 -159 131 -394 199
-594 172z m-72 -431 c4 -24 17 -67 30 -96 l24 -52 25 25 c15 14 26 29 26 33 0
4 5 24 11 45 12 46 57 77 110 77 33 0 37 -3 43 -31 3 -17 6 -48 6 -68 0 -42
18 -111 28 -111 4 0 23 16 41 36 19 20 45 40 58 45 86 33 165 -29 149 -116 -5
-27 -2 -44 13 -69 12 -18 21 -36 21 -40 0 -3 -20 -6 -44 -6 l-44 0 5 -74 c5
-64 3 -81 -17 -121 -26 -54 -83 -96 -167 -122 l-53 -17 0 -57 0 -57 -52 -13
c-79 -21 -241 -18 -305 4 -29 10 -53 21 -53 23 0 3 36 52 80 111 l80 106 -37
17 c-50 23 -73 49 -80 96 -5 28 -17 49 -46 74 -32 28 -40 43 -44 80 -4 37 0
52 20 81 16 24 22 41 16 50 -14 23 -10 79 8 110 16 27 101 79 129 79 7 0 15
-19 19 -42z"/>
        <path d="M801 1076 c-9 -10 -12 -29 -8 -52 5 -30 3 -36 -16 -43 -30 -12 -49
-36 -45 -58 3 -17 81 -83 99 -83 4 0 16 11 24 24 15 22 15 27 -1 57 -9 18 -22
64 -28 102 -10 60 -14 67 -25 53z"/>
        <path d="M526 1059 c-18 -26 -7 -61 30 -100 l25 -26 -28 -8 c-40 -9 -63 -34
-63 -65 0 -36 23 -54 66 -53 l35 1 -7 -44 c-13 -89 13 -114 116 -114 45 0 60
-4 60 -14 0 -8 3 -21 6 -30 4 -11 -3 -17 -26 -23 -24 -6 -47 -29 -95 -93 -35
-46 -61 -89 -58 -94 7 -10 203 -3 221 8 7 4 12 31 12 65 l0 58 58 12 c68 14
127 45 156 84 26 36 26 113 -2 185 l-20 52 44 0 c40 0 44 2 35 18 -7 13 -7 22
0 29 6 6 9 21 7 34 -2 19 -10 25 -35 27 -29 3 -38 -5 -123 -107 -51 -61 -94
-111 -96 -111 -15 0 -162 111 -191 144 -35 40 -93 149 -93 174 0 19 -17 14
-34 -9z"/>
    </g>
</svg>
