<?xml version="1.0" standalone="no"?>
<!DOCTYPE svg PUBLIC "-//W3C//DTD SVG 20010904//EN"
        "http://www.w3.org/TR/2001/REC-SVG-20010904/DTD/svg10.dtd">
<svg version="1.0" xmlns="http://www.w3.org/2000/svg"
     width="157.000000pt" height="157.000000pt" viewBox="0 0 157.000000 157.000000"
     preserveAspectRatio="xMidYMid meet">

    <g transform="translate(0.000000,157.000000) scale(0.100000,-0.100000)"
       fill="#1bbc9b" stroke="none">
        <path d="M645 1555 c-271 -49 -500 -244 -596 -505 -147 -403 65 -852 471
-1000 403 -148 852 63 1001 470 101 277 36 584 -169 802 -182 193 -449 281
-707 233z m-64 -315 c11 -6 33 -39 49 -73 l29 -62 130 0 131 0 29 62 c17 34
39 67 50 72 52 29 144 -4 181 -64 13 -21 24 -59 27 -93 6 -70 -16 -122 -77
-179 l-38 -37 37 -42 c21 -24 43 -60 49 -82 23 -74 9 -190 -21 -179 -8 3 -11
22 -9 59 5 83 -13 133 -67 192 -26 28 -55 72 -65 98 -41 110 -116 170 -188
151 -25 -7 -51 -7 -75 0 -74 19 -148 -40 -189 -151 -10 -26 -36 -67 -59 -92
-53 -58 -79 -125 -72 -186 3 -34 1 -47 -10 -51 -25 -10 -34 18 -30 89 4 69 32
132 76 172 l21 19 -40 39 c-62 60 -83 110 -77 180 6 70 36 122 85 148 41 21
93 25 123 10z m119 -465 c26 -32 -13 -81 -47 -59 -35 22 -23 74 17 74 10 0 23
-7 30 -15z m240 0 c26 -32 -13 -81 -47 -59 -35 22 -23 74 17 74 10 0 23 -7 30
-15z m-573 -216 c15 -6 62 -16 103 -23 54 -8 75 -16 75 -26 0 -22 -73 -24
-148 -5 -65 17 -94 36 -83 54 9 14 18 14 53 0z m899 0 c11 -18 -18 -37 -83
-54 -75 -19 -148 -17 -148 5 0 10 21 18 75 26 41 7 86 17 100 22 33 14 47 14
56 1z m-662 -41 c2 -7 9 -39 16 -72 23 -111 126 -179 224 -146 54 18 102 78
116 146 17 82 18 86 33 81 7 -2 12 -23 12 -55 -1 -56 10 -67 25 -27 5 14 13
25 17 24 134 -11 218 -26 218 -39 0 -12 -18 -15 -95 -15 -93 0 -96 -1 -150
-36 -30 -20 -66 -49 -80 -64 -54 -60 -152 -81 -228 -50 -20 9 -55 33 -77 54
-22 21 -62 51 -90 67 -45 26 -59 29 -140 29 -73 0 -90 3 -90 15 0 12 24 18
109 27 113 12 126 11 126 -11 0 -8 7 -19 15 -26 13 -11 14 -7 9 33 -4 25 -4
53 -1 61 8 19 26 21 31 4z m247 -118 c43 -23 2 -70 -61 -70 -62 0 -103 46 -62
69 22 14 98 14 123 1z"/>
        <path d="M482 1195 c-22 -10 -39 -28 -52 -57 -23 -51 -25 -87 -6 -131 14 -34
68 -97 83 -97 4 0 23 29 42 65 18 36 44 74 57 84 l23 18 -35 67 c-39 72 -51
78 -112 51z"/>
        <path d="M987 1145 l-35 -65 33 -35 c17 -20 42 -58 55 -85 13 -28 28 -50 33
-50 15 0 69 63 83 97 30 70 0 163 -60 188 -61 26 -72 21 -109 -50z"/>
    </g>
</svg>
