<?xml version="1.0" standalone="no"?>
<!DOCTYPE svg PUBLIC "-//W3C//DTD SVG 20010904//EN"
        "http://www.w3.org/TR/2001/REC-SVG-20010904/DTD/svg10.dtd">
<svg version="1.0" xmlns="http://www.w3.org/2000/svg"
     width="157.000000pt" height="157.000000pt" viewBox="0 0 157.000000 157.000000"
     preserveAspectRatio="xMidYMid meet">

    <g transform="translate(0.000000,157.000000) scale(0.100000,-0.100000)"
       fill="#db0a5b" stroke="none">
        <path d="M630 1555 c-295 -63 -528 -284 -607 -575 -24 -90 -24 -300 0 -390 74
-274 293 -493 567 -567 90 -24 300 -24 390 0 274 74 493 293 567 567 24 90 24
300 0 390 -73 271 -293 493 -562 566 -83 22 -273 27 -355 9z m36 -520 c18 -14
35 -33 38 -42 5 -16 19 -18 106 -18 87 0 101 2 106 18 9 29 68 67 115 73 59 7
127 -27 152 -76 30 -58 10 -157 -44 -216 -16 -17 -18 -25 -8 -53 25 -72 -18
-175 -98 -236 -54 -41 -155 -75 -223 -75 -68 0 -169 34 -223 75 -80 61 -123
164 -98 236 9 28 8 35 -13 60 -56 67 -70 166 -31 225 42 64 155 79 221 29z"/>
        <path d="M525 998 c-31 -18 -44 -40 -45 -77 0 -31 36 -111 50 -111 4 0 29 27
56 61 26 33 54 64 62 68 19 11 4 39 -29 56 -33 18 -67 19 -94 3z"/>
        <path d="M999 995 c-29 -16 -46 -48 -29 -53 5 -2 34 -32 64 -67 50 -59 55 -62
69 -47 25 29 37 59 37 94 -1 72 -74 109 -141 73z"/>
        <path d="M714 901 c-25 -11 -58 -41 -87 -77 -108 -136 -112 -184 -22 -271 59
-57 123 -83 205 -83 137 0 270 102 270 208 0 29 -55 117 -109 176 -58 64 -173
85 -257 47z m157 -160 c26 -26 29 -36 29 -91 0 -55 -3 -65 -29 -91 -40 -39
-82 -39 -122 0 -26 26 -29 36 -29 91 0 55 3 65 29 91 40 39 82 39 122 0z
m-191 -17 c11 -12 10 -18 -3 -32 -16 -15 -18 -15 -34 0 -13 14 -14 20 -3 32 7
9 16 16 20 16 4 0 13 -7 20 -16z m300 0 c11 -12 10 -18 -3 -32 -16 -15 -18
-15 -34 0 -13 14 -14 20 -3 32 7 9 16 16 20 16 4 0 13 -7 20 -16z"/>
        <path d="M784 697 c-3 -8 -4 -34 -2 -58 3 -39 6 -44 28 -44 24 0 25 3 25 55 0
49 -2 55 -23 58 -12 2 -24 -3 -28 -11z"/>
    </g>
</svg>
