<?xml version="1.0" standalone="no"?>
<!DOCTYPE svg PUBLIC "-//W3C//DTD SVG 20010904//EN"
        "http://www.w3.org/TR/2001/REC-SVG-20010904/DTD/svg10.dtd">
<svg version="1.0" xmlns="http://www.w3.org/2000/svg"
     width="157.000000pt" height="157.000000pt" viewBox="0 0 157.000000 157.000000"
     preserveAspectRatio="xMidYMid meet">

    <g transform="translate(0.000000,157.000000) scale(0.100000,-0.100000)"
       fill="#26a65b" stroke="none">
        <path d="M675 1564 c-314 -51 -566 -277 -651 -585 -25 -89 -25 -299 0 -388 76
-277 290 -491 567 -567 89 -25 299 -25 388 0 230 63 425 228 521 440 50 111
64 179 64 321 0 142 -14 210 -64 321 -95 211 -292 378 -515 438 -60 17 -254
29 -310 20z m176 -524 c78 0 92 2 95 18 3 9 13 35 23 57 l18 40 19 -53 c14
-39 23 -51 34 -46 46 21 79 16 110 -14 29 -29 30 -33 30 -122 l0 -91 -45 31
-45 31 0 -32 0 -33 -30 29 -30 29 0 -29 0 -28 -23 21 c-29 27 -37 28 -37 2 0
-17 -3 -19 -19 -8 -17 10 -23 9 -40 -6 -12 -11 -21 -27 -21 -37 0 -27 74 -77
125 -85 38 -5 49 -2 89 25 25 18 46 31 46 29 0 -20 -33 -164 -41 -179 -13 -26
-68 -59 -97 -59 -12 0 -48 9 -78 20 l-56 19 6 -25 c15 -60 69 -104 126 -104
16 0 20 -7 20 -30 0 -34 -11 -37 -75 -19 -71 20 -135 106 -135 182 0 11 -18
25 -54 41 -105 47 -96 56 -96 -98 l0 -136 -30 0 -30 0 0 150 0 150 -75 0 -75
0 37 75 37 75 -52 53 -52 53 75 22 75 22 0 90 0 91 90 -61 89 -60 92 0z"/>
        <path d="M640 986 l0 -54 -46 -11 -45 -12 25 -30 c31 -37 31 -39 6 -89 -26
-50 -26 -50 11 -50 17 0 94 -26 172 -59 153 -63 230 -91 252 -91 7 0 23 12 35
28 l22 27 -51 7 c-87 13 -153 56 -187 121 -13 23 -13 31 0 55 34 64 116 109
221 119 53 5 65 9 65 23 0 10 -6 23 -14 29 -14 12 -46 5 -46 -10 0 -5 -72 -9
-161 -9 l-160 0 -44 30 c-24 17 -46 30 -49 30 -3 0 -6 -24 -6 -54z m212 -66
c-38 -35 -74 -38 -102 -10 -34 34 -24 40 58 40 l77 -1 -33 -29z"/>
    </g>
</svg>
