<?xml version="1.0" standalone="no"?>
<!DOCTYPE svg PUBLIC "-//W3C//DTD SVG 20010904//EN"
        "http://www.w3.org/TR/2001/REC-SVG-20010904/DTD/svg10.dtd">
<svg version="1.0" xmlns="http://www.w3.org/2000/svg"
     width="157.000000pt" height="157.000000pt" viewBox="0 0 157.000000 157.000000"
     preserveAspectRatio="xMidYMid meet">

    <g transform="translate(0.000000,157.000000) scale(0.100000,-0.100000)"
       fill="#f64747" stroke="none">
        <path d="M640 1555 c-168 -34 -280 -95 -405 -220 -128 -128 -187 -239 -221
-413 -34 -176 3 -378 97 -539 44 -75 197 -228 272 -272 161 -94 363 -131 539
-97 174 34 285 93 413 221 128 128 187 239 221 413 34 176 -3 378 -97 539 -44
75 -197 228 -272 272 -161 95 -371 131 -547 96z m19 -459 c29 -29 37 -33 58
-25 29 11 100 11 128 -1 16 -6 28 0 58 28 l37 36 22 -22 22 -22 -28 -29 -29
-30 34 -38 c19 -21 41 -53 48 -70 l13 -32 38 19 37 19 12 -25 c15 -33 16 -31
-26 -53 -38 -19 -38 -19 -35 -75 l4 -56 44 0 c42 0 44 -1 44 -30 0 -29 -1 -30
-49 -30 -44 0 -50 -3 -59 -27 -5 -16 -13 -35 -17 -45 -5 -11 6 -25 38 -50 45
-34 45 -34 27 -58 l-18 -23 -43 31 -43 32 -31 -29 c-42 -41 -111 -71 -165 -71
-54 0 -123 30 -165 71 l-31 29 -43 -32 -43 -31 -19 24 c-18 24 -18 24 3 39 12
8 33 24 45 35 23 20 23 21 7 63 -17 41 -18 42 -66 42 -47 0 -48 1 -48 30 0 29
2 30 44 30 l44 0 4 56 c3 56 3 56 -34 75 -43 22 -42 20 -27 53 l12 25 37 -19
38 -19 13 32 c7 17 29 49 48 70 l34 38 -28 29 c-28 29 -28 30 -10 50 24 26 25
26 64 -14z"/>
        <path d="M715 1006 c-16 -7 -43 -26 -60 -41 l-30 -29 35 -15 c47 -20 193 -20
240 0 l35 15 -30 29 c-57 53 -128 68 -190 41z"/>
        <path d="M580 824 c-14 -69 -7 -151 19 -209 22 -49 81 -110 122 -124 l29 -10
0 178 0 178 -62 16 c-35 8 -70 18 -80 22 -13 5 -18 -4 -28 -51z"/>
        <path d="M930 869 c-14 -6 -46 -15 -72 -20 l-48 -11 0 -178 0 -179 29 10 c104
36 170 192 141 332 -12 61 -12 61 -50 46z"/>
    </g>
</svg>
