<?xml version="1.0" standalone="no"?>
<!DOCTYPE svg PUBLIC "-//W3C//DTD SVG 20010904//EN"
        "http://www.w3.org/TR/2001/REC-SVG-20010904/DTD/svg10.dtd">
<svg version="1.0" xmlns="http://www.w3.org/2000/svg"
     width="157.000000pt" height="157.000000pt" viewBox="0 0 157.000000 157.000000"
     preserveAspectRatio="xMidYMid meet">

    <g transform="translate(0.000000,157.000000) scale(0.100000,-0.100000)"
       fill="#59abe3" stroke="none">
        <path d="M675 1561 c-112 -18 -254 -74 -339 -134 -49 -34 -145 -128 -181 -177
-49 -67 -101 -176 -126 -266 -32 -111 -32 -287 0 -398 41 -147 112 -267 218
-367 72 -68 101 -89 189 -133 117 -58 211 -80 349 -80 138 0 232 22 349 80 88
44 117 65 189 133 106 100 177 220 218 367 32 111 32 287 0 398 -22 80 -74
194 -114 250 -34 49 -128 145 -177 181 -66 49 -176 101 -261 125 -83 23 -238
33 -314 21z m-45 -416 l33 -35 24 35 c29 43 55 44 81 4 l19 -31 22 31 c28 39
55 39 78 1 9 -16 20 -30 23 -30 3 0 13 14 22 31 27 47 56 37 92 -35 25 -47 30
-71 31 -125 0 -36 -4 -76 -8 -88 -8 -22 -7 -23 60 -24 l68 0 -52 -27 c-29 -14
-53 -29 -53 -32 0 -3 24 -18 53 -32 l52 -27 -98 0 -97 -1 25 -50 c28 -56 31
-86 11 -115 -7 -11 -16 -47 -20 -79 -9 -80 -36 -196 -45 -196 -4 0 -22 20 -40
45 -18 25 -37 45 -42 45 -6 0 -30 -14 -54 -30 -24 -17 -46 -27 -48 -23 -2 5
-8 29 -11 55 l-7 47 -45 -20 c-25 -10 -50 -19 -55 -19 -5 0 -9 27 -9 61 0 53
-2 60 -17 55 -61 -17 -106 -27 -110 -23 -4 4 6 49 23 110 5 15 -3 17 -73 17
l-78 1 71 68 c39 38 106 94 148 126 l77 58 -35 23 c-47 32 -87 117 -94 199 -5
64 -4 65 20 65 14 0 37 -14 58 -35z"/>
        <path d="M700 1050 l-24 -39 -23 21 c-29 27 -29 16 -1 -29 22 -37 69 -63 113
-63 20 0 25 -5 25 -24 0 -19 -16 -36 -67 -72 -38 -26 -94 -69 -125 -94 l-58
-45 41 -3 c29 -2 39 -7 35 -17 -2 -7 -8 -30 -12 -51 l-7 -37 37 7 c21 4 44 10
52 13 11 4 14 -6 14 -51 0 -31 2 -56 5 -56 3 0 22 7 42 15 49 21 50 20 58 -25
4 -22 10 -40 13 -40 4 0 20 9 37 20 29 19 30 19 51 -1 l22 -20 4 45 c2 34 0
46 -10 46 -24 0 -72 57 -72 85 0 26 32 95 69 150 12 17 21 44 21 60 0 19 7 35
19 42 32 20 45 78 32 139 -7 30 -16 56 -20 58 -4 3 -18 -13 -31 -35 -14 -21
-27 -39 -30 -39 -3 0 -16 18 -30 40 -14 22 -27 40 -30 40 -3 0 -16 -18 -30
-40 -14 -22 -27 -40 -30 -40 -3 0 -16 18 -30 40 -14 22 -27 40 -30 40 -3 0
-16 -18 -30 -40z m205 -170 c0 -18 -6 -26 -23 -28 -24 -4 -38 18 -28 44 3 9
15 14 28 12 17 -2 23 -10 23 -28z"/>
        <path d="M921 663 c-10 -22 -9 -29 3 -42 15 -14 17 -14 32 0 12 13 13 20 3 42
-7 15 -15 27 -19 27 -4 0 -12 -12 -19 -27z"/>
    </g>
</svg>
