<?xml version="1.0" standalone="no"?>
<!DOCTYPE svg PUBLIC "-//W3C//DTD SVG 20010904//EN"
        "http://www.w3.org/TR/2001/REC-SVG-20010904/DTD/svg10.dtd">
<svg version="1.0" xmlns="http://www.w3.org/2000/svg"
     width="157.000000pt" height="157.000000pt" viewBox="0 0 157.000000 157.000000"
     preserveAspectRatio="xMidYMid meet">

    <g transform="translate(0.000000,157.000000) scale(0.100000,-0.100000)"
       fill="#674172" stroke="none">
        <path d="M620 1555 c-244 -52 -437 -201 -545 -420 -63 -127 -75 -183 -75 -350
0 -167 12 -223 75 -350 78 -159 191 -272 350 -351 130 -64 195 -79 350 -79
155 0 220 15 350 79 159 79 272 192 351 351 64 130 79 195 79 350 0 155 -15
220 -79 350 -79 159 -192 272 -351 350 -49 25 -117 52 -150 61 -83 22 -273 27
-355 9z m207 -399 c37 -53 59 -121 71 -210 l7 -59 46 -11 c103 -27 186 -102
210 -190 10 -36 9 -42 -10 -57 -12 -10 -21 -22 -21 -29 0 -25 -32 -71 -60 -85
-16 -8 -55 -15 -88 -15 -75 0 -101 -19 -109 -78 -5 -41 -7 -42 -42 -42 -114 1
-239 64 -303 153 l-20 27 49 54 c28 30 54 71 61 94 7 23 28 62 48 87 l34 46
-24 32 c-51 68 -106 221 -106 295 0 23 3 24 37 19 21 -4 58 -17 84 -31 l47
-24 18 39 c9 22 22 38 28 36 5 -2 25 -25 43 -51z"/>
        <path d="M645 1084 c12 -65 61 -161 110 -213 l47 -50 -41 -20 c-43 -22 -86
-84 -97 -138 -3 -17 -21 -46 -40 -64 -19 -18 -34 -39 -34 -46 0 -20 90 -82
143 -98 72 -21 84 -20 92 14 12 57 72 91 160 91 46 0 56 4 74 26 12 15 21 41
21 60 0 18 6 34 12 36 9 3 4 17 -15 46 -37 56 -111 93 -198 100 l-67 5 -6 46
c-12 89 -80 195 -147 232 -21 11 -21 10 -14 -27z m305 -330 c11 -12 10 -18 -3
-32 -16 -15 -18 -15 -34 0 -13 14 -14 20 -3 32 7 9 16 16 20 16 4 0 13 -7 20
-16z"/>
        <path d="M787 1093 c-3 -5 3 -22 14 -39 10 -16 19 -22 19 -14 -1 23 -26 64
-33 53z"/>
    </g>
</svg>
