<?xml version="1.0" standalone="no"?>
<!DOCTYPE svg PUBLIC "-//W3C//DTD SVG 20010904//EN"
        "http://www.w3.org/TR/2001/REC-SVG-20010904/DTD/svg10.dtd">
<svg version="1.0" xmlns="http://www.w3.org/2000/svg"
     width="157.000000pt" height="157.000000pt" viewBox="0 0 157.000000 157.000000"
     preserveAspectRatio="xMidYMid meet">

    <g transform="translate(0.000000,157.000000) scale(0.100000,-0.100000)"
       fill="#049372" stroke="none">
        <path d="M670 1564 c-263 -51 -458 -191 -579 -414 -64 -120 -86 -212 -86 -365
0 -106 5 -145 23 -210 76 -264 283 -471 549 -547 111 -32 305 -32 416 0 266
76 473 283 549 547 33 114 33 306 0 420 -75 262 -283 471 -544 546 -72 20
-269 34 -328 23z m-180 -461 c-11 -21 -20 -54 -20 -74 0 -32 4 -38 31 -50 43
-17 131 1 216 47 35 19 72 34 82 34 10 0 52 -18 94 -39 88 -44 163 -59 207
-41 26 11 30 18 30 49 0 20 -9 53 -20 74 -20 38 -20 38 -1 27 33 -17 72 -77
78 -118 7 -50 -16 -94 -59 -115 l-33 -17 48 0 47 0 0 -36 c0 -59 -28 -104 -77
-126 -31 -14 -43 -25 -43 -40 0 -11 -11 -31 -24 -43 -27 -25 -66 -138 -66
-189 0 -73 -82 -134 -180 -134 -98 0 -180 61 -180 134 0 51 -39 164 -66 189
-13 12 -24 32 -24 43 0 15 -12 26 -43 40 -49 22 -77 67 -77 126 l0 36 48 0 47
0 -33 17 c-81 39 -81 150 0 218 39 33 42 32 18 -12z"/>
        <path d="M764 984 c-58 -28 -103 -75 -133 -137 -39 -81 -50 -151 -26 -177 9
-10 27 -45 41 -77 13 -32 27 -57 31 -56 5 1 21 5 36 8 25 7 27 5 27 -24 0 -19
-5 -31 -13 -31 -18 0 -47 -32 -47 -52 0 -9 7 -21 15 -28 12 -10 15 -10 15 4 0
11 9 16 30 16 27 0 30 -3 30 -30 0 -27 3 -30 30 -30 27 0 30 3 30 30 0 27 3
30 30 30 21 0 30 -5 30 -16 0 -14 3 -14 15 -4 8 7 15 20 15 30 0 19 -30 50
-48 50 -7 0 -12 14 -12 31 0 29 2 31 27 24 15 -3 31 -7 36 -8 4 -1 18 24 31
56 14 32 32 67 41 77 31 34 -1 159 -61 237 -21 27 -116 93 -134 93 -3 0 -19
-7 -36 -16z m-64 -282 c42 -20 45 -43 8 -56 -33 -12 -61 9 -77 56 -10 27 -9
29 12 23 12 -4 38 -14 57 -23z m269 1 c-22 -59 -57 -77 -95 -49 -17 13 -17 16
-4 30 13 13 81 43 102 45 4 1 3 -11 -3 -26z"/>
        <path d="M480 800 c10 -19 48 -45 55 -38 2 2 6 15 10 31 7 26 6 27 -34 27 -38
0 -41 -2 -31 -20z"/>
        <path d="M1055 793 c4 -16 8 -29 10 -31 7 -7 45 19 55 38 10 18 7 20 -31 20
-40 0 -41 -1 -34 -27z"/>
    </g>
</svg>
