<?xml version="1.0" standalone="no"?>
<!DOCTYPE svg PUBLIC "-//W3C//DTD SVG 20010904//EN"
        "http://www.w3.org/TR/2001/REC-SVG-20010904/DTD/svg10.dtd">
<svg version="1.0" xmlns="http://www.w3.org/2000/svg"
     width="157.000000pt" height="157.000000pt" viewBox="0 0 157.000000 157.000000"
     preserveAspectRatio="xMidYMid meet">

    <g transform="translate(0.000000,157.000000) scale(0.100000,-0.100000)"
       fill="#f1a9a0" stroke="none">
        <path d="M670 1564 c-263 -51 -458 -191 -579 -414 -64 -120 -86 -212 -86 -365
0 -106 5 -145 23 -210 76 -264 283 -471 549 -547 111 -32 305 -32 416 0 266
76 473 283 549 547 33 114 33 306 0 420 -75 262 -283 471 -544 546 -72 20
-269 34 -328 23z m410 -485 c0 -70 2 -76 75 -217 41 -80 75 -151 75 -159 0
-29 -30 -71 -59 -82 -35 -15 -63 -8 -94 23 -12 13 -41 28 -64 35 -23 6 -56 23
-73 37 l-30 26 0 -31 c0 -18 16 -72 34 -121 19 -49 38 -105 42 -125 6 -34 5
-35 -24 -35 -25 0 -30 5 -36 33 -3 17 -22 72 -42 121 -47 116 -44 165 12 213
20 18 41 33 45 33 4 0 13 -16 19 -35 14 -41 52 -65 105 -65 28 0 37 -5 45 -24
12 -34 29 -41 48 -22 14 13 14 20 4 34 -6 9 -41 74 -77 144 -51 101 -65 137
-65 173 0 53 -17 53 -50 0 -17 -28 -26 -33 -74 -38 -177 -18 -296 -200 -322
-494 l-7 -73 -60 0 -60 0 7 73 c9 91 37 213 70 299 68 183 192 292 355 314 45
6 51 4 51 -11 0 -17 2 -17 23 3 27 26 63 41 100 41 27 1 27 1 27 -70z m-40
-185 c11 -12 10 -18 -3 -32 -16 -15 -18 -15 -34 0 -13 14 -14 20 -3 32 7 9 16
16 20 16 4 0 13 -7 20 -16z"/>
    </g>
</svg>
