<?xml version="1.0" standalone="no"?>
<!DOCTYPE svg PUBLIC "-//W3C//DTD SVG 20010904//EN"
 "http://www.w3.org/TR/2001/REC-SVG-20010904/DTD/svg10.dtd">
<svg version="1.0" xmlns="http://www.w3.org/2000/svg"
 width="100.000000pt" height="72.000000pt" viewBox="0 0 100.000000 72.000000"
 preserveAspectRatio="xMidYMid meet">

<g transform="translate(0.000000,72.000000) scale(0.100000,-0.100000)"
fill="#00ccff" stroke="none">
<path d="M0 360 l0 -360 500 0 500 0 0 360 0 360 -500 0 -500 0 0 -360z m960
0 l0 -320 -460 0 -460 0 0 320 0 320 460 0 460 0 0 -320z"/>
<path d="M80 557 c0 -20 29 -40 203 -138 111 -63 209 -114 217 -114 8 0 106
52 218 114 172 98 202 118 202 138 0 28 19 37 -233 -106 -99 -56 -183 -101
-188 -101 -5 0 -88 45 -185 100 -250 143 -234 135 -234 107z"/>
</g>
</svg>
