<?xml version="1.0" standalone="no"?>
<!DOCTYPE svg PUBLIC "-//W3C//DTD SVG 20010904//EN"
 "http://www.w3.org/TR/2001/REC-SVG-20010904/DTD/svg10.dtd">
<svg version="1.0" xmlns="http://www.w3.org/2000/svg"
 width="150.000000pt" height="160.000000pt" viewBox="0 0 15.000000 16.000000"
 preserveAspectRatio="xMidYMid meet">

<g transform="translate(0.000000,16.000000) scale(0.100000,-0.100000)"
fill="#000000" stroke="none">
<path d="M0 155 c0 -5 14 -24 32 -42 l32 -33 -32 -33 c-45 -47 -40 -59 6 -14
l38 37 34 -35 c18 -19 36 -32 39 -30 2 3 -11 21 -29 40 l-34 35 34 35 c18 19
31 37 29 40 -3 2 -21 -11 -39 -30 l-34 -35 -38 37 c-21 20 -38 33 -38 28z"/>
</g>
</svg>
