<svg xmlns="http://www.w3.org/2000/svg" x="0px" y="0px"
width="48" height="48"
viewBox="0 0 224 224"
style=" fill:#727272;"><g fill="none" fill-rule="nonzero" stroke="none" stroke-width="1" stroke-linecap="butt" stroke-linejoin="miter" stroke-miterlimit="10" stroke-dasharray="" stroke-dashoffset="0" font-family="none" font-weight="none" font-size="none" text-anchor="none" style="mix-blend-mode: normal"><path d="M0,224v-224h224v224z" fill="#727272"></path><g fill="#f0f0f0"><path d="M112,22.4c-49.4816,0 -89.6,40.1184 -89.6,89.6c0,49.4816 40.1184,89.6 89.6,89.6c49.4816,0 89.6,-40.1184 89.6,-89.6c0,-49.4816 -40.1184,-89.6 -89.6,-89.6zM147.1456,117.27893l-44.8,44.8c-1.456,1.456 -3.36747,2.18773 -5.27893,2.18773c-1.91147,0 -3.82293,-0.73173 -5.27893,-2.18773c-2.91947,-2.91947 -2.91947,-7.6384 0,-10.55787l39.52107,-39.52107l-39.52107,-39.52107c-2.91947,-2.91947 -2.91947,-7.6384 0,-10.55787c2.91947,-2.91947 7.6384,-2.91947 10.55787,0l44.8,44.8c2.91947,2.91947 2.91947,7.6384 0,10.55787z"></path></g></g></svg>