<?xml version="1.0" encoding="UTF-8" standalone="no"?>
<!DOCTYPE svg PUBLIC "-//W3C//DTD SVG 1.1//EN" "http://www.w3.org/Graphics/SVG/1.1/DTD/svg11.dtd">
<svg version="1.1" xmlns="http://www.w3.org/2000/svg" xmlns:xlink="http://www.w3.org/1999/xlink" preserveAspectRatio="xMidYMid meet" viewBox="0 0 640 640" width="640" height="640"><defs><path d="M427.82 248.57C433.35 248.57 437.82 253.05 437.82 258.57C437.82 285.14 437.82 354.86 437.82 381.43C437.82 386.95 433.35 391.43 427.82 391.43C382.69 391.43 257.31 391.43 212.18 391.43C206.65 391.43 202.18 386.95 202.18 381.43C202.18 354.86 202.18 285.14 202.18 258.57C202.18 253.05 206.65 248.57 212.18 248.57C257.31 248.57 382.69 248.57 427.82 248.57Z" id="f2gAVZvEl5"></path><path d="" id="b15DRO7vOI"></path><path d="M268.3 320C268.3 331.26 259.15 340.41 247.89 340.41C236.63 340.41 227.48 331.26 227.48 320C227.48 308.74 236.63 299.59 247.89 299.59C259.15 299.59 268.3 308.74 268.3 320Z" id="c4vDazdOPc"></path><path d="M340.41 318.44C340.41 329.7 331.26 338.84 320 338.84C308.74 338.84 299.59 329.7 299.59 318.44C299.59 307.17 308.74 298.03 320 298.03C331.26 298.03 340.41 307.17 340.41 318.44Z" id="cwPiXsCV"></path><path d="M412.79 319.44C412.79 330.7 403.64 339.84 392.38 339.84C381.12 339.84 371.97 330.7 371.97 319.44C371.97 308.17 381.12 299.03 392.38 299.03C403.64 299.03 412.79 308.17 412.79 319.44Z" id="jPMCmUJd2"></path></defs><g><g><g><use xlink:href="#f2gAVZvEl5" opacity="1" fill="#ececec" fill-opacity="1"></use></g><g><g><use xlink:href="#b15DRO7vOI" opacity="1" fill-opacity="0" stroke="#000000" stroke-width="0" stroke-opacity="1"></use></g></g><g><use xlink:href="#c4vDazdOPc" opacity="1" fill="#bfc5d9" fill-opacity="1"></use></g><g><use xlink:href="#cwPiXsCV" opacity="1" fill="#bfc5d9" fill-opacity="1"></use></g><g><use xlink:href="#jPMCmUJd2" opacity="1" fill="#bfc5d9" fill-opacity="1"></use></g></g></g></svg>