<svg xmlns="http://www.w3.org/2000/svg" width="48pt" height="48pt" viewBox="0 0 64 64" overflow="visible" enable-background="new 0 0 64 64"><path d="M31.965 1.854c-16.826 0-30.52 13.695-30.52 30.525 0 16.831 13.694 30.525 30.52 30.525 16.836 0 30.529-13.694 30.529-30.525 0-16.83-13.693-30.525-30.529-30.525z" fill="#ffd000"/><path d="M3.438 32.378c0 15.755 12.776 28.528 28.527 28.528 15.76 0 28.533-12.772 28.533-28.528 0-15.754-12.773-28.525-28.533-28.525-15.751.001-28.527 12.771-28.527 28.525z" fill="url(#a)"/><path d="M8.737 19.147c5.491 2.499 13.202 4.054 21.744 4.054 9.832 0 18.566-2.061 24.076-5.248-4.494-7.827-12.936-13.103-22.592-13.103-10.13 0-18.934 5.821-23.228 14.297z" fill="url(#b)"/><path d="M64 64h-64v-64h64v64z" fill="none"/><circle cx="21.467" cy="23.6" r="3.938" fill="#2b0000" fill-rule="evenodd" stroke="#000" stroke-width=".656"/><circle cy="23.467" cx="42.667" r="3.938" fill-rule="evenodd" stroke="#000" stroke-width=".656"/><path d="M16 39.206s3.2 8.806 16 8.8c12.8-.006 16-8.8 16-8.8" stroke="#000" stroke-width="2.133" stroke-linecap="round" fill="none"/></svg>